<svg width="21" height="23" viewBox="0 0 21 23" fill="none" xmlns="http://www.w3.org/2000/svg">
<path d="M20.2454 10.8825C20.1562 12.9597 19.6409 14.6109 18.6997 15.8361C17.7666 17.0532 16.5089 17.6618 14.9266 17.6618C14.2288 17.6618 13.6243 17.5117 13.1131 17.2114C12.6101 16.9112 12.2287 16.4812 11.9691 15.9213C11.1576 17.0573 10.0988 17.6253 8.79239 17.6253C7.60774 17.6253 6.69085 17.1262 6.04172 16.1282C5.39259 15.1302 5.14917 13.8116 5.31145 12.1726C5.45751 10.8338 5.79424 9.64506 6.32166 8.60646C6.85719 7.55975 7.53065 6.75645 8.34206 6.19658C9.15347 5.63671 10.0298 5.35677 10.971 5.35677C12.1313 5.35677 13.1213 5.62454 13.9408 6.16007L14.7076 6.68343L14.0868 13.7183C14.0057 14.3593 14.0747 14.8502 14.2937 15.191C14.5209 15.5318 14.878 15.7022 15.3648 15.7022C16.1113 15.7022 16.7361 15.2681 17.2392 14.3999C17.7422 13.5236 18.0181 12.3795 18.0668 10.9677C18.2047 8.13585 17.6327 5.96127 16.3507 4.44394C15.0767 2.91849 13.1862 2.15577 10.6789 2.15577C9.1129 2.15577 7.71728 2.55336 6.49205 3.34854C5.26683 4.14372 4.30125 5.27563 3.59533 6.74428C2.8894 8.20482 2.49181 9.88037 2.40256 11.771C2.27273 14.6433 2.84883 16.8625 4.13085 18.4286C5.41288 20.0027 7.33186 20.7898 9.88779 20.7898C10.5613 20.7898 11.2672 20.7127 12.0056 20.5585C12.744 20.4125 13.3809 20.2137 13.9164 19.9621L14.3789 21.8365C13.884 22.161 13.2146 22.4207 12.3707 22.6154C11.535 22.8183 10.6911 22.9197 9.83911 22.9197C7.69699 22.9197 5.87132 22.4856 4.36211 21.6174C2.85289 20.7573 1.72503 19.4834 0.978534 17.7957C0.240153 16.116 -0.080353 14.1078 0.0170159 11.771C0.114385 9.53147 0.625572 7.52323 1.55058 5.74625C2.47558 3.96926 3.73326 2.59799 5.32362 1.63241C6.9221 0.65872 8.72342 0.171875 10.7276 0.171875C12.7642 0.171875 14.5169 0.610035 15.9855 1.48636C17.4542 2.35456 18.5536 3.60007 19.2839 5.22289C20.0142 6.84571 20.3347 8.73223 20.2454 10.8825ZM8.01344 12.1726C7.92419 13.2437 8.0175 14.0591 8.29338 14.619C8.56926 15.1708 9.01553 15.4466 9.6322 15.4466C10.0298 15.4466 10.4071 15.2722 10.7641 14.9233C11.1211 14.5744 11.4173 14.0713 11.6526 13.4141L12.1638 7.65711C11.8473 7.55163 11.5228 7.49889 11.1901 7.49889C10.257 7.49889 9.53078 7.89648 9.01147 8.69166C8.50029 9.48684 8.16761 10.6472 8.01344 12.1726Z" fill="#76B83F"/>
</svg>
