<svg width="154" height="175" viewBox="0 0 154 175" fill="none" xmlns="http://www.w3.org/2000/svg">
<mask id="mask0_1_1835" style="mask-type:alpha" maskUnits="userSpaceOnUse" x="0" y="0" width="154" height="175">
<path d="M153.162 139C153.162 181.295 118.876 173.903 76.5811 173.903C34.2865 173.903 0 139.616 0 97.3218C0 76.7299 37.3037 82.1651 37.3037 63.0199C37.3037 8.77492 54.0808 0 75.7834 0C97.486 0 123.836 8.77492 123.836 57.8347C123.836 88.5469 153.162 118.408 153.162 139Z" fill="white"/>
</mask>
<g mask="url(#mask0_1_1835)">
<path fill-rule="evenodd" clip-rule="evenodd" d="M25.858 171.691C44.1426 174.47 62.7587 174.609 81.1956 173.6C88.492 173.054 95.8108 172.956 103.101 173.654C107.409 173.975 126.298 175.42 127.841 171.559C126.87 151.005 124.903 130.276 118.868 110.508C116.386 103.488 114.254 97.6626 109.41 91.8542C107.884 90.2682 104.592 86.942 102.705 85.8569C101.071 84.9175 100.388 85.2527 99.4491 83.6655C98.5163 81.912 97.8287 78.9839 96.5044 77.7471C95.1563 76.4871 93.1583 76.9375 90.6814 77.3436C91.1365 71.1927 88.2985 69.626 84.3887 68.4567C77.5163 65.8327 70.7287 67.151 68.9991 75.5205C65.7921 75.5205 63.9902 76.9011 62.0426 78.228C61.2463 78.7699 61.8001 80.1518 60.8495 80.5778C59.0899 81.2044 55.9806 81.0514 54.2865 81.8225C46.5829 85.3296 39.7214 90.416 35.2154 97.8435C25.1132 113.702 18.1739 147.108 19.3747 165.904C18.8486 166.729 19.5761 167.913 19.7611 168.8C19.9945 169.573 20.7504 170.086 21.5393 169.998C22.6402 171.182 24.3429 171.446 25.858 171.691Z" fill="white"/>
<path fill-rule="evenodd" clip-rule="evenodd" d="M101.54 85.3926C101.428 85.3303 101.527 85.17 101.64 85.223C107.063 87.7675 111.222 92.2325 114.15 97.3911C117.18 102.733 118.908 108.797 120.397 114.725L120.451 114.94C122.039 121.281 123.39 127.687 124.605 134.109C125.836 140.613 126.824 147.157 127.619 153.728C128.013 156.977 128.363 160.232 128.637 163.493C128.773 165.123 128.897 166.754 129.009 168.386C129.054 169.038 129.095 169.691 129.132 170.344L129.158 170.833C129.179 171.278 129.232 171.724 129.123 172.162C129.028 172.54 128.828 172.882 128.652 173.229C128.304 173.915 127.35 173.802 126.975 173.229L126.866 173.062C126.618 172.678 126.411 172.321 126.333 171.842C126.258 171.379 126.255 170.893 126.221 170.425C126.159 169.565 126.106 168.703 126.045 167.842C125.918 166.029 125.776 164.217 125.618 162.406C125.305 158.833 124.971 155.262 124.559 151.698C123.829 145.364 122.911 139.047 121.83 132.763C120.774 126.624 119.439 120.548 118.046 114.48L117.901 113.852C115.462 103.257 111.702 91.0553 101.54 85.3926ZM43.7824 126.881C43.8223 126.775 43.9939 126.751 44.0229 126.881C44.3882 128.527 44.4243 130.221 44.4801 131.905C44.5351 133.567 44.5329 135.236 44.5087 136.899C44.4194 143.009 44.2517 149.115 44.1067 155.225C44.0342 158.28 43.9662 161.337 43.914 164.394C43.8943 165.54 43.8777 166.686 43.8639 167.833L43.847 169.344C43.8386 170.013 43.8211 170.673 43.7396 171.341C43.6858 171.78 43.5714 172.199 43.329 172.576C43.1569 172.843 42.9118 172.979 42.6728 173.16L42.6281 173.194C42.3232 173.436 42.0022 173.438 41.7003 173.194L41.6126 173.126C41.3242 172.9 41.075 172.723 40.8909 172.367C40.6348 171.871 40.5938 171.332 40.5503 170.785C40.4842 169.956 40.528 169.115 40.5366 168.284C40.5537 166.616 40.5767 164.949 40.606 163.282C40.7133 157.168 40.9255 151.052 41.3122 144.948C41.4944 142.073 41.7414 139.189 42.0728 136.326L42.1358 135.789C42.2363 134.947 42.328 134.089 42.4313 133.229C40.8894 132.144 39.5341 130.827 38.3783 129.334C38.2932 129.224 38.4333 129.071 38.536 129.177C39.717 130.4 41.0711 131.375 42.5701 132.142C42.8158 130.341 43.1535 128.551 43.7824 126.881ZM69.5421 72.3766C69.5627 72.3607 69.5958 72.3534 69.6163 72.3766C69.9476 72.7635 69.8807 73.3544 69.8913 73.8439L69.8926 73.8897C69.9158 74.6058 69.9204 75.3199 69.9184 76.0367L69.9105 78.3175C69.9098 78.6309 69.8846 78.9575 69.9005 79.2728L69.9085 79.3954C70.0827 79.5736 70.1635 79.8313 70.1046 80.0903C70.094 80.4222 69.9204 80.6991 69.6674 80.8733L70.2099 81.6438L70.7531 82.4135C71.8727 84.0015 73.0048 85.5761 74.184 87.121C75.387 88.6957 76.6702 90.2114 78.013 91.6688C78.6689 92.3809 79.336 93.0831 80.0183 93.7694C80.2959 94.0483 80.5801 94.3206 80.8616 94.5955L81.1412 94.8718C81.3068 95.0374 81.5148 95.201 81.6241 95.4103C81.689 95.5342 81.7036 95.839 81.7268 95.8893C81.9335 96.3444 81.5804 97.0711 80.9928 96.8439L81.0199 96.826C81.1266 96.7518 81.0584 96.7505 80.8139 96.8227C80.6602 96.822 80.5158 96.7869 80.3807 96.7167L80.3409 96.6949C80.1508 96.5981 79.9812 96.4113 79.8269 96.2616L79.7884 96.2252C79.436 95.8946 79.0995 95.5442 78.7616 95.1984C78.0554 94.4769 77.3658 93.7403 76.698 92.9838C75.3658 91.4753 74.1025 89.9046 72.9061 88.2856C71.6879 86.6367 70.5551 84.9031 69.5812 83.0985C69.2116 82.4135 68.8731 81.7153 68.5478 81.0091C67.9158 80.8064 67.7687 80.1334 67.8131 79.3755C67.5799 78.8323 67.3693 78.2771 67.2454 77.7107C67.2282 77.6332 67.3282 77.5597 67.3878 77.6279C67.5899 77.8578 67.7774 78.1022 67.9575 78.3533C68.0662 77.822 68.2033 77.3331 68.2682 77.0211L68.5485 75.6452C66.9685 75.563 65.2375 76.2122 64.1484 77.3484C64.0901 77.6445 63.8622 77.8565 63.6403 78.1334C63.3866 78.4494 63.1653 78.8045 63.0003 79.1754C62.6347 79.9982 62.8414 81.2105 62.1305 81.814C62.057 81.8769 61.9742 81.9207 61.8887 81.9478C62.2259 83.6007 62.0729 85.4224 62.0656 87.0998L62.065 87.2475C62.0669 89.1243 62.004 91.003 61.9318 92.8784L61.8583 94.7353C61.7622 97.2109 61.7006 99.6879 61.9411 102.15C63.0388 101.177 64.1742 100.248 65.3488 99.3639C66.1205 98.7823 66.9082 98.2212 67.7104 97.6813L68.3616 97.246C69.1427 96.722 69.9423 96.1828 70.7975 95.8078C71.9157 95.3176 72.979 95.4859 74.0588 95.9887C75.134 96.4902 76.1774 97.0718 77.2313 97.615C78.3045 98.1675 79.379 98.7147 80.4535 99.2639C81.165 99.6276 82.2077 99.9561 82.7291 100.626C82.7629 100.478 82.8013 100.33 82.847 100.183C82.7953 99.9581 82.8152 99.7157 82.9411 99.4845C84.6946 96.2609 86.317 92.9606 87.9281 89.6642C88.7436 87.9961 89.5193 86.3081 90.3361 84.6407L91.1304 83.017C91.2629 82.7461 91.3961 82.4758 91.5299 82.2062C91.7306 81.8021 91.9393 81.402 92.142 80.9985C92.2274 80.8283 92.3348 80.6593 92.4182 80.4878L92.458 80.401C92.46 80.397 92.6521 79.7915 92.5037 79.8492L92.4904 79.8551C92.4149 79.8982 92.354 79.8028 92.403 79.7418C92.6137 79.4815 92.9065 79.712 93.0264 79.9525C93.3563 80.615 92.7508 81.655 92.5183 82.289L92.505 82.3248C91.7823 84.3711 90.9641 86.3797 90.1255 88.3816C88.5177 92.2186 86.79 95.9966 85.0662 99.7819L85.0464 99.8468C85.4134 99.5653 85.8062 99.3096 86.1421 99.0605C86.99 98.4318 87.8625 97.8349 88.7336 97.2394C90.3308 96.1477 91.9717 95.1281 93.6398 94.1484L93.9737 93.9529C94.8064 93.4673 95.6318 93.0739 96.6209 93.2196C97.5397 93.3547 98.3936 93.8483 99.2237 94.2497L99.3098 94.2908L101.874 95.5104C101.6 94.4167 101.303 93.3282 100.994 92.2438C100.39 90.1285 99.7245 88.0312 99.0038 85.9531C98.3307 84.0107 97.6033 82.0896 96.8335 80.1844L96.6017 79.612C96.2877 78.8276 95.9756 77.9724 95.0787 77.7306C94.1824 77.4888 93.1542 77.8472 92.3348 77.3358C92.2606 77.2894 92.2692 77.1668 92.3599 77.1443L92.8654 77.0165C93.8147 76.7806 94.9276 76.5428 95.8253 76.7727C96.8017 77.0231 97.6099 77.8426 98.0836 78.6951C98.6109 79.6438 98.9819 80.7051 99.382 81.7166L99.4456 81.8756C99.904 83.0197 100.346 84.171 100.768 85.3297C101.613 87.6456 102.382 89.9894 103.077 92.3544C103.412 93.4939 103.73 94.6392 104.036 95.7866C104.125 96.1172 104.27 96.5173 104.388 96.9347C104.525 97.0678 104.654 97.2162 104.774 97.3858C104.976 97.6667 104.831 97.9959 104.582 98.1642C104.572 98.451 104.508 98.7213 104.356 98.9532C103.76 99.8574 102.186 99.6243 102.25 98.4086C102.26 98.2225 102.332 98.0449 102.442 97.8946L102.439 97.8707L102.426 97.8257C102.153 97.6952 101.878 97.5488 101.589 97.4057L98.8971 96.0755C98.118 95.6899 97.2535 95.0944 96.387 94.9473C95.5788 94.8108 94.7262 95.413 94.0313 95.7767L93.9863 95.7999C92.3076 96.6604 90.6415 97.5501 88.9814 98.4464C88.1712 98.8843 87.3716 99.3407 86.5647 99.7833C85.8897 100.154 85.1616 100.686 84.4031 100.895C84.0785 101.147 83.6936 101.113 83.3849 100.923C83.526 101.798 83.5174 102.697 83.5605 103.592C83.6188 104.789 83.628 105.99 83.6473 107.188L83.6552 107.637C83.7062 110.287 83.7334 112.938 83.7433 115.588C83.7791 125.026 83.6751 134.467 83.6506 143.905C83.638 148.647 83.5446 153.393 83.4214 158.133C83.369 160.141 83.2597 162.147 83.1418 164.153L83.0769 165.247C82.9397 167.555 82.8589 169.889 82.4316 172.166C82.376 172.462 81.8732 172.47 81.8242 172.166C81.4313 169.726 81.4095 167.232 81.3333 164.764L81.3174 164.27C81.2266 161.62 81.1836 158.971 81.1928 156.32C81.2266 146.878 81.4717 137.442 81.6725 128.003C81.7732 123.261 81.8414 118.516 81.9984 113.775C82.0766 111.403 82.1653 109.033 82.2707 106.661C82.3177 105.602 82.3627 104.544 82.433 103.488L82.4648 103.035C82.4866 102.739 82.5045 102.447 82.5257 102.158C81.5704 102.507 80.6973 101.861 79.8381 101.419C78.8484 100.909 77.8587 100.399 76.8683 99.8899L75.8766 99.3825L73.8932 98.3702C73.0002 97.9138 72.3119 97.46 71.3593 97.9953C67.9271 99.921 64.7731 102.484 61.9146 105.174C61.3667 105.69 60.2085 105.551 60.0698 104.687C59.4767 100.994 59.8374 97.2474 60.1401 93.5435L60.2517 92.1683C60.387 90.5254 60.5343 88.8831 60.7308 87.2475C60.8182 86.5155 60.9056 85.7841 61.0024 85.0541L61.0772 84.5062C61.1978 83.6404 61.2766 82.7799 61.5343 81.9498C61.4535 81.9233 61.3753 81.8803 61.3051 81.814C60.53 81.0787 60.9037 79.8021 61.2574 78.927C61.6065 78.0632 62.1391 77.3093 62.8062 76.6607C62.9513 76.519 63.1567 76.4275 63.3627 76.4229C64.9791 75.351 66.7532 74.8164 68.5995 75.4014C68.6511 75.1536 68.7041 74.9059 68.7598 74.6588L68.8168 74.4117C68.9598 73.7989 69.0135 72.7867 69.5421 72.3766ZM86.1136 169.155C86.6151 169.017 87.1643 169.163 87.5319 169.53C87.8996 169.898 88.0453 170.448 87.9069 170.949C87.838 171.197 87.7128 171.411 87.5319 171.593C87.363 171.762 87.1662 171.881 86.941 171.953L86.8887 171.968L86.8065 172.003C86.5555 172.07 86.3037 172.07 86.052 172.003C85.8115 171.935 85.6028 171.814 85.426 171.638C85.2497 171.46 85.1285 171.251 85.0609 171.011C84.9934 170.759 84.9934 170.508 85.0609 170.256L85.0954 170.174C85.1643 169.927 85.2895 169.713 85.4697 169.53C85.6519 169.35 85.8665 169.224 86.1136 169.155ZM115.906 119.138C115.989 119.043 116.122 119.164 116.071 119.265C115.289 120.798 114.418 122.319 113.562 123.813C113.631 124.227 113.698 124.638 113.777 125.038C114.11 126.745 114.519 128.42 114.785 130.142C115.743 136.333 116.24 142.592 116.666 148.838C117.094 155.108 117.149 161.379 117.213 167.661C117.218 168.205 116.799 168.838 116.239 168.941C115.982 168.988 115.79 168.979 115.533 168.941C114.95 168.855 114.585 168.186 114.56 167.661C114.392 164.151 114.167 160.644 113.906 157.139C113.443 150.925 113.161 144.694 112.788 138.474L112.656 136.299C112.515 133.944 112.385 131.586 112.344 129.227C112.315 127.664 112.399 126.101 112.348 124.54C112.3 123.099 112.154 121.531 112.472 120.115C112.484 120.062 112.568 120.049 112.591 120.1C112.922 120.795 113.131 121.551 113.292 122.323C114.144 121.246 115.011 120.166 115.906 119.138ZM60.1477 81.0628C60.2672 81.0535 60.2624 81.233 60.1477 81.2463C58.4771 81.4404 56.8634 82.1201 55.286 82.6984L55.1509 82.7474C53.5574 83.3264 52.0037 83.9988 50.5085 84.8004C47.5853 86.3678 44.9009 88.3889 42.5275 90.7029C33.0518 99.9396 28.7335 113.26 25.5691 125.777C23.811 132.731 22.5608 139.804 21.7505 146.93C21.3497 150.454 21.0665 153.992 20.9013 157.535C20.8168 159.351 20.7635 161.169 20.7412 162.987C20.7297 163.917 20.7264 164.849 20.7275 165.78C20.7281 166.207 20.8042 166.744 20.6901 167.158C20.5843 167.542 20.286 167.88 20.0652 168.2C19.8036 168.579 19.3335 168.559 19.0683 168.2L18.9705 168.069C18.6876 167.694 18.4109 167.335 18.3705 166.844C18.3273 166.318 18.3577 165.776 18.3558 165.248C18.3513 164.184 18.3645 163.12 18.3858 162.055C18.4268 160.016 18.5071 157.978 18.6265 155.941C18.8689 151.809 19.2679 147.684 19.8392 143.584C20.8547 136.297 22.3769 129.079 24.3707 121.997C26.2517 115.316 28.4801 108.654 31.6546 102.466C34.6021 96.7194 38.4688 91.374 43.571 87.3581C45.9437 85.4907 48.5266 83.9345 51.3114 82.762C52.7158 82.1711 54.1907 81.6888 55.6906 81.4132C57.1739 81.1416 58.6507 81.1794 60.1477 81.0628ZM86.4011 157.346C86.6661 157.344 86.9609 157.402 87.1888 157.548L87.4922 157.784C87.5743 157.889 87.6565 157.996 87.7379 158.102C87.9281 158.349 87.9533 158.75 87.9135 159.045C87.9042 159.242 87.8459 159.425 87.7379 159.595L87.5067 159.894C87.2848 160.076 87.0993 160.205 86.8304 160.292C86.6893 160.337 86.5541 160.347 86.419 160.34L86.3739 160.337L86.4011 160.341L86.3534 160.336C86.3097 160.332 86.2653 160.327 86.2216 160.322C86.1911 160.318 86.1606 160.315 86.1308 160.311C86.1017 160.309 86.0738 160.308 86.0447 160.31C85.7029 160.342 85.3584 160.149 85.1159 159.925C84.8973 159.725 84.7006 159.299 84.731 158.997L84.7443 158.87C84.7675 158.657 84.786 158.573 84.8761 158.36C84.9642 158.151 85.0868 157.968 85.2531 157.813C85.5724 157.516 85.9632 157.349 86.4011 157.346ZM85.3418 141.765C85.7963 141.27 86.576 141.233 87.1391 141.533C87.2762 141.606 87.4021 141.723 87.5226 141.821C87.8274 142.067 87.9473 142.512 87.9638 142.886C87.9804 143.257 87.7856 143.696 87.5226 143.952L87.4591 144.014C87.3021 144.167 87.0775 144.299 86.8582 144.34C86.5045 144.405 86.207 144.403 85.8771 144.264C85.5942 144.144 85.3498 143.952 85.1842 143.691L85.157 143.647C85.1457 143.629 85.1351 143.61 85.1245 143.591L85.11 143.563C84.7946 142.956 84.8794 142.269 85.3418 141.765ZM85.577 126.102C85.7817 126.038 85.9864 126.029 86.1911 126.074C86.3302 126.075 86.4601 126.11 86.58 126.18C86.7105 126.216 86.8238 126.282 86.9198 126.378C87.0351 126.446 87.1278 126.538 87.1961 126.654C87.3325 126.803 87.4239 126.977 87.4716 127.178L87.5266 127.587L87.4716 127.997L87.3166 128.365C87.2736 128.421 87.2305 128.476 87.1874 128.532C87.1185 128.648 87.0265 128.741 86.9105 128.81C86.835 128.884 86.7482 128.941 86.6515 128.979C86.309 129.226 85.8519 129.306 85.4458 129.194C85.2047 129.126 84.9947 129.004 84.8172 128.828C84.6409 128.649 84.5184 128.44 84.4515 128.199L84.4237 128.006C84.3872 127.748 84.3819 127.605 84.4548 127.276C84.4873 127.132 84.58 126.928 84.629 126.842C84.837 126.476 85.1775 126.225 85.577 126.102ZM103.356 114.834C103.944 114.83 104.532 114.83 105.12 114.837L105.561 114.843C106.299 114.855 106.931 114.779 107.512 115.291C107.933 115.662 107.748 116.286 107.347 116.567C106.742 116.991 105.982 116.777 105.285 116.731C104.551 116.681 103.816 116.641 103.081 116.608C101.657 116.544 100.233 116.503 98.807 116.497C97.3854 116.491 95.9611 116.504 94.5388 116.528C93.092 116.551 91.5855 116.686 90.1467 116.536C89.9492 116.516 89.9049 116.255 90.0996 116.188C91.4557 115.719 92.9807 115.566 94.4016 115.388C95.867 115.202 97.3324 115.071 98.807 114.986C100.322 114.899 101.839 114.844 103.356 114.834ZM85.575 110.225L85.6234 110.226C85.8817 110.227 86.1242 110.288 86.3501 110.409L86.3985 110.436L86.7091 110.676C86.8993 110.868 87.0304 111.093 87.1033 111.354L87.1583 111.762C87.1662 111.973 87.1225 112.171 87.0265 112.353C86.9642 112.544 86.8582 112.709 86.7091 112.848C86.57 112.997 86.4051 113.103 86.215 113.166C86.046 113.254 85.8652 113.299 85.6717 113.299L85.6234 113.297C85.3465 113.297 85.0881 113.227 84.8483 113.088L84.5376 112.848C84.3475 112.656 84.2157 112.43 84.1428 112.17L84.0878 111.762C84.0805 111.551 84.1242 111.353 84.2203 111.17C84.2826 110.979 84.3879 110.815 84.5376 110.676C84.6767 110.526 84.8417 110.42 85.0318 110.358C85.2007 110.269 85.3816 110.225 85.575 110.225ZM90.1261 74.1487C90.4567 73.6691 91.0562 74.0957 90.9701 74.4806C90.9926 75.563 91.0483 76.613 91.294 77.673C91.4067 78.1586 91.5544 78.6441 91.7823 79.0887L91.8777 79.2761C92.1725 79.8584 92.4017 80.4076 92.0049 81.0469C91.8174 81.3483 91.4795 81.5749 91.1125 81.559C89.4875 81.4887 89.2636 79.2251 89.1649 77.9611C89.0629 76.6601 89.3802 75.2298 90.1261 74.1487Z" fill="black"/>
<path fill-rule="evenodd" clip-rule="evenodd" d="M55.9922 21.7329C56.718 20.9538 57.6463 20.3733 58.6611 20.1878C57.7335 20.6514 56.8267 21.1345 55.9922 21.7329ZM54.5704 28.4512C54.442 27.8574 54.3558 27.2579 54.3286 26.6585C54.4909 26.9052 54.7499 27.07 55.0409 27.1551C54.8529 27.5761 54.6931 28.0099 54.5704 28.4512ZM103.138 37.7611C102.3 34.2724 98.3919 27.562 97.4677 26.2705C96.4648 23.0725 101.936 20.5078 98.9603 18.0071C97.6135 16.8787 95.8328 16.4795 94.1627 16.0793C82.5982 13.3009 70.173 14.7021 59.4472 19.8113C57.8157 19.4678 56.1159 20.139 54.9295 21.3179C49.3558 26.9223 56.9517 37.0342 58.6127 43.3524C61.4624 50.3973 55.5922 51.5824 56.2217 57.5433C56.7109 60.6224 59.8287 61.4365 62.46 61.9016C62.8813 62.0003 63.4451 62.0155 63.5809 62.4614C64.0075 65.0642 65.4689 67.5444 67.4311 69.2284C67.2596 69.7365 67.3901 70.3539 67.9955 70.8004C73.4774 74.8759 80.3895 76.9156 87.2261 76.5486C95.3744 76.112 99.5883 71.4397 100.605 70.2373C106.227 62.6416 105.555 52.6205 104.408 43.5691C103.609 37.2636 104.622 43.9412 103.138 37.7611Z" fill="white"/>
<path fill-rule="evenodd" clip-rule="evenodd" d="M78.0139 8.73215C78.2703 7.93124 78.995 7.44963 79.8251 7.54906C80.5597 7.63585 81.3461 8.36528 81.2566 9.17037C81.2401 9.32578 81.2175 9.47139 81.191 9.60859L81.1944 9.60985L81.1977 9.60998L81.1798 9.66317C81.1248 9.91941 81.0493 10.149 80.9373 10.366C80.7949 10.7819 80.6578 11.1992 80.522 11.6178C80.718 11.6094 80.9181 11.6205 81.1208 11.6584C81.3308 11.1207 81.5421 10.5845 81.7521 10.0454C81.9774 9.47 82.1357 8.7307 82.5809 8.28552C83.1499 7.71707 84.1383 7.59941 84.8326 8.0055C85.5659 8.43391 85.8276 9.19554 85.6679 10.0118C85.5871 10.4282 85.3089 10.7179 84.9651 10.9L84.928 10.9191L84.663 11.5464C84.7445 11.5114 84.8286 11.4792 84.9194 11.4525C85.0618 11.4105 85.2022 11.3839 85.3394 11.3727C85.717 10.6881 86.133 10.023 86.5623 9.37057C87.0565 8.62013 88.0223 8.30089 88.8325 8.77554C89.5573 9.19978 89.9468 10.3142 89.4274 11.0465C89.0326 11.6023 88.659 12.1694 88.2906 12.742C88.3536 12.7532 88.4165 12.7673 88.4768 12.7855C88.5053 12.7477 88.5344 12.7098 88.5649 12.6721C88.967 12.1736 89.434 11.7997 89.9143 11.3853C90.3635 10.9961 90.5708 10.3843 91.1611 10.0888C91.9044 9.71783 92.8 9.89563 93.2425 10.6349C94.1912 12.2184 92.5986 13.3749 91.5797 14.334C92.4655 13.781 93.3883 13.2755 94.3343 12.8387C94.8662 12.5936 95.4061 12.357 95.9546 12.1526C96.7681 11.8502 97.426 11.9469 98.0937 12.5096C98.3918 12.7616 98.5396 13.312 98.4024 13.6787C98.1368 14.3815 97.7168 14.8086 96.9808 15.0116C96.4627 15.1544 95.9328 15.251 95.4147 15.4009C94.5469 15.6501 93.7043 15.9539 92.8868 16.3334C92.9457 16.3697 93.002 16.4089 93.0537 16.4537C93.6638 16.2563 94.2852 16.0855 94.9093 15.9399C95.9447 15.6971 96.998 15.533 98.0566 15.4304L98.4084 15.3976C99.677 15.2758 101.203 15.051 101.982 16.2661C102.237 16.6666 102.265 17.3274 101.982 17.7237C101.438 18.4853 100.898 18.6365 99.9996 18.6505C100.884 18.7443 101.767 18.8605 102.646 18.9964C103.252 19.0887 103.858 19.1935 104.461 19.3097L104.762 19.3687C105.497 19.5158 106.318 19.6012 106.948 20.0268C108.325 20.9565 107.679 22.7668 106.153 22.9601C105.416 23.0525 104.597 22.7403 103.874 22.5947C103.171 22.4532 102.466 22.3286 101.757 22.2194C101.391 22.162 101.024 22.1116 100.656 22.0654C101.405 22.1732 102.148 22.3258 102.871 22.5414L103.073 22.6021C104.471 23.0286 106.359 23.7079 106.796 25.203C107.06 26.1117 106.337 26.9042 105.461 26.9574C104.646 27.0064 103.967 26.5205 103.276 26.1621C102.772 25.9017 102.26 25.7071 101.717 25.5405C101.156 25.3683 100.583 25.2254 100.007 25.1092C100.494 25.3778 100.969 25.673 101.424 26.0032L101.633 26.158C102.844 27.0605 104.691 28.4578 104.264 30.1496C104.129 30.6831 103.535 31.1927 102.964 31.1381C101.478 30.9995 100.657 29.416 99.5366 28.5675C99.2438 28.3463 98.9231 28.1279 98.5873 27.9151C100.286 29.9424 101.639 32.2862 102.667 34.707C104.928 40.0327 105.621 44.9648 105.638 50.6913L105.638 50.8688C105.641 54.0274 105.57 57.243 105.262 60.3877C104.977 63.2933 104.453 66.1604 103.136 68.7917C100.929 73.203 96.6284 76.6392 91.8851 77.9469C86.6073 79.403 80.7081 78.2642 76.3849 74.9042C75.2819 74.0476 76.7446 72.1868 77.8708 72.9778C82.3709 76.1351 88.1899 77.1347 93.3545 74.9983C97.4511 73.3037 100.75 69.6595 102.148 65.4635C103.038 62.7938 103.297 59.9472 103.615 57.1655L103.636 56.98C103.972 54.0705 104.166 51.1417 104.163 48.2125C104.159 42.7731 103.378 38.2955 100.986 33.3615C99.8612 31.0373 98.4011 28.8883 96.6575 27.0022C96.1282 27.11 95.5658 26.9588 95.0312 26.9014C94.7582 26.872 94.4853 26.844 94.2124 26.8188C94.4913 26.9991 94.7649 27.1866 95.0332 27.3785L95.3856 27.6328C96.4892 28.4231 97.8884 29.3232 97.6048 30.8511C97.528 31.2642 97.1166 31.6435 96.7178 31.7374C95.2716 32.0818 94.278 30.6761 93.3015 29.8416C92.4515 29.1163 91.5632 28.4667 90.6576 27.8157C90.4516 27.6687 90.2449 27.5217 90.0362 27.376C90.2323 27.6045 90.4224 27.8366 90.6086 28.0708L90.8835 28.4194C91.7149 29.4603 92.9139 30.8135 92.1733 32.163C91.9633 32.5438 91.5155 32.7972 91.0816 32.7889C89.5897 32.7581 88.9962 31.0639 88.2966 29.9942C87.6944 29.0772 87.0412 28.2133 86.3649 27.3494C86.1787 27.1128 85.9912 26.8762 85.8011 26.6396C82.6677 26.802 79.5448 27.2164 76.477 27.8787C74.3697 28.3337 72.2968 28.9233 70.2392 29.5686L70.0683 29.623C68.9547 29.9816 67.8074 30.4407 67.0051 31.2277C66.8905 31.77 66.978 32.3419 67.0879 32.8835L67.1734 33.298C67.5251 35.0315 67.765 36.7328 67.5854 38.5125C67.3993 40.3481 66.8468 41.9988 66.1724 43.7041C65.8531 44.5078 65.5225 44.3622 65.4092 45.2247C65.3225 45.8816 65.3761 46.5598 65.4357 47.2222L65.4854 47.7838C65.6093 49.2551 65.6722 50.8589 64.7084 52.0725C64.5586 52.2587 64.238 52.1845 64.1314 51.9983C64.0896 51.9241 64.0446 51.8526 63.9956 51.7843C63.5312 51.1106 62.819 50.727 62.0042 50.5787C61.9009 50.5608 61.9413 50.4217 62.0281 50.4104C62.7163 50.3296 63.3689 50.5018 63.9234 50.8576C63.6604 49.948 61.6253 50.3905 60.9568 50.5667L60.9337 50.5734C60.0994 50.7973 59.31 51.161 58.6145 51.6764C57.2149 52.7124 56.4059 54.3282 56.4466 56.0685C56.4872 57.7796 57.3703 59.3602 58.8874 60.179C59.6194 60.5739 60.4521 60.7647 61.2808 60.756C62.1453 60.7474 62.9151 60.3685 63.7816 60.4215C64.2824 60.452 64.666 60.9899 64.3765 61.4589C64.183 61.7723 63.9313 62.0187 63.6405 62.2081C64.35 63.8444 65.2556 65.4058 66.2996 66.8467C66.8773 67.6463 67.5324 68.3836 68.2532 69.0573C68.8156 69.584 70.0352 70.1928 69.9663 71.0705C69.9425 71.3872 69.7788 71.5806 69.4907 71.6979C68.5944 72.0642 67.5039 70.8023 66.9044 70.1935L66.8567 70.1451C66.1095 69.4005 65.4278 68.577 64.8342 67.7033C63.7816 66.1524 63.1284 64.4035 62.8581 62.5665C61.4206 62.9991 59.5172 62.593 58.3444 62.0624C54.6579 60.3963 53.4529 55.4299 55.6936 52.1229C56.1274 51.4829 56.6705 50.9357 57.2891 50.4932C57.1533 50.419 57.026 50.3236 56.9126 50.2037C56.2855 49.5373 55.8421 48.6675 55.4021 47.8659L55.3493 47.77C54.9587 47.0644 54.5901 46.3477 54.2447 45.6199L54.1163 45.3465C53.3451 43.6873 52.6691 42.9621 52.1191 41.2176C51.5901 39.5346 51.173 37.8195 50.9029 36.0749L50.8311 35.6131C50.6749 34.6008 50.5271 33.5184 50.6411 32.4906C49.856 32.7469 49.0667 32.9051 48.2899 32.5201C47.7777 32.2666 47.4949 31.5274 47.6699 30.9967C47.7973 30.6061 48.01 30.2995 48.2801 30.0586C48.1192 29.9775 47.968 29.8739 47.835 29.759L47.7189 29.6584C47.2486 29.2493 47.215 28.4723 47.5006 27.9599C47.5285 27.9108 47.5565 27.8604 47.5831 27.8115C47.8546 27.3256 48.4159 27.0078 48.9701 27.0162C49.0597 27.0176 49.1492 27.0176 49.2402 27.0162C48.9813 26.9588 48.728 26.8706 48.4872 26.7222C47.4012 26.0543 47.5383 24.244 48.8525 23.9248C49.4039 23.7917 50.0127 23.8463 50.6201 23.9891C50.5978 23.9766 50.5754 23.964 50.553 23.9499C50.094 23.6685 49.7091 23.1183 49.7525 22.5541C49.8 21.9296 50.0015 21.4843 50.553 21.1567C51.0317 20.8739 51.709 20.8473 52.1849 21.1567C52.5978 21.4269 53.0022 21.7252 53.3913 22.0458C53.0008 21.5655 52.6621 21.0433 52.525 20.4888C52.3557 19.7986 52.6383 19.0467 53.2598 18.6827C53.7552 18.3929 54.2787 18.4251 54.7461 18.6491C54.7209 18.2865 54.8091 17.9168 55.0498 17.5892C55.5424 16.9173 56.4381 16.5308 57.2177 17.0208C57.3199 17.0852 57.4571 17.1958 57.59 17.3316C57.3311 16.5069 57.5648 15.6417 58.4479 15.2692C58.9868 15.041 59.7159 15.1558 60.1834 15.5493C59.8867 13.9433 62.2559 12.763 63.1768 14.4222C63.3861 14.798 63.5928 15.1938 63.7776 15.5987L63.8458 15.7509L63.8531 15.7481L63.8061 15.6368L63.7577 15.5255C63.502 14.9304 63.1754 14.3116 63.086 13.6661C62.9548 12.7112 63.3801 11.8054 64.4182 11.6653C64.9548 11.5925 65.551 11.8362 65.9107 12.2619C65.716 10.7805 67.3701 9.70378 68.5612 10.8099C69.125 11.3335 69.4264 12.0994 69.7841 12.7714C69.9875 13.1509 70.1942 13.5289 70.3976 13.9097C70.4492 13.8481 70.5049 13.7865 70.5639 13.7263C70.2631 12.8246 70.0292 11.9006 69.8318 10.9709C69.6444 10.0944 70.0822 9.18435 70.9865 8.93665C71.808 8.7097 72.8368 9.21668 73.0203 10.0918C73.1488 10.7077 73.3018 11.3169 73.4694 11.923C73.584 11.895 73.6973 11.8754 73.8092 11.8613C73.8192 11.7475 73.8298 11.633 73.841 11.5191L73.8854 11.1141C73.9835 10.1887 74.0822 9.13234 74.5651 8.34567C75.3899 7.00161 77.5031 7.5588 77.5257 9.14798C77.5382 9.96983 77.2037 10.7847 77.0871 11.5982C77.0368 11.9524 77.0076 12.3108 76.991 12.6692C77.2163 11.4792 77.5257 10.3044 77.8834 9.14798C77.9258 9.00933 77.9702 8.87074 78.0139 8.73215ZM59.7808 54.625C61.6352 54.3381 63.3298 55.3729 64.4288 56.8217C64.6289 57.0867 64.497 57.4603 64.3168 57.6829C64.1863 57.8465 64.0115 57.8664 63.814 57.8916C63.5875 57.9207 63.3006 57.7372 63.2013 57.5398C62.4944 56.1288 61.2338 55.2371 59.7808 54.6879C59.7542 54.678 59.7458 54.6309 59.7808 54.625ZM62.3507 29.3384L62.407 29.278C62.7819 28.8887 62.189 28.2939 61.8127 28.6841C61.4173 29.0949 61.1536 29.5939 60.9005 30.0996C60.6597 30.5818 61.3835 31.0078 61.6259 30.5237L61.7359 30.3037C61.9095 29.9617 62.0936 29.6237 62.3507 29.3384ZM57.1434 28.5393C57.6752 28.4496 57.4497 27.64 56.9201 27.7293C56.2341 27.8449 55.5506 27.9764 54.8645 28.0922C54.3328 28.1818 54.5582 28.9915 55.0878 28.9023C55.7739 28.7865 56.4573 28.6551 57.1434 28.5393ZM88.8246 23.0115C88.3112 22.84 88.0906 23.651 88.6013 23.8215C89.3075 24.0572 90.0077 24.2987 90.6781 24.6259C91.1617 24.8623 91.5877 24.138 91.1015 23.9005C90.3668 23.5414 89.5997 23.2702 88.8246 23.0115ZM57.022 21.9227C56.5203 21.7219 56.3024 22.5341 56.7989 22.7329L58.6127 23.4585C59.1144 23.6593 59.3323 22.8472 58.8359 22.6485L57.022 21.9227ZM95.1584 19.9503L95.0921 19.9085C94.637 19.6137 94.2157 20.3406 94.6681 20.6339C94.9338 20.806 95.2564 20.9227 95.4995 21.1278L95.5505 21.1731C95.9434 21.5441 96.5383 20.9513 96.1441 20.5791C95.8559 20.3069 95.4916 20.1554 95.1584 19.9503Z" fill="black"/>
<path fill-rule="evenodd" clip-rule="evenodd" d="M93.3673 66.9916C92.473 66.9989 91.4674 66.663 90.795 66.4L90.6194 66.3304C90.0371 66.0973 89.4396 65.8296 88.9938 65.3805C88.8513 65.2347 88.6996 65.0691 88.6221 64.8956C88.5771 64.7935 88.5585 64.6882 88.6022 64.5835C88.7632 64.5676 88.9163 64.5471 89.0607 64.5206C89.1296 64.508 89.1958 64.4948 89.2462 64.4948C89.433 64.4934 89.6171 64.5173 89.8013 64.5405C89.8285 64.5438 89.855 64.5471 89.8815 64.5504C90.0252 64.5683 90.1683 64.5875 90.3107 64.6067C90.7254 64.6624 91.1381 64.718 91.5588 64.7379C91.8629 64.7525 92.1809 64.7352 92.5021 64.718C93.3362 64.6723 94.1981 64.6107 94.84 65.1943C95.0082 65.3474 95.0785 65.5401 95.0785 65.7362C95.0785 65.9747 94.9778 66.2178 94.8247 66.4086C94.4783 66.8392 93.945 66.987 93.3673 66.9916ZM98.245 59.47C97.8562 60.0543 97.2076 60.4299 96.3193 60.3888C94.5531 60.308 92.4458 59.6416 90.9672 58.6784C90.5817 58.4273 90.3319 58.0258 90.2876 57.5966L90.208 56.8321L89.7775 57.4687C89.7324 57.535 89.6874 57.6012 89.6416 57.6675C89.5171 57.8496 89.3926 58.0318 89.2753 58.2186C88.8242 58.9354 88.4101 59.6601 88.0345 60.4193C87.7689 60.9572 87.5741 61.5587 87.3793 62.1662C87.0501 63.191 86.7321 64.1987 86.0292 64.9187C85.9226 65.0281 85.7596 65.0671 85.6099 65.0479C85.4781 65.0307 85.3489 64.9658 85.2853 64.8373C84.4453 63.1281 85.5755 61.0685 86.4923 59.6363L86.589 59.4866C87.439 58.1928 88.8275 56.4803 90.4174 56.2478L90.5989 56.538L90.8639 56.3611C91.2965 56.0722 91.8682 56.0862 92.3683 56.3121L92.8685 56.538C93.7993 56.956 94.7181 57.3415 95.7257 57.5528C95.7992 57.5681 95.8721 57.5827 95.9456 57.5959C96.0145 57.6085 96.0841 57.6204 96.1543 57.631C96.1391 57.5628 96.1232 57.4939 96.1066 57.4257C96.09 57.3534 96.0728 57.2812 96.0543 57.209C96.035 57.1348 96.0145 57.0606 95.9946 56.9871C95.9138 56.693 95.8224 56.4015 95.7144 56.1166C95.3077 55.0441 94.6585 54.0411 94.0265 53.0846L93.9516 52.9719C93.8615 52.8348 93.7622 52.6917 93.6595 52.544C93.1666 51.8345 92.6201 51.064 92.5817 50.2903C93.2355 50.3314 93.7827 50.7381 94.265 51.0919C94.9261 51.5775 95.5389 52.1326 96.0947 52.7354C97.1732 53.906 98.1404 55.4012 98.565 56.9474C98.8081 57.8331 98.7015 58.7857 98.245 59.47ZM80.9932 50.6493V50.6182C80.9952 49.7252 81.5152 47.6866 82.7998 47.6866C83.6027 47.6866 84.0896 49.074 84.1744 50.5043L84.177 50.5626C84.2141 51.4516 83.9703 53.3952 82.7998 53.3952C81.6166 53.3952 81.0058 51.5543 80.9932 50.6493ZM99.9091 50.3691L99.9098 50.338C99.9078 49.445 99.3878 47.4065 98.1033 47.4065C97.3202 47.4065 96.8373 48.7256 96.7359 50.1167L96.7286 50.224C96.6783 51.0833 96.9062 53.115 98.1033 53.115C99.2857 53.115 99.8972 51.274 99.9091 50.3691ZM85.3204 44.6072C85.1502 44.6271 84.9806 44.6533 84.8116 44.6802C84.3175 44.7589 83.8259 44.8535 83.3383 44.9636C82.4109 45.173 81.4921 45.4372 80.5898 45.7359C79.7458 46.0156 78.9151 46.3315 78.0844 46.6475C78.04 46.6643 77.9956 46.6812 77.9519 46.698C77.6584 46.8096 77.3663 46.9346 77.0728 47.06C76.6269 47.2509 76.1785 47.443 75.7207 47.5878C76.9264 45.9208 78.7833 44.6857 80.5699 43.8018C81.5894 43.2975 82.6712 42.8909 83.759 42.5577L84.3652 42.3755C85.2568 42.1122 86.2326 41.869 87.0706 42.394C87.4019 42.6016 87.6139 42.9245 87.6801 43.2734C87.7457 43.6157 87.6708 43.9826 87.435 44.2888C87.229 44.5556 86.9726 44.7075 86.6997 44.7596C86.3982 44.817 86.0789 44.754 85.7881 44.5986C85.5556 44.5813 85.4867 44.5876 85.4178 44.5953L85.3204 44.6072ZM98.7419 44.7768C98.145 44.6469 97.5541 44.5948 96.9413 44.6135C96.6644 44.6218 96.3961 44.6646 96.1285 44.7077C95.7138 44.7746 95.3004 44.8437 94.8526 44.7625C94.6194 44.7201 94.4206 44.5836 94.2669 44.4054C94.0874 44.197 93.9688 43.9307 93.9311 43.6775C93.8913 43.4159 93.9304 43.1871 94.0278 42.9851C94.1417 42.7465 94.3345 42.5454 94.567 42.3692C95.2712 41.836 96.4789 41.9642 97.3103 42.072C98.1311 42.1788 98.9479 42.4335 99.6739 42.8381C100.39 43.2375 101.013 43.7754 101.498 44.433C101.908 44.9872 102.101 45.6251 102.3 46.2746C101.363 45.4883 99.929 45.0345 98.7419 44.7768Z" fill="black"/>
<path fill-rule="evenodd" clip-rule="evenodd" d="M96.9458 63.9441C97.3294 64.3376 97.6977 64.7589 98.0448 65.1942C98.1415 65.8858 98.1634 66.586 98.0753 67.3087C97.9468 68.3561 97.6613 69.3796 97.275 70.362C97.0465 70.3302 96.8213 70.2653 96.602 70.1646C95.9051 69.844 95.5155 69.1987 95.0439 68.629C94.1052 67.4962 92.392 66.8271 91.1937 68.0017C90.673 68.5124 90.3404 69.2199 89.8754 69.781C89.3646 70.3985 88.7909 70.9854 88.192 71.5173C88.1179 71.5843 88.0403 71.6571 87.9608 71.7287C87.6276 71.3478 87.3004 70.9642 86.9797 70.5747C86.0265 69.4154 85.2037 68.1315 84.7711 66.684C84.634 66.2249 84.5485 65.746 84.5154 65.2631C84.9394 64.7364 85.4236 64.2574 85.9735 63.8613C87.6316 62.6642 89.5421 62.4695 91.5295 62.3661C93.5858 62.2595 95.4374 62.3999 96.9458 63.9441ZM101.962 69.4982C101.882 68.6973 101.759 67.8645 101.577 67.0325C100.913 63.9467 99.4724 60.8709 96.5848 59.4612C95.2188 58.7928 93.6666 58.5576 92.1946 58.8796C89.611 57.9124 86.7419 58.8995 84.7082 60.6689C82.3094 62.757 81.2024 66.0328 80.8301 69.102C80.5711 71.2371 80.4737 74.0897 81.0792 75.6392C81.6847 77.1887 85.5336 81.331 91.0274 81.3602C98.8524 81.4012 100.754 76.1221 100.985 75.6604C101.949 73.7392 102.173 71.618 101.962 69.4982Z" fill="black"/>
<path fill-rule="evenodd" clip-rule="evenodd" d="M104.878 54.3104C103.593 55.9162 98.563 57.6989 95.8866 55.7639C93.2096 53.8288 92.1517 52.4807 91.7939 50.0627C91.7555 49.805 91.2898 49.6335 91.0924 49.817C89.9894 50.8418 89.2759 52.1468 88.5684 53.4559C87.7702 54.9318 86.9845 56.4171 85.535 57.4161C82.9667 58.7933 78.3208 58.9894 76.9489 58.3819C74.3196 57.218 72.2394 54.7298 71.7664 51.3049C71.7664 51.3049 71.2855 49.7858 70.8642 49.4659C70.4647 49.1631 68.26 48.8935 68.0182 48.8484C63.6659 48.0405 58.1611 47.5255 54.2844 50.3681C53.7598 50.6848 51.9638 51.8772 51.9372 51.5838C51.9185 50.4357 53.2189 47.8377 56.1764 46.6014C59.8337 45.0725 65.2704 44.9831 68.4197 45.3204C68.578 45.3375 69.1179 45.2047 69.1563 45.1882C73.9281 43.1215 79.4185 43.6704 84.5241 44.539C85.2555 44.681 91.8052 46.3034 94.41 45.3204C98.7173 43.5614 103.31 42.287 107.961 42.7883C108 42.7925 108.587 46.3581 108.13 46.6014C107.766 46.795 107.146 47.2909 106.927 47.5624C106.73 47.8051 106.606 48.1068 106.617 48.5245C106.705 50.9425 106.016 52.8881 104.878 54.3104ZM87.1673 52.1535C87.7139 51.3632 87.8861 49.5878 87.6576 48.2922C87.5416 47.6363 87.317 47.1143 87.0348 46.8544C86.8474 46.6817 86.6334 46.6004 86.3995 46.6124C86.2717 46.6191 86.1332 46.6555 85.9868 46.7347C84.0001 45.6597 81.5934 45.2726 79.3125 45.384C77.4967 45.3836 76.201 45.8124 75.3225 46.4799C74.2652 47.283 73.7889 48.4375 73.7611 49.6898C73.7287 51.1757 74.3388 52.8007 75.3398 54.0872C76.2977 55.318 77.608 56.2303 79.0297 56.4409C80.6434 56.7615 82.2876 56.4515 83.7179 55.693C85.1839 54.9153 86.4227 53.6659 87.1673 52.1535ZM103.092 52.9915C104.012 51.9031 104.624 50.4874 104.717 49.0849C104.802 47.8087 104.46 46.5443 103.516 45.4995C102.659 44.7641 101.146 44.7519 99.554 45.1615C97.4957 45.691 95.3659 46.8743 94.6558 47.6386C94.4888 47.7263 94.3338 47.879 94.1987 48.2067L94.1974 48.3235C93.9827 49.3155 94.1099 50.3224 94.4822 51.2512C94.8863 52.2601 95.5792 53.1763 96.4239 53.8752C97.5468 54.8 98.7187 55.0835 99.8157 54.9338C101.058 54.7649 102.214 54.0289 103.092 52.9915Z" fill="white"/>
<path fill-rule="evenodd" clip-rule="evenodd" d="M94.2627 44.9279C98.625 43.1464 103.287 41.8623 108.007 42.3711C108.398 42.2226 108.882 42.3477 109.055 42.8999C110.736 48.0236 106.987 46.5987 107.038 48.5141C107.43 59.2532 93.002 61.0876 91.379 50.1245L91.3492 50.1424C89.0153 52.3212 88.5238 55.8674 85.7739 57.762C80.2271 61.8203 72.3637 58.6054 71.3541 51.3806L71.3323 51.2825C70.9931 49.8085 70.5876 49.4429 68.9156 49.4501L68.6513 49.3978C64.3075 48.5413 58.5227 47.7719 54.5215 50.7168C53.6512 51.2229 53.6104 52.524 52.875 53.0897C52.0694 53.246 51.5732 52.2769 51.5186 51.6065C51.3909 44.9188 63.3529 44.4378 68.7102 45.0117C68.8123 44.9057 69.0309 44.9189 69.1044 45.0509C73.9496 42.9524 79.4083 43.2428 84.596 44.1253C87.809 44.7477 90.9835 46.1653 94.2627 44.9279ZM107.573 43.6056C104.956 43.4747 102.535 43.6179 99.9658 44.2473C98.6117 44.574 97.573 44.9872 96.2765 45.4841C88.1932 49.0666 87.2611 42.6985 69.1408 45.1949C69.3753 46.1993 69.4184 47.1938 69.431 48.1375C73.1308 47.9884 72.2597 51.5223 73.6456 54.0046L73.6886 54.0794C75.7085 57.7018 80.4755 59.391 84.3211 56.9883C87.5288 55.1182 87.8421 50.3736 91.0358 48.4909C93.8049 48.3819 92.6986 52.1205 94.2057 53.6568C96.3262 56.4881 100.835 56.8836 103.494 54.2205C104.742 52.9393 105.405 51.3123 105.442 49.5648C105.511 48.4478 105.32 47.313 106.164 46.5275C106.755 45.9263 107.806 46.1269 107.927 45.2182C108.003 44.6808 107.78 44.0979 107.573 43.6056ZM79.1281 45.0694C81.7282 44.9412 84.4788 45.3929 86.7113 46.6685C88.3641 45.353 88.7689 50.5816 87.6718 52.0934C86.0919 55.3282 82.4126 57.4547 78.8704 56.7485C73.3441 55.9476 69.4933 45.0597 79.1281 45.0694ZM86.553 47.0193L86.4112 46.9986C84.0164 46.6331 77.4951 44.9395 74.9798 47.6125C72.5393 52.0463 78.7313 59.4944 85.1757 53.562C86.9696 51.7356 87.6646 49.5204 86.553 47.0193ZM94.1428 47.5859C95.3829 46.1167 101.704 43.1409 103.907 45.0505C107.929 49.5588 101.552 58.6782 96.2103 54.2351C94.4309 52.7505 93.2604 50.3842 93.7724 48.0928L93.7731 47.9968C93.7744 47.962 93.7811 47.9699 93.8182 47.9266C93.8844 47.7533 94.003 47.6427 94.1428 47.5859ZM103.851 50.3186C105.207 42.9599 99.5392 45.7573 94.884 47.7214C95.1338 47.9497 95.1331 48.2616 95.0609 48.5181C94.57 53.9774 101.204 57.0718 103.851 50.3186ZM68.6162 45.3693C66.6745 46.027 53.8319 44.8506 52.6455 50.8731C53.8978 48.8433 56.4915 48.0378 58.8231 47.6008C61.9949 47.0061 65.1489 47.3504 68.2757 47.9761L68.3406 47.3287C68.4101 46.642 68.483 45.9995 68.6162 45.3693Z" fill="black"/>
</g>
</svg>
