<svg width="15" height="15" viewBox="0 0 15 15" fill="none" xmlns="http://www.w3.org/2000/svg">
<path d="M11.5 1.15C10.325 0.425 8.975 0 7.5 0V1.15H11.5Z" fill="#ED4C5C"/>
<path d="M7.5 2.2999H12.9C12.475 1.8749 12 1.4749 11.5 1.1499H7.5V2.2999Z" fill="white"/>
<path d="M7.5 3.45005H13.825C13.55 3.02505 13.25 2.65005 12.925 2.30005H7.5V3.45005Z" fill="#ED4C5C"/>
<path d="M7.5 4.59995H14.425C14.25 4.19995 14.05 3.79995 13.825 3.44995H7.5V4.59995Z" fill="white"/>
<path d="M7.5 5.7501H14.8C14.7 5.3501 14.575 4.9751 14.425 4.6001H7.5V5.7501Z" fill="#ED4C5C"/>
<path d="M7.5 6.9249H14.975C14.95 6.5249 14.875 6.1499 14.8 5.7749H7.5V6.9249" fill="white"/>
<path d="M14.975 6.92505H7.5V7.50005H0C0 7.70005 -2.42144e-08 7.87505 0.025 8.07505H14.975C15 7.87505 15 7.70005 15 7.50005C15 7.30005 15 7.10005 14.975 6.92505" fill="#ED4C5C"/>
<path d="M0.199902 9.22495H14.7999C14.8999 8.84995 14.9499 8.47495 14.9749 8.07495H0.0249023C0.0499023 8.44995 0.0999024 8.84995 0.199902 9.22495Z" fill="white"/>
<path d="M0.574951 10.3751H14.425C14.575 10.0001 14.7 9.6251 14.8 9.2251H0.199951C0.299951 9.6251 0.424951 10.0001 0.574951 10.3751Z" fill="#ED4C5C"/>
<path d="M1.17495 11.525H13.825C14.05 11.15 14.25 10.775 14.425 10.375H0.574951C0.749951 10.775 0.949951 11.15 1.17495 11.525" fill="white"/>
<path d="M2.07505 12.6749H12.925C13.25 12.3249 13.575 11.9249 13.825 11.5249H1.17505C1.42505 11.9499 1.75005 12.3249 2.07505 12.6749Z" fill="#ED4C5C"/>
<path d="M3.47495 13.825H11.525C12.05 13.5 12.5 13.1 12.925 12.675H2.07495C2.49995 13.125 2.97495 13.5 3.47495 13.825Z" fill="white"/>
<path d="M7.5001 15C8.9751 15 10.3501 14.575 11.5251 13.825H3.4751C4.6501 14.575 6.0251 15 7.5001 15Z" fill="#ED4C5C"/>
<path d="M3.5 1.15C2.975 1.475 2.5 1.875 2.075 2.3C1.725 2.65 1.425 3.05 1.175 3.45C0.95 3.825 0.725 4.2 0.575 4.6C0.425 4.975 0.3 5.35 0.2 5.75C0.1 6.125 0.05 6.5 0.025 6.9C-2.42144e-08 7.1 0 7.3 0 7.5H7.5V0C6.025 0 4.675 0.425 3.5 1.15Z" fill="#428BC1"/>
<path d="M5.75012 0.25L5.87512 0.625H6.25012L5.95012 0.875L6.05012 1.25L5.75012 1.025L5.45012 1.25L5.55012 0.875L5.25012 0.625H5.62512L5.75012 0.25Z" fill="white"/>
<path d="M6.75012 1.75L6.87512 2.125H7.25012L6.95012 2.375L7.05012 2.75L6.75012 2.525L6.45012 2.75L6.55012 2.375L6.25012 2.125H6.62512L6.75012 1.75Z" fill="white"/>
<path d="M4.75012 1.75L4.87512 2.125H5.25012L4.95012 2.375L5.05012 2.75L4.75012 2.525L4.45012 2.75L4.55012 2.375L4.25012 2.125H4.62512L4.75012 1.75Z" fill="white"/>
<path d="M5.75012 3.25L5.87512 3.625H6.25012L5.95012 3.875L6.05012 4.25L5.75012 4.025L5.45012 4.25L5.55012 3.875L5.25012 3.625H5.62512L5.75012 3.25Z" fill="white"/>
<path d="M3.75012 3.25L3.87512 3.625H4.25012L3.95012 3.875L4.05012 4.25L3.75012 4.025L3.45012 4.25L3.55012 3.875L3.25012 3.625H3.62512L3.75012 3.25Z" fill="white"/>
<path d="M1.75012 3.25L1.87512 3.625H2.25012L1.95012 3.875L2.05012 4.25L1.75012 4.025L1.45012 4.25L1.55012 3.875L1.25012 3.625H1.62512L1.75012 3.25Z" fill="white"/>
<path d="M6.75012 4.75L6.87512 5.125H7.25012L6.95012 5.375L7.05012 5.75L6.75012 5.525L6.45012 5.75L6.55012 5.375L6.25012 5.125H6.62512L6.75012 4.75Z" fill="white"/>
<path d="M4.75012 4.75L4.87512 5.125H5.25012L4.95012 5.375L5.05012 5.75L4.75012 5.525L4.45012 5.75L4.55012 5.375L4.25012 5.125H4.62512L4.75012 4.75Z" fill="white"/>
<path d="M2.75012 4.75L2.87512 5.125H3.25012L2.95012 5.375L3.05012 5.75L2.75012 5.525L2.45012 5.75L2.55012 5.375L2.25012 5.125H2.62512L2.75012 4.75Z" fill="white"/>
<path d="M5.75012 6.25L5.87512 6.625H6.25012L5.95012 6.875L6.05012 7.25L5.75012 7.025L5.45012 7.25L5.55012 6.875L5.25012 6.625H5.62512L5.75012 6.25Z" fill="white"/>
<path d="M3.75012 6.25L3.87512 6.625H4.25012L3.95012 6.875L4.05012 7.25L3.75012 7.025L3.45012 7.25L3.55012 6.875L3.25012 6.625H3.62512L3.75012 6.25Z" fill="white"/>
<path d="M1.75012 6.25L1.87512 6.625H2.25012L1.95012 6.875L2.05012 7.25L1.75012 7.025L1.45012 7.25L1.55012 6.875L1.25012 6.625H1.62512L1.75012 6.25Z" fill="white"/>
<path d="M2.45015 2.75L2.75015 2.525L3.05015 2.75L2.92515 2.375L3.22515 2.125H2.85015L2.75015 1.75L2.62515 2.125H2.27515L2.57515 2.35L2.45015 2.75" fill="white"/>
<path d="M0.450098 5.75L0.750098 5.525L1.0501 5.75L0.925098 5.375L1.2251 5.125H0.875098L0.750098 4.75L0.625098 5.125H0.375098C0.375098 5.15 0.350098 5.175 0.350098 5.2L0.550098 5.35L0.450098 5.75" fill="white"/>
</svg>
