<svg width="52" height="47" viewBox="0 0 52 47" fill="none" xmlns="http://www.w3.org/2000/svg">
<path d="M2 2H16.1223C18.6193 2 21.014 2.99192 22.7796 4.75755C24.5452 6.52318 25.5372 8.91789 25.5372 11.4149V44.3669C25.5372 42.4942 24.7932 40.6981 23.469 39.3739C22.1448 38.0497 20.3488 37.3058 18.476 37.3058H2V2Z" stroke="#7FBE3F" stroke-width="4" stroke-linecap="round" stroke-linejoin="round"/>
<path d="M49.0743 2H34.952C32.455 2 30.0603 2.99192 28.2947 4.75755C26.529 6.52318 25.5371 8.91789 25.5371 11.4149V44.3669C25.5371 42.4942 26.281 40.6981 27.6053 39.3739C28.9295 38.0497 30.7255 37.3058 32.5983 37.3058H49.0743V2Z" stroke="#7FBE3F" stroke-width="4" stroke-linecap="round" stroke-linejoin="round"/>
</svg>
