<svg width="52" height="52" viewBox="0 0 52 52" fill="none" xmlns="http://www.w3.org/2000/svg">
<path d="M49.0743 24.2296C49.0833 27.6814 48.2768 31.0864 46.7205 34.1675C44.8753 37.8595 42.0386 40.9649 38.5282 43.1359C35.0178 45.3068 30.9722 46.4575 26.8447 46.4591C23.393 46.4681 19.9879 45.6616 16.9068 44.1054L2 49.0743L6.96895 34.1675C5.4127 31.0864 4.60624 27.6814 4.61524 24.2296C4.61683 20.1021 5.76754 16.0566 7.93847 12.5461C10.1094 9.03571 13.2148 6.19901 16.9068 4.35379C19.9879 2.79754 23.393 1.99107 26.8447 2.00007H28.1524C33.6034 2.30081 38.752 4.60161 42.6124 8.46196C46.4727 12.3223 48.7735 17.4709 49.0743 22.922V24.2296Z" stroke="#7FBE3F" stroke-width="4" stroke-linecap="round" stroke-linejoin="round"/>
</svg>
