<svg width="53" height="53" viewBox="0 0 53 53" fill="none" xmlns="http://www.w3.org/2000/svg">
<path d="M24.004 7.92212H7.62729C6.38633 7.92212 5.1962 8.41509 4.3187 9.29258C3.44121 10.1701 2.94824 11.3602 2.94824 12.6012V45.3545C2.94824 46.5955 3.44121 47.7856 4.3187 48.6631C5.1962 49.5406 6.38633 50.0336 7.62729 50.0336H40.3806C41.6216 50.0336 42.8117 49.5406 43.6892 48.6631C44.5667 47.7856 45.0597 46.5955 45.0597 45.3545V28.9778" stroke="#7FBE3F" stroke-width="4" stroke-linecap="round" stroke-linejoin="round"/>
<path d="M41.5504 4.41356C42.4811 3.48283 43.7434 2.95996 45.0597 2.95996C46.3759 2.95996 47.6382 3.48283 48.5689 4.41356C49.4997 5.34428 50.0225 6.6066 50.0225 7.92284C50.0225 9.23908 49.4997 10.5014 48.5689 11.4321L26.3435 33.6576L16.9854 35.9971L19.3249 26.639L41.5504 4.41356Z" stroke="#7FBE3F" stroke-width="4" stroke-linecap="round" stroke-linejoin="round"/>
</svg>
