<svg width="53" height="47" viewBox="0 0 53 47" fill="none" xmlns="http://www.w3.org/2000/svg">
<path d="M2.94824 1.99902H17.0705C19.5675 1.99902 21.9622 2.99094 23.7279 4.75657C25.4935 6.5222 26.4854 8.91691 26.4854 11.4139V44.3659C26.4854 42.4932 25.7415 40.6972 24.4172 39.3729C23.093 38.0487 21.297 37.3048 19.4243 37.3048H2.94824V1.99902Z" stroke="#7FBE3F" stroke-width="4" stroke-linecap="round" stroke-linejoin="round"/>
<path d="M50.0225 1.99902H35.9002C33.4032 1.99902 31.0085 2.99094 29.2429 4.75657C27.4773 6.5222 26.4854 8.91691 26.4854 11.4139V44.3659C26.4854 42.4932 27.2293 40.6972 28.5535 39.3729C29.8777 38.0487 31.6738 37.3048 33.5465 37.3048H50.0225V1.99902Z" stroke="#7FBE3F" stroke-width="4" stroke-linecap="round" stroke-linejoin="round"/>
</svg>
