<svg width="519" height="175" viewBox="0 0 519 175" fill="none" xmlns="http://www.w3.org/2000/svg">
<path d="M0 97C0 54.4741 34.4741 20 77 20H441C483.526 20 518 54.4741 518 97V97C518 139.526 483.526 174 441 174H77C34.4741 174 0 139.526 0 97V97Z" fill="url(#paint0_linear_1_1579)"/>
<mask id="mask0_1_1579" style="mask-type:alpha" maskUnits="userSpaceOnUse" x="380" y="10" width="139" height="165">
<path d="M380 174.331C392 174.331 399.286 174.331 441.581 174.331C483.876 174.331 518.162 140.044 518.162 97.7498C518.162 77.1579 480.858 82.5931 480.858 63.4479C480.858 9.20293 464.081 10.0007 442.379 10.0007C420.676 10.0007 396.892 9.79091 396.892 58.8507C396.892 89.5629 380 153.739 380 174.331Z" fill="white"/>
</mask>
<g mask="url(#mask0_1_1579)">
<path fill-rule="evenodd" clip-rule="evenodd" d="M394.217 111.481C396.316 101.532 403.762 93.8114 413.775 89.965C415.7 88.8755 417.565 84.203 420.153 83.3468C420.567 83.2101 419.913 84.3018 420.153 84.3669C421.008 84.5996 421.967 84.6239 422.911 83.7835C424.599 82.283 425.129 77.8976 426.155 75.916C431.568 65.4629 445.084 69.5527 446.894 81.1083C448.157 81.9315 449.941 82.6567 451.315 83.3196C452.73 84.0025 453.975 85.6576 455.434 86.2489C456.735 86.7765 458.879 86.4028 460.19 86.8631C466.221 88.9793 471.328 91.6495 475.333 97.06C476.177 98.2011 477.128 99.6035 477.896 100.757C481.854 105.315 484.604 110.425 487.136 115.907C494.221 131.998 496.148 149.814 497.877 167.151C497.838 170.184 499.85 178.596 496.874 180.05C497.052 180.234 496.987 180.605 496.657 180.601C489.112 180.526 481.583 181.201 474.154 182.514C470.57 183.149 467.005 184.018 463.354 184.16C455.776 184.108 448.224 182.837 440.655 184.04C431.556 184.04 420.498 183.774 410.375 183.385C400.915 183.021 391.404 183.843 382.06 182.234C381.321 182.116 380.96 181.214 381.115 180.567C382.211 176.572 382.749 172.459 383.365 168.369C383.242 165.746 383.461 163.007 384.431 160.564C386.966 144.07 390.216 127.683 394.217 111.481Z" fill="white"/>
<path fill-rule="evenodd" clip-rule="evenodd" d="M397.27 133.161C397.469 134.131 397.749 135.101 398.121 136.02C398.479 136.906 399.019 137.7 399.391 138.576C399.442 138.694 399.523 138.784 399.621 138.852L399.59 139.09L399.563 139.328C399.377 140.936 399.168 142.54 398.988 144.148L398.9 144.952C398.545 148.31 397.983 151.65 397.548 154.998C397.121 158.277 396.687 161.555 396.223 164.83C395.743 168.205 395.255 171.576 394.685 174.938C394.444 176.358 394.193 177.776 393.932 179.194L393.729 180.279C391.648 180.78 391.079 183.682 393.198 184.753C394.16 185.237 395.395 185.12 396.189 184.359C397.012 183.567 397.046 182.137 397.237 181.063L397.421 180.064C398.799 172.56 399.996 164.968 400.555 157.357C400.699 155.392 400.82 153.425 400.898 151.457C400.973 149.605 400.937 147.753 400.966 145.902L400.975 145.397C401.019 143.422 400.983 141.451 400.931 139.476C400.925 139.236 400.915 138.995 400.903 138.753C400.972 138.672 401.022 138.574 401.043 138.481L401.07 138.357C401.138 138.038 401.062 137.664 400.816 137.436C400.71 136.09 400.571 134.747 400.533 133.403C400.53 133.293 400.371 133.296 400.362 133.403C400.273 134.547 400.095 135.694 399.916 136.839C398.769 135.916 397.92 134.395 397.419 133.12C397.383 133.028 397.248 133.062 397.27 133.161ZM424.43 79.6891C424.239 80.5603 423.862 81.3428 423.357 82.0708C423.117 82.4187 422.843 82.7423 422.515 83.0129C422.233 83.2441 421.913 83.3959 421.614 83.597C421.178 83.529 420.723 83.6937 420.417 84.0144L420.465 83.5455C420.481 83.3944 420.23 83.3644 420.2 83.5104C418.877 90.1866 417.671 96.8664 416.626 103.59L416.169 106.559L415.738 109.347C415.023 113.992 414.33 118.635 413.809 123.314C413.115 129.559 412.531 135.82 412.105 142.089C411.677 148.403 411.414 154.722 411.226 161.047C411.18 162.642 411.13 164.235 411.081 165.83L410.758 163.923C410.436 162.016 410.12 160.108 409.848 158.192C408.876 151.337 408.099 144.433 407.719 137.519C407.371 131.192 407.487 124.738 409.097 118.574C409.502 117.024 409.999 115.497 410.597 114.009C411.178 112.563 411.97 111.222 412.595 109.798C413.321 108.139 413.539 106.575 413.165 104.79C412.838 103.234 412.265 101.772 412.163 100.17C411.97 97.1986 412.936 94.3208 414.302 91.7207C414.662 91.0349 415.042 90.3584 415.438 89.6884C416.638 87.6625 417.99 85.7103 419.393 83.839C419.469 83.7395 419.308 83.6285 419.227 83.7109C417.948 84.9758 416.549 86.2193 415.398 87.6002C414.838 88.2724 414.292 88.9575 413.775 89.6612C408.1 90.6097 403.224 94.1454 399.891 98.815C396.108 104.113 394.195 110.491 392.78 116.771C391.205 123.75 389.877 130.794 388.463 137.808C386.999 145.065 385.543 152.324 384.07 159.58C383.337 163.182 382.606 166.785 381.875 170.389C381.505 172.213 381.116 174.034 380.709 175.852C380.5 176.784 380.276 177.715 380.083 178.65C379.865 179.704 380.068 180.378 380.782 181.154C381.044 181.441 381.46 181.437 381.787 181.283L381.889 181.235L381.988 181.188C382.392 180.989 382.71 180.783 382.961 180.341C383.238 179.855 383.281 179.317 383.377 178.776C383.552 177.783 383.726 176.788 383.901 175.793C384.163 174.304 384.448 172.82 384.739 171.336L386.194 163.918C386.582 161.941 386.971 159.963 387.362 157.987C388.758 150.918 390.155 143.85 391.553 136.783C392.894 129.998 394.082 123.165 395.609 116.418L395.696 116.038L395.784 115.659C397.15 109.843 399.059 104.217 402.521 99.2882C405.186 95.4984 408.887 92.1137 413.245 90.4007C412.938 90.8431 412.643 91.2934 412.362 91.7537C410.596 94.6408 409.306 98.0677 409.608 101.505C409.756 103.185 410.394 104.835 410.334 106.528C410.278 108.032 409.348 109.353 408.705 110.661C407.245 113.627 406.19 116.778 405.509 120.012C404.143 126.504 404.148 133.184 404.619 139.774C405.13 146.939 406.101 154.101 407.206 161.195C407.774 164.834 408.528 168.443 409.106 172.076C409.391 173.867 409.78 175.654 410.121 177.436L410.283 178.287C410.374 178.76 410.468 179.231 410.577 179.697L410.644 179.976V180.026C410.647 180.37 410.741 180.654 410.892 180.881C411.099 181.545 411.357 182.193 411.698 182.815C411.873 183.132 412.128 183.311 412.405 183.376C412.683 184.013 413.314 184.503 414.066 184.5L423.972 184.463C429.724 184.44 435.478 184.402 441.231 184.37C442.682 184.362 444.133 184.335 445.583 184.298C446.943 184.26 448.247 184.096 449.591 183.927C451.11 183.736 451.933 182.661 451.706 181.143C451.656 180.809 451.601 180.476 451.55 180.143C451.853 180.242 452.212 180.196 452.455 179.958L452.684 179.735C453 179.421 453.284 179.114 453.484 178.696C453.692 178.267 453.859 177.813 454.042 177.374C454.437 176.43 454.821 175.483 455.195 174.531C455.943 172.628 456.692 170.717 457.388 168.794C458.766 164.986 459.985 161.12 461.045 157.21C462.935 150.235 464.303 143.126 465.165 135.953L465.371 134.243L465.431 133.738C465.758 130.958 466.033 128.134 465.903 125.36C465.822 123.624 465.553 121.873 464.904 120.251C464.306 118.755 463.382 117.475 462.503 116.137L462.402 115.983L462.301 115.825C461.533 114.61 460.921 113.34 460.891 111.865C460.86 110.367 461.296 108.91 461.783 107.509L461.904 107.163L461.986 106.934C463.023 104.037 464.203 101.182 463.814 98.0297C463.239 93.388 460.426 89.6461 456.887 86.7605C460.035 87.384 463.15 88.6153 465.9 90.1773C469.147 92.0228 472.07 94.4589 474.591 97.2079C479.356 102.404 482.757 108.637 485.541 115.073C488.456 121.81 490.617 128.867 492.246 136.018C493.883 143.209 494.98 150.515 495.729 157.85C496.102 161.501 496.396 165.161 496.639 168.823C496.763 170.698 496.857 172.578 497.002 174.451C497.147 176.322 497.212 178.223 497.669 180.044C497.882 180.893 499.321 180.98 499.475 180.044C499.817 177.956 499.721 175.797 499.626 173.682L499.617 173.49C499.523 171.384 499.401 169.28 499.256 167.175C498.959 162.873 498.563 158.578 498.046 154.296C496.232 139.266 492.888 124.315 486.329 110.595C483.241 104.133 479.277 97.8543 473.763 93.1883C471.137 90.9684 468.177 89.1966 464.988 87.9137C462.135 86.7655 459.237 86.2221 456.206 86.2236C454.687 85.0588 453.055 84.0437 451.425 83.1761C451.326 83.1238 451.223 83.2506 451.305 83.3322C451.347 83.373 451.388 83.4152 451.43 83.4546C451.246 83.4667 451.055 83.5534 450.885 83.733C450.286 84.3609 449.78 85.1462 449.328 85.9616C448.64 86.8213 447.984 87.709 447.297 88.5595C446.197 89.921 445.073 91.2633 443.934 92.5948C442.021 94.8326 440.046 97.0275 437.985 99.1343L437.642 99.4851C436.574 100.567 435.493 101.862 434.23 102.718L434.163 102.763C433.629 103.11 433.252 103.173 432.798 102.655C432.385 102.182 432.041 101.635 431.687 101.114L431.606 100.995C429.802 98.3733 428.129 95.6544 426.615 92.8554C425.925 91.5811 425.268 90.289 424.645 88.9825L424.46 88.5902C424.121 87.8701 423.753 87.1635 423.473 86.4219C423.409 86.2479 423.345 86.074 423.283 85.9014C424.236 85.2765 424.974 83.9242 425.242 82.8647C425.52 81.7651 425.379 80.6362 424.884 79.6304C424.79 79.4407 424.475 79.4879 424.43 79.6891ZM471.433 124.387C471.565 128.569 471.645 132.756 471.842 136.934L471.91 138.361C471.603 138.703 471.423 139.099 471.567 139.64C471.622 139.847 471.787 140.035 471.993 140.104L472.057 141.431C472.349 147.399 472.691 153.354 473.317 159.308C474.098 166.758 475.003 174.195 475.906 181.632C476.034 182.685 476.766 183.52 477.905 183.366C479.057 183.21 479.525 182.206 479.374 181.161C478.779 177.06 478.208 172.954 477.707 168.839L477.137 164.15C476.422 158.29 475.69 152.429 474.847 146.587C474.494 144.145 474.129 141.705 473.761 139.265L473.89 139.099C474.415 138.416 474.957 137.749 475.494 137.077C476.526 135.782 477.544 134.497 478.489 133.142C478.536 133.074 478.44 132.974 478.373 133.025C477.048 134.004 475.794 135.051 474.532 136.115L473.428 137.05C472.793 132.833 472.164 128.615 471.603 124.387C471.589 124.281 471.43 124.274 471.433 124.387ZM452.376 84.3659C453.173 85.1175 453.988 85.8527 454.791 86.6001L455.086 86.8757L455.378 87.1521C456.79 88.4907 458.142 89.8852 459.269 91.4859C461.338 94.4253 462.571 98.0097 461.71 101.599C460.996 104.571 459.358 107.267 458.918 110.313C458.698 111.84 458.805 113.374 459.38 114.816C459.967 116.287 460.904 117.547 461.747 118.874C463.577 121.758 463.826 124.923 463.645 128.264C463.454 131.753 463.053 135.243 462.559 138.7C461.558 145.705 460.048 152.638 458.05 159.427C457.051 162.827 455.869 166.153 454.694 169.494C454.109 171.157 453.427 172.781 452.724 174.397C452.353 175.247 451.974 176.093 451.588 176.937C451.73 175.745 451.73 174.521 451.8 173.336C451.899 171.638 452.027 169.944 452.143 168.247C452.38 164.805 452.592 161.361 452.781 157.915C453.451 145.63 453.944 133.334 453.908 121.028C453.889 114.876 453.764 108.722 453.499 102.575C453.375 99.6798 453.135 96.7877 452.918 93.897L452.872 93.277C452.679 90.6827 452.45 88.082 452.055 85.5098C452.172 85.2457 452.274 84.9787 452.349 84.7045L452.376 84.6014L452.356 84.605C452.374 84.5241 452.38 84.4446 452.376 84.3659ZM445.482 73.7932C445.466 73.7216 445.364 73.728 445.346 73.7932C444.897 75.3058 445.055 76.9702 445.443 78.4922C445.651 79.3168 445.947 80.1172 446.306 80.8889L446.431 81.1588C446.738 81.816 447.084 82.4932 447.683 82.9026C447.932 83.0737 448.379 83.0845 448.628 82.9026L448.755 82.806C448.776 82.7895 448.797 82.7731 448.817 82.7559C449.05 82.5604 449.165 82.1295 449.057 81.8453C448.781 81.1115 448.153 80.5725 447.719 79.9189C447.335 79.3383 446.994 78.7255 446.712 78.0884C446.102 76.7096 445.829 75.2471 445.482 73.7932Z" fill="black"/>
<path fill-rule="evenodd" clip-rule="evenodd" d="M427.829 84.5427C430.96 84.5341 433.825 83.9234 436.544 82.5876C439.827 81.516 443.412 80.9325 446.076 78.5601C447.373 78.8357 448.703 77.5035 449.779 76.7096C451.535 83.1711 460.67 82.0965 464.53 77.9209C466.891 75.9257 467.84 70.9912 463.74 69.6855C470.458 65.1211 472.885 57.2358 472.423 48.7037C471.937 34.391 460.938 19.511 446.801 17.0285C444.012 16.5377 441.148 16.5895 438.371 17.1733C436.82 17.5098 435.322 18.1622 433.661 18.1325C427.225 17.1147 420.156 17.2317 414.839 21.3527C406.342 27.0398 405.161 38.419 406.154 47.5677L406.114 47.6533C406.608 51.0116 407.428 54.0874 408.981 56.1119C409.102 59.0226 410.113 65.2363 410.188 67.6932C410.007 79.1235 416.496 84.1969 427.829 84.5427Z" fill="white"/>
<path fill-rule="evenodd" clip-rule="evenodd" d="M465.221 69.5285C485.57 51.5414 464.694 11.0624 438.217 16.4331C435.537 17.3308 432.816 17.6423 430.041 16.9771C416.056 14.7925 404.615 26.6637 405.207 40.3979C405.108 42.7469 405.127 45.0981 405.381 47.4378C405.671 50.5131 406.464 53.8023 408.232 56.3586C408.252 58.076 409.263 64.5174 409.425 67.5477L409.456 68.1805C409.617 71.2953 409.964 74.4716 411.333 77.3115C415.542 84.9405 426.383 86.5777 434.157 84.3556L434.481 84.249C435.925 83.7686 437.562 83.1294 438.478 81.9188C438.963 81.2803 438.161 80.4642 437.494 80.6374C436.635 80.8615 435.923 81.3855 435.121 81.757C429.893 84.0693 423.708 83.2947 418.546 81.1356L418.39 81.0698C409.145 77.3158 411.677 63.9619 410.46 56.3472C410.184 46.678 418.245 40.0935 424.319 33.6983L424.501 33.4957C425.125 32.8035 425.784 32.1287 426.651 31.9811C426.889 32.7023 427.474 33.3162 428.016 33.8422L429.241 35.1674C430.467 36.4911 431.696 37.8093 432.942 39.1157C438.993 45.2644 445.157 53.6126 454.484 54.2411C453.91 54.7601 453.408 55.3528 452.807 55.8418C452.554 56.0952 452.812 56.5211 453.152 56.4345C453.786 56.272 454.191 55.6707 454.607 55.2011C459.645 53.0857 463.781 60.9023 459.514 64.1387C457.93 65.8153 453.304 64.5396 454.374 66.607C453.206 70.2702 451.409 73.9547 448.369 76.4045C447.477 77.0788 446.082 77.4203 445.49 78.4125C445.347 78.6523 445.42 79.0424 445.688 79.1699C446.98 79.7719 448.367 78.759 449.359 77.9958C454.597 88.2385 473.804 76.922 465.221 69.5285ZM434.096 19.4796L434.62 19.377C440.217 18.2694 443.906 17.1729 449.822 19.1754C463.009 23.5816 471.511 37.6178 471.143 51.2601C471.135 59.0102 467.294 68.8921 458.644 69.9924C457.336 70.0962 457.315 72.1264 458.604 72.0656L458.644 72.0634C460.776 71.9303 462.84 71.1564 464.6 69.9666C466.96 73.7908 464.594 77.2614 460.917 78.905C457.19 80.8722 453.206 80.2451 450.716 76.7695C452.989 74.244 454.664 70.4685 455.051 67.1203C461.434 69.5972 466.247 60.467 462.095 55.6249C460.633 53.541 457.797 52.2381 455.459 53.7178C445.398 49.8456 438.374 41.6161 431.649 33.5547L431.29 33.1462C430.112 31.8159 427.405 28.8107 427.104 28.4222C426.767 27.9854 426.086 28.3786 426.077 28.8478C426.071 29.1814 426.09 29.5197 426.127 29.8572C424.875 30.665 423.861 31.8917 422.926 33.0241C415.955 38.4979 410.285 44.2308 408.522 52.9153C407.426 51.6362 406.93 49.9575 406.571 48.3542C405.82 37.7778 407.839 25.1127 418.747 20.5246C423.989 17.923 428.666 19.1153 434.096 19.4796ZM458.832 59.2006C459.286 58.7955 456.285 58.7461 456.002 59.0639L455.937 59.0861C454.863 59.4641 452.896 60.6825 453.861 61.9467C455.239 63.2453 456.198 59.3903 458.832 59.2006Z" fill="#221E1F"/>
<path fill-rule="evenodd" clip-rule="evenodd" d="M425.216 72.219C426.233 71.8045 427.141 71.1122 427.804 70.2281C428.034 69.9203 428.094 69.596 428.046 69.2989C427.991 68.9653 427.794 68.6625 427.524 68.4599C427.254 68.2566 426.917 68.1557 426.59 68.2072C426.307 68.2516 426.024 68.407 425.801 68.7291L425.754 68.7935C425.36 69.3276 424.846 69.765 424.26 70.0477C423.696 70.3198 423.065 70.4465 422.412 70.3727C421.168 70.2324 420.311 69.5595 419.399 68.6453C419.287 68.5301 419.174 68.4113 419.06 68.2903C418.988 68.1807 418.889 68.1099 418.779 68.0734C418.655 68.0318 418.517 68.0347 418.39 68.0791C418.267 68.1213 418.157 68.2029 418.084 68.311C418.014 68.4134 417.975 68.5401 417.988 68.6862C418.071 69.6325 418.566 70.478 419.269 71.1416C420.049 71.8789 421.084 72.3886 422.059 72.5676C423.132 72.7645 424.226 72.6234 425.216 72.219ZM421.553 57.6095C420.41 58.3039 418.67 59.9232 419.899 61.6448C421.345 63.1632 423.427 61.4229 424.453 60.6355C425.405 60.0255 426.473 61.5947 425.591 62.307C418.177 67.7985 415.168 57.7913 420.975 56.7934C421.614 56.6831 421.852 57.3947 421.553 57.6095ZM434.839 51.2217C434.713 49.6548 432.327 49.2989 432.09 50.8495C431.878 52.2383 432.128 53.514 432.753 54.7646C433.351 55.9594 434.853 55.4025 434.967 54.3143C435.118 52.8561 434.918 52.1961 434.839 51.2217ZM416.68 50.5279C416.348 50.0923 415.868 49.7947 415.292 49.9629C413.495 50.4884 414.024 53.0415 414.656 54.2835C414.999 54.9586 416.108 55.1297 416.609 54.5355C417.426 53.567 417.816 51.6317 416.778 50.6773C416.75 50.628 416.719 50.5782 416.68 50.5279ZM432.778 44.3654L432.495 44.3157C431.616 44.1637 430.524 44.0177 429.902 44.7242C429.573 45.0988 429.459 45.795 429.902 46.1536C430.682 46.7845 431.543 46.54 432.477 46.5934C433.246 46.6376 433.986 46.765 434.727 46.977C436.353 47.442 437.678 48.2907 439.067 49.2228C439.25 49.345 439.436 49.1118 439.348 48.9413C438.547 47.3704 436.993 46.0799 435.437 45.2933C434.606 44.8735 433.697 44.5251 432.778 44.3654ZM418.319 43.6617L418.102 43.7062C415.737 44.2007 412.664 45.1886 411.544 47.5125C411.502 47.8411 411.547 47.9115 411.583 47.9575L411.596 47.9729C411.626 48.0122 411.65 48.0663 411.792 48.111C411.832 48.1016 411.872 48.0916 411.912 48.081C412.425 47.9464 412.831 47.761 413.225 47.5687L413.651 47.3586C414.145 47.116 414.644 46.8822 415.173 46.7096C416.302 46.3412 417.463 46.0819 418.642 45.9434C418.897 45.9134 419.143 45.8271 419.338 45.6792C419.522 45.5389 419.662 45.3446 419.726 45.0863C419.809 44.7521 419.786 44.4991 419.607 44.1976C419.472 43.9711 419.279 43.8141 419.057 43.724C418.832 43.6322 418.575 43.6105 418.319 43.6617Z" fill="black"/>
</g>
<mask id="mask1_1_1579" style="mask-type:alpha" maskUnits="userSpaceOnUse" x="0" y="0" width="132" height="174">
<path d="M131.225 173.903C109.288 173.903 118.876 173.903 76.5811 173.903C34.2865 173.903 0 139.616 0 97.3218C0 76.7299 29.3265 82.1651 29.3265 63.0199C29.3265 8.77492 54.0808 0 75.7834 0C97.486 0 131.225 9.3629 131.225 58.4227C131.225 89.1349 131.225 153.311 131.225 173.903Z" fill="white"/>
</mask>
<g mask="url(#mask1_1_1579)">
<path fill-rule="evenodd" clip-rule="evenodd" d="M24.5009 183.562C25.2995 184.776 26.8702 184.59 27.5446 183.65C35.2236 185.44 43.0961 184.734 50.8819 184.295C72.8216 183.402 94.8856 186.202 116.737 183.273C119.055 182.809 121.752 183.031 123.649 181.423C126.683 177.867 126.03 172.467 125.547 168.136C121.673 143.719 116.166 119.079 113.419 94.5051C113.266 92.1639 114.23 89.2557 115.094 87.0551C115.308 86.6458 116.657 86.245 117.357 85.7727C119.507 84.2293 119.158 81.4638 117.295 79.8409C111.263 75.5872 102.866 77.0739 96.467 78.6431C95.2405 74.0353 93.862 71.0053 91.5273 70.7049C87.0837 70.1336 76.3033 68.3881 72.9822 70.7049C71.3937 71.8131 70.3744 75.7184 69.231 77.6209C60.8914 77.4732 43.9657 66.3115 40.486 78.8803C37.6588 79.0753 34.8587 81.5448 35.3994 84.5074C31.7329 87.7489 34.6248 92.6091 34.5741 96.6434C34.0921 105.203 29.4622 112.858 27.536 121.127C23.1331 137.164 18.1497 166.336 23.6105 181.99C23.4931 181.928 23.2364 182.021 23.4026 182.151C24.0209 182.325 24.1014 183.104 24.5009 183.562Z" fill="white"/>
<path fill-rule="evenodd" clip-rule="evenodd" d="M120.38 179.485C119.356 171.26 118.644 161.33 118.636 153.036C118.635 152.254 119.846 152.256 119.847 153.036C119.855 161.33 120.568 171.26 121.591 179.485C121.688 180.259 120.475 180.249 120.38 179.485ZM112.793 128.483C111.21 129.451 109.132 128.78 107.566 128.138C106.852 127.846 107.166 126.674 107.888 126.97C109.08 127.458 110.822 128.176 112.08 127.495C113.335 126.816 113.392 124.948 113.401 123.715C113.408 122.934 114.619 122.934 114.613 123.715C114.601 125.392 114.376 127.514 112.793 128.483ZM109.864 166.124C108.267 165.306 106.905 164.187 105.808 162.766C105.331 162.148 106.384 161.545 106.854 162.154C107.819 163.405 109.077 164.361 110.475 165.079C111.17 165.435 110.556 166.48 109.864 166.124ZM102.189 123.825C99.4491 134.808 97.6111 145.987 96.71 157.271C96.5265 159.561 96.3975 161.849 96.3251 164.138C96.2527 164.735 96.1825 165.334 96.118 165.932C95.8706 168.195 95.6814 170.496 95.6979 172.774C95.7058 173.797 95.7373 174.815 95.8068 175.834C95.6857 175.493 95.5739 175.151 95.4649 174.81C95.242 174.111 95.095 173.387 94.8685 172.693C94.6807 172.119 94.4384 171.569 94.2126 171.013V171.012C94.2807 168.735 94.1259 166.436 94.0478 164.17C93.946 161.234 93.8205 158.301 93.7553 155.363C93.6248 149.488 93.6901 143.608 93.9022 137.736C94.3273 125.904 95.4026 114.128 96.4871 102.344C96.7882 99.0665 97.1129 95.7913 97.3366 92.5082C97.5624 89.19 97.6534 85.8661 97.6792 82.5393C97.6806 82.2998 97.3172 82.2368 97.2505 82.4683C97.191 81.6791 97.0871 80.8913 96.9129 80.1286C99.525 81.7952 102.28 83.236 104.98 84.7514C106.402 85.5499 107.818 86.3614 109.284 87.0768C110.09 87.4703 110.903 87.833 111.733 88.175C112.593 88.5298 113.416 89.0172 114.362 88.7707C114.444 88.7492 114.521 88.719 114.595 88.6796C114.487 88.8839 114.38 89.0875 114.277 89.2932C113.92 90.0036 113.579 90.7176 113.249 91.4373C113.161 91.5018 113.084 91.5914 113.023 91.7082C112.862 92.0215 112.707 92.3383 112.556 92.6595C112.525 92.6308 112.495 92.6021 112.465 92.5734C112.337 92.4537 112.161 92.6337 112.274 92.7641C112.325 92.8229 112.375 92.881 112.425 92.9397C111.437 95.0651 110.635 97.3002 109.808 99.4822C108.792 102.163 107.829 104.865 106.921 107.584C105.133 112.934 103.555 118.353 102.189 123.825ZM63.0212 163.681C57.9722 166.387 53.2538 169.62 48.7157 173.106C48.097 173.582 47.4943 172.528 48.1042 172.06C52.6423 168.573 57.3608 165.34 62.4098 162.635C63.0979 162.266 63.7094 163.313 63.0212 163.681ZM45.9674 132C45.7049 131.98 45.4499 131.828 45.3832 131.555C44.9742 129.879 44.6539 128.054 45.0343 126.346C45.2039 125.583 46.3717 125.908 46.2026 126.668C45.9026 128.016 46.1409 129.472 46.4525 130.816C50.8562 131.008 55.201 129.428 59.4143 128.366C60.1719 128.175 60.4919 129.345 59.7364 129.535C55.267 130.661 50.644 132.346 45.9674 132ZM133.638 176.687C133.642 176.677 133.647 176.665 133.65 176.654C133.908 175.869 133.915 174.957 133.944 174.134C133.994 172.671 133.941 171.205 133.809 169.745C133.53 166.674 132.93 163.653 132.214 160.658C130.795 154.725 128.79 148.953 127.701 142.94C125.564 131.137 126.071 118.847 121.878 107.461C120.135 102.729 117.645 98.179 114.262 94.4186C114.509 93.6673 114.75 92.9139 114.984 92.1584C115.395 90.843 115.814 89.4853 116.067 88.1312C116.073 88.0947 116.081 88.0567 116.085 88.0194C117.525 87.3979 118.836 86.2266 119.059 84.6697C119.157 83.9966 119.044 83.2511 118.754 82.6016C119.348 82.0533 119.729 81.3407 119.638 80.3866C119.469 78.5895 117.371 78.1272 115.911 77.7759C114.252 77.3774 112.53 77.267 110.832 77.4548C109.975 77.5487 109.126 77.7064 108.298 77.943C107.579 78.1473 106.796 78.358 106.219 78.8519C106.151 78.9092 106.207 79.0211 106.288 79.0211C107.456 79.0168 108.619 78.5881 109.799 78.5322C111.034 78.4741 112.267 78.5759 113.479 78.8304C114.663 79.0791 115.844 79.4426 116.921 80.0046C117.224 80.1637 117.668 80.2712 117.312 80.5924C117.052 80.8275 116.54 80.8468 116.205 80.882C115.464 80.9594 114.825 81.3923 114.731 82.183C114.648 82.8819 115.064 83.6726 115.806 83.8303C115.847 83.8396 115.885 83.8496 115.919 83.8632C115.938 83.9012 115.968 83.9328 115.966 83.8819C115.966 83.8819 115.967 83.8797 115.967 83.8819C115.986 83.9923 115.991 84.036 115.991 84.0439C115.987 84.0346 115.979 83.9966 115.973 83.9665C115.978 83.9937 115.987 84.0374 115.999 84.1027C115.982 84.0317 115.996 84.2059 115.982 84.2331C115.588 84.96 114.424 85.165 113.745 85.4783C113.614 85.5392 113.5 85.6102 113.404 85.6904C113.243 85.6345 113.079 85.5786 112.914 85.5163C112.101 85.2116 111.289 84.9163 110.465 84.6417C108.875 84.1106 107.265 83.636 105.675 83.1027C102.665 82.0941 99.7537 80.8196 96.7989 79.6655C96.705 79.3171 96.5961 78.9759 96.4678 78.644C96.442 78.5745 96.3172 78.5515 96.3036 78.644C96.2584 78.9379 96.2219 79.2332 96.1918 79.5307C96.1796 79.558 96.1767 79.5881 96.1825 79.6168C96.0119 81.3436 96.057 83.112 95.9688 84.8374C95.8599 86.9886 95.5559 89.1248 95.4692 91.2781V91.3176C95.1517 93.1548 94.8635 94.9985 94.6033 96.8486C94.3108 96.7576 93.9761 96.7762 93.6341 96.959C91.2141 98.2514 88.4938 98.9711 85.7576 99.1317C84.3792 99.212 83.015 99.1668 81.6445 99.0077C80.7434 98.9045 79.856 98.7167 78.9664 98.5382C79.4345 96.5762 79.9377 94.6228 80.5054 92.6903C80.9735 91.1004 81.4946 89.519 82.1376 87.99C82.7878 86.4467 83.5964 84.9722 84.349 83.4754C84.696 82.783 84.2867 81.7242 83.3856 81.7966C83.119 81.8181 82.853 81.8346 82.5849 81.8468C79.9771 81.9715 77.2646 81.6805 74.6898 81.421C71.7594 81.1242 68.7896 80.8167 65.885 80.3336C65.6699 80.2985 65.5825 80.5909 65.7939 80.6619C67.1724 81.1257 68.5336 81.6497 69.9465 81.9966C71.401 82.3558 72.8633 82.6833 74.3385 82.9393C75.7514 83.183 77.1707 83.388 78.5943 83.5607C79.5226 83.674 80.4617 83.7314 81.3957 83.8073C80.1377 85.8195 79.2696 88.089 78.5141 90.3233C77.5435 93.1928 76.8295 96.1454 76.132 99.0923C74.6382 105.408 73.4074 111.788 72.444 118.207C71.7536 122.81 71.1945 127.431 70.7752 132.064C70.6512 130.656 70.4992 129.254 70.3286 127.852C69.7558 123.199 68.92 118.577 67.8025 114.025C67.9021 113.849 67.9494 113.638 67.9157 113.434C67.7143 112.182 67.1846 111.093 66.7194 109.932C66.2577 108.311 65.7595 106.701 65.2233 105.102C64.6147 102.925 63.9316 100.782 63.0578 98.688C62.3897 97.0923 61.6277 95.5382 60.7799 94.0308C59.7668 91.9233 58.6537 89.8617 57.4315 87.8904C57.368 87.7069 57.265 87.5356 57.1181 87.3922C56.8954 87.0402 56.6698 86.6933 56.4396 86.3492C56.2896 86.1256 55.8595 86.2618 55.9732 86.5463C56.0261 86.6797 56.0792 86.813 56.1337 86.9449C51.1558 85.6998 46.2747 87.6037 41.5331 89.0101C40.3367 89.3656 39.1282 89.6875 37.9015 89.919C36.9368 90.1011 35.8131 90.3219 34.8514 90.1219C34.2078 89.9886 33.9231 89.6961 34.2365 89.0086C34.5607 88.2968 35.4451 87.828 36.2129 87.5133C36.5021 87.451 36.7869 87.3406 37.061 87.1736C37.7 86.7858 37.9802 85.9772 37.6789 85.2876C37.4048 84.6647 36.6052 84.1285 35.8979 84.4131C35.7964 84.4539 35.6965 84.4933 35.5965 84.5328C35.5859 84.5177 35.5738 84.4969 35.5632 84.4661C35.4617 84.1894 35.4178 84.5213 35.4617 84.1242C35.5344 83.4754 36.2205 82.8862 36.69 82.5149C37.8576 81.5895 39.5447 80.9049 41.0515 81.2547C41.165 81.2805 41.2787 81.3121 41.3907 81.3515C42.943 81.8891 43.6988 79.6533 42.4584 78.8196C42.3827 78.7702 42.2872 78.7064 42.1828 78.6318C41.6663 78.2727 40.9106 77.6684 41.1166 77.1229C41.3711 76.4462 42.8718 76.0563 43.4398 75.8262C45.4933 74.9932 47.7119 74.5201 49.9261 74.4233C52.1537 74.3265 54.4103 74.5717 56.5592 75.1731C57.6133 75.467 58.6961 75.9143 59.6926 76.3659C60.5876 76.7702 62.5352 77.305 62.6592 78.4383C62.6865 78.6885 63.0427 78.773 63.1194 78.4999C63.7302 76.3244 61.3618 74.9201 59.7986 74.0219C58.7733 73.4305 57.6103 73.0628 56.485 72.7008C55.4068 72.3524 54.3057 72.0965 53.182 71.9417C50.7696 71.6112 48.3283 71.6535 45.9355 72.1173C43.7562 72.5402 41.3316 73.2614 39.5704 74.6642C38.4891 75.5244 38 76.8942 38.4346 78.2304C38.4497 78.2741 38.4648 78.32 38.48 78.3637C36.534 78.7121 34.6924 79.8275 33.4612 81.3816C32.4496 82.659 31.9195 84.436 32.8251 85.9227C32.7872 85.9499 32.7494 85.9786 32.7131 86.0087C31.8499 86.6997 31.2077 87.7026 31.0169 88.7993C30.6429 90.9627 31.9498 92.4759 33.7777 93.0551C33.3249 93.4974 32.8903 93.967 32.4647 94.4365C31.5121 95.4895 30.6019 96.6364 29.7993 97.8063C28.1728 100.175 26.7826 102.756 25.5665 105.355C23.0662 110.694 21.4897 116.441 20.6537 122.267C20.2326 125.203 19.951 128.155 19.8435 131.118C19.7192 134.497 19.845 137.877 19.7798 141.257C19.7162 144.505 19.3573 147.675 18.6319 150.841C17.9368 153.869 17.01 156.837 16.1709 159.826C15.2244 163.193 14.1825 166.544 13.6828 170.015C13.4299 171.782 13.2481 173.553 13.389 175.339C13.5313 177.159 14.1916 178.714 14.8004 180.407C14.9549 180.839 15.4259 181.012 15.803 180.92C15.8878 181.73 16.1937 182.522 16.6495 183.206C17.6172 184.658 19.1074 185.583 20.8142 185.92C22.7375 186.297 24.7199 186.208 26.6675 186.138C28.7801 186.062 30.8942 185.994 33.0069 185.906C35.2187 185.815 37.4304 185.721 39.6421 185.626C39.569 183.358 39.4818 181.092 39.3832 178.824C38.85 166.571 38.0102 154.31 37.988 142.039C37.9451 142.014 37.903 141.984 37.8627 141.945C36.867 140.982 35.6445 140.35 34.496 139.596C33.846 139.169 34.4536 138.121 35.1076 138.55C36.0758 139.185 37.0849 139.749 37.9924 140.461C37.9977 139.185 38.0088 137.907 38.0342 136.63C38.0496 135.85 39.2611 135.85 39.2457 136.63C39.1697 140.479 39.1951 144.33 39.2822 148.179C39.564 160.654 40.4499 173.105 40.8534 185.575C46.7899 185.321 52.7269 185.065 58.6643 184.849C63.4936 184.673 68.3236 184.497 73.1529 184.321C74.1658 184.285 74.7357 183.561 74.8597 182.614C75.0869 180.872 74.6597 179.07 73.6934 177.605C73.5937 177.454 73.4755 177.319 73.3436 177.204C73.3665 176.16 73.4088 175.114 73.35 174.07C73.2619 172.477 73.13 170.883 73.0153 169.291C72.7816 166.101 72.6017 162.907 72.5307 159.71C72.3852 153.317 72.4913 146.917 72.8533 140.533C73.5787 127.778 75.2668 115.105 78.0309 102.628C78.2323 101.719 78.4352 100.811 78.646 99.903C80.7943 101.02 83.4086 101.421 85.7576 101.436C88.7016 101.454 91.5804 100.777 94.2399 99.5453C94.2212 99.6829 94.2033 99.8199 94.1868 99.9575C93.4449 105.866 92.8191 111.787 92.2743 117.715C91.1869 129.534 90.5202 141.401 90.6127 153.272C90.6385 156.562 90.764 159.84 90.9202 163.124C91.0794 166.466 91.3231 169.995 92.2528 173.218C92.356 173.574 92.5847 173.779 92.8478 173.853C92.8614 174.322 92.8922 174.794 92.9252 175.257C93.0327 176.764 93.3402 179.896 93.9976 181.262C94.6377 182.596 95.7058 183.653 97.067 184.235C98.7967 184.973 100.667 184.761 102.493 184.642C110.435 184.125 118.37 183.431 126.308 182.822C127.413 182.737 128.519 182.653 129.623 182.567C130.605 182.491 131.622 182.424 132.494 181.914C133.486 181.334 134.26 178.484 133.918 177.305C133.855 177.09 133.762 176.878 133.638 176.687Z" fill="black"/>
<path fill-rule="evenodd" clip-rule="evenodd" d="M108.988 49.179C108.928 45.785 108.861 42.3233 108.357 38.9623C107.863 35.6765 106.507 32.7065 104.176 30.3205C99.2248 25.2523 92.0479 24.0144 85.3678 22.8799L73.9458 20.9402C70.4613 20.3486 66.7439 19.4029 63.2235 20.242C61.4888 20.6555 60.0153 21.6159 58.6689 22.7524C57.371 23.8477 55.9757 25.024 55.0962 26.4977C54.2153 27.9734 53.9123 29.6986 53.6258 31.3677C53.3028 33.2495 53.0518 35.146 52.8736 37.047C52.5164 40.8558 52.4676 44.6932 52.7268 48.5098C52.8523 50.3611 53.0521 52.2071 53.307 54.0443C53.4335 54.9561 53.5765 55.8651 53.7379 56.7704C53.7855 57.0378 53.8217 57.3339 53.8704 57.6321C53.5101 58.6571 53.3054 59.7188 53.3219 60.7761C53.3705 63.89 55.9976 65.8498 58.6461 66.9028C60.1816 67.5128 61.787 67.9272 63.2959 68.6089C64.883 69.3264 65.9632 70.4884 67.0485 71.8145C69.1187 74.3442 71.4541 76.6173 74.1215 78.5133C79.7758 82.5347 86.9376 84.4365 93.7991 82.9928C95.445 82.6465 97.1059 82.1089 98.5854 81.2982C100.148 80.443 101.322 79.2029 102.309 77.737C104.141 75.0159 105.454 71.9522 106.448 68.834C107.462 65.6534 108.182 62.4671 108.574 59.1503C108.964 55.8443 109.047 52.5053 108.988 49.179Z" fill="white"/>
<path fill-rule="evenodd" clip-rule="evenodd" d="M72.5404 9.11941C77.2664 8.46896 83.7903 10.5829 86.1444 14.8452C97.3821 12.1949 111.556 12.1081 120.819 20.9311C130.484 31.3972 118.344 45.1967 110.294 48.308C110.88 51.1573 109.967 69.4113 103.501 77.5531C98.3692 84.4518 86.4189 87.636 80.8893 79.396L80.8463 79.3279C80.2542 78.376 80.7646 78.4068 81.3724 79.1143C86.7873 83.8784 94.1492 83.9594 99.8222 78.9322C110.455 69.7439 109.359 47.2138 104.299 34.18C89.8926 32.5971 74.4672 36.9653 64.5169 47.8142L65.19 51.8669C65.304 52.5572 65.4344 53.2468 65.5341 53.9393C65.5979 54.3837 65.6043 54.8253 65.2975 55.1844C64.2818 56.3708 62.5714 54.588 61.1636 53.8791C60.748 53.8203 60.3317 53.7981 59.9234 53.8267C53.1603 54.6984 54.4928 67.8228 61.9263 65.5225C62.5506 65.1333 63.0868 65.2516 63.3291 65.8164C65.1011 67.44 66.2696 70.3353 69.2129 73.1245C70.2515 74.1704 71.1963 75.0456 72.3647 75.885C73.0508 76.5789 75.1217 77.2871 74.4651 78.4749C73.2242 81.1781 65.9047 72.6872 64.6108 70.3389C60.556 71.9403 56.0627 71.3962 51.8609 71.0048C29.6942 69.8522 32.6534 46.4769 50.8229 31.719C54.2431 29.2001 58.0166 27.1452 61.9392 25.564C62.4747 25.3481 62.241 24.4685 61.6976 24.6874C59.1021 25.7339 56.572 26.9793 54.1601 28.4209L54.1564 27.559C54.1529 26.1075 54.1757 24.5963 54.4277 23.27C54.5537 22.351 54.7656 21.3694 55.0918 20.631C55.4951 18.3671 61.8123 10.5962 72.5404 9.11941ZM59.6274 56.8396C59.9697 56.5149 60.6086 56.9027 60.9133 56.8926C61.6926 56.9994 62.4331 57.3285 63.0101 57.7349C63.3915 57.9485 63.6581 58.1492 63.8818 58.3335L63.8875 58.332C63.8861 58.332 63.8839 58.3335 63.8818 58.3342L63.9033 58.3485C64.228 58.5793 65.418 59.8804 64.666 59.5306C64.6101 59.4582 64.5527 59.3879 64.4947 59.3191C64.4889 59.3284 64.4803 59.3377 64.4696 59.347L64.5119 59.4094C65.1513 60.3707 64.0481 59.3578 63.8782 59.089C63.8703 59.0954 63.861 59.0997 63.8524 59.1048L64.0732 59.3736C64.104 59.4116 64.1284 59.4424 64.1485 59.4682L64.195 59.5134C64.9341 60.2395 64.957 60.8932 64.0983 59.8194C64.1327 59.8696 64.1592 59.9234 64.1635 59.9714L64.2144 60.0359C64.8882 60.9047 64.3398 60.5965 64.0051 60.2252L63.9771 60.1936L63.9829 60.2022C64.294 60.6818 63.6761 60.3449 63.5671 60.0882L63.5621 60.0768C63.4431 59.9793 63.37 59.8703 63.3449 59.8431L63.3406 59.8381C62.7607 59.2445 61.9213 58.742 61.2073 58.5134C61.1041 58.494 60.9994 58.4782 60.8938 58.4668C60.4647 58.3714 60.031 58.3055 59.5927 58.2704C59.5391 58.2639 59.4848 58.2245 59.4442 58.1736C58.7814 58.1514 58.986 57.8797 59.261 57.8288L59.2658 57.8281L59.2112 57.8238C58.7859 57.7822 58.4955 57.6295 58.9255 57.5356L58.98 57.5249C58.9733 57.5141 58.9674 57.5041 58.9617 57.4933C58.5934 57.4532 58.8337 57.0948 59.0382 57.1815C58.9522 56.9005 59.3453 57.0403 59.3944 56.9987C59.4317 56.9571 59.4782 56.9206 59.5051 56.9184C59.6235 56.8353 59.5661 56.8424 59.6274 56.8396ZM61.8811 52.2848L61.7951 52.335C61.7249 52.3759 61.6532 52.4031 61.5815 52.4189C61.6833 52.4626 61.7836 52.5092 61.8833 52.5594C61.8818 52.4985 61.8804 52.4368 61.8804 52.3759L61.8811 52.2848Z" fill="black"/>
<path fill-rule="evenodd" clip-rule="evenodd" d="M91.8753 70.9559C90.8574 70.5409 89.9485 69.8477 89.2847 68.9624C89.0539 68.6542 88.9937 68.3294 89.0424 68.0319C89.0969 67.6979 89.2947 67.3947 89.5642 67.1918C89.8345 66.9882 90.1728 66.8872 90.4997 66.9388C90.7836 66.9832 91.0667 67.1388 91.2904 67.4614L91.337 67.5259C91.7319 68.0606 92.2466 68.4986 92.833 68.7817C93.3979 69.0541 94.0294 69.181 94.6839 69.1072C95.929 68.9667 96.7877 68.2929 97.7003 67.3775C97.8128 67.2621 97.9261 67.1431 98.04 67.0219C98.1117 66.9123 98.2114 66.8413 98.3218 66.8047C98.4451 66.7632 98.5841 66.766 98.711 66.8105C98.8343 66.8528 98.944 66.9345 99.0171 67.0427C99.0873 67.1452 99.1268 67.2721 99.1138 67.4183C99.0307 68.366 98.5347 69.2126 97.8307 69.8771C97.0494 70.6154 96.0128 71.1258 95.0372 71.305C93.962 71.5021 92.8667 71.3609 91.8753 70.9559ZM95.544 56.3268C96.6881 57.0222 98.43 58.6436 97.1999 60.3676C95.7519 61.888 93.6667 60.1454 92.6395 59.3569C91.6868 58.7461 90.6166 60.3174 91.5004 61.0307C98.9246 66.5295 101.937 56.5089 96.1225 55.5097C95.4824 55.3993 95.2444 56.1118 95.544 56.3268ZM82.2397 49.9305C82.3659 48.3615 84.755 48.0052 84.9923 49.5578C85.2052 50.9485 84.9543 52.2259 84.3285 53.4782C83.73 54.6746 82.2261 54.1169 82.1121 53.0273C81.9601 51.5671 82.1608 50.9062 82.2397 49.9305ZM100.423 49.2358C100.755 48.7996 101.236 48.5017 101.813 48.67C103.613 49.1962 103.082 51.7528 102.45 52.9965C102.107 53.6724 100.996 53.8438 100.494 53.2488C99.6766 52.2789 99.2852 50.341 100.325 49.3854C100.353 49.336 100.384 49.2862 100.423 49.2358ZM84.3034 43.0651L84.5873 43.0153C85.4669 42.8631 86.5607 42.7168 87.1829 43.4243C87.5127 43.7994 87.6267 44.4966 87.1829 44.8556C86.4023 45.4874 85.54 45.2426 84.6052 45.2961C83.8346 45.3403 83.0942 45.4679 82.3515 45.6801C80.7236 46.1457 79.3968 46.9956 78.0061 47.9289C77.8233 48.0513 77.6369 47.8178 77.7244 47.6471C78.5272 46.074 80.0828 44.7819 81.6411 43.9942C82.4727 43.5738 83.383 43.225 84.3034 43.0651ZM98.782 42.3604L98.9992 42.405C101.368 42.9001 104.444 43.8894 105.566 46.2163C105.608 46.5454 105.563 46.6159 105.527 46.662L105.514 46.6773C105.484 46.7167 105.46 46.7709 105.317 46.8157C105.278 46.8062 105.238 46.7963 105.198 46.7856C104.684 46.6509 104.277 46.4652 103.883 46.2726L103.456 46.0622C102.961 45.8193 102.461 45.5852 101.932 45.4123C100.801 45.0435 99.6393 44.7838 98.4587 44.6451C98.2028 44.6151 97.9569 44.5287 97.7619 44.3806C97.5777 44.2401 97.4372 44.0456 97.3727 43.7869C97.2895 43.4523 97.3132 43.1989 97.4924 42.897C97.6279 42.6703 97.8207 42.5131 98.0429 42.4228C98.2687 42.3308 98.5261 42.3091 98.782 42.3604Z" fill="black"/>
<path fill-rule="evenodd" clip-rule="evenodd" d="M110.454 59.4558C109.952 58.782 109.05 57.8967 108.137 57.9447C108.021 57.9504 107.977 58.0773 108.047 58.1626C108.346 58.5275 108.754 58.787 109.053 59.159C109.407 59.5999 109.662 60.131 109.828 60.6687C110.069 61.4493 110.136 62.3324 109.921 63.1267C109.542 64.5259 108.343 65.5517 107.035 66.075C105.74 66.5932 104.182 66.7703 102.958 66.0112C101.15 64.8893 99.6165 63.2729 97.3449 63.2414C96.8137 63.2335 96.4388 63.4772 96.2159 63.8248C95.9915 63.4894 95.6223 63.2528 95.1041 63.2464C92.5572 63.2177 90.6561 64.9718 88.5185 66.0649C87.0741 66.804 85.2046 66.5746 83.7144 66.0864C82.3087 65.6262 80.7825 64.7015 80.2521 63.2414C79.9596 62.4349 80.0248 61.4937 80.3252 60.6988C80.523 60.1762 80.8284 59.6715 81.2062 59.2608C81.5976 58.835 82.1122 58.5669 82.513 58.1626C82.5947 58.0802 82.5302 57.9519 82.4226 57.9447C80.7194 57.8293 79.1818 59.8637 78.86 61.3396C78.5432 62.7926 79.0155 64.2428 79.9711 65.3517C81.9151 67.6068 85.5136 68.3502 88.3143 67.6878C90.5809 67.1517 92.7342 65.9166 95.1041 66.0936C95.623 66.1323 95.9965 65.9158 96.2216 65.5875C96.4467 65.9259 96.8216 66.1467 97.3449 66.0958C99.5534 65.8821 101.525 67.447 103.669 67.8291C105.376 68.133 107.219 67.723 108.682 66.8026C110.211 65.8413 111.287 64.2987 111.358 62.46C111.399 61.402 111.089 60.3074 110.454 59.4558Z" fill="black"/>
</g>
<defs>
<linearGradient id="paint0_linear_1_1579" x1="397.489" y1="37.0746" x2="400.105" y2="121.058" gradientUnits="userSpaceOnUse">
<stop stop-color="#F0995A"/>
<stop offset="1" stop-color="#F3802D"/>
</linearGradient>
</defs>
</svg>
