<svg width="52" height="52" viewBox="0 0 52 52" fill="none" xmlns="http://www.w3.org/2000/svg">
<path d="M23.0557 6.96216H6.67905C5.43809 6.96216 4.24795 7.45513 3.37046 8.33262C2.49297 9.21011 2 10.4002 2 11.6412V44.3946C2 45.6355 2.49297 46.8257 3.37046 47.7032C4.24795 48.5806 5.43809 49.0736 6.67905 49.0736H39.4324C40.6734 49.0736 41.8635 48.5806 42.741 47.7032C43.6185 46.8257 44.1115 45.6355 44.1115 44.3946V28.0179" stroke="#7FBE3F" stroke-width="4" stroke-linecap="round" stroke-linejoin="round"/>
<path d="M40.6021 3.45359C41.5328 2.52287 42.7952 2 44.1114 2C45.4277 2 46.69 2.52287 47.6207 3.45359C48.5514 4.38432 49.0743 5.64664 49.0743 6.96288C49.0743 8.27912 48.5514 9.54145 47.6207 10.4722L25.3952 32.6977L16.0371 35.0372L18.3766 25.6791L40.6021 3.45359Z" stroke="#7FBE3F" stroke-width="4" stroke-linecap="round" stroke-linejoin="round"/>
</svg>
