<svg width="52" height="52" viewBox="0 0 52 52" fill="none" xmlns="http://www.w3.org/2000/svg">
<path d="M44.3667 18.6433H23.1833C20.5834 18.6433 18.4758 20.7509 18.4758 23.3507V44.5342C18.4758 47.134 20.5834 49.2416 23.1833 49.2416H44.3667C46.9666 49.2416 49.0742 47.134 49.0742 44.5342V23.3507C49.0742 20.7509 46.9666 18.6433 44.3667 18.6433Z" stroke="#7FBE3F" stroke-width="4" stroke-linecap="round" stroke-linejoin="round"/>
<path d="M9.06115 32.7653H6.70743C5.45894 32.7653 4.26159 32.2693 3.37878 31.3865C2.49596 30.5037 2 29.3064 2 28.0579V6.87443C2 5.62594 2.49596 4.42858 3.37878 3.54577C4.26159 2.66295 5.45894 2.16699 6.70743 2.16699H27.8909C29.1394 2.16699 30.3367 2.66295 31.2195 3.54577C32.1024 4.42858 32.5983 5.62594 32.5983 6.87443V9.22814" stroke="#7FBE3F" stroke-width="4" stroke-linecap="round" stroke-linejoin="round"/>
</svg>
