<svg width="52" height="52" viewBox="0 0 52 52" fill="none" xmlns="http://www.w3.org/2000/svg">
<path d="M41.2286 2C39.1478 2 37.1522 2.8266 35.6809 4.29796C34.2095 5.76932 33.3829 7.76491 33.3829 9.84572V41.2286C33.3829 43.3094 34.2095 45.305 35.6809 46.7764C37.1522 48.2477 39.1478 49.0743 41.2286 49.0743C43.3094 49.0743 45.305 48.2477 46.7764 46.7764C48.2477 45.305 49.0743 43.3094 49.0743 41.2286C49.0743 39.1478 48.2477 37.1522 46.7764 35.6809C45.305 34.2095 43.3094 33.3829 41.2286 33.3829H9.84572C7.76491 33.3829 5.76932 34.2095 4.29796 35.6809C2.8266 37.1522 2 39.1478 2 41.2286C2 43.3094 2.8266 45.305 4.29796 46.7764C5.76932 48.2477 7.76491 49.0743 9.84572 49.0743C11.9265 49.0743 13.9221 48.2477 15.3935 46.7764C16.8648 45.305 17.6914 43.3094 17.6914 41.2286V9.84572C17.6914 7.76491 16.8648 5.76932 15.3935 4.29796C13.9221 2.8266 11.9265 2 9.84572 2C7.76491 2 5.76932 2.8266 4.29796 4.29796C2.8266 5.76932 2 7.76491 2 9.84572C2 11.9265 2.8266 13.9221 4.29796 15.3935C5.76932 16.8648 7.76491 17.6914 9.84572 17.6914H41.2286C43.3094 17.6914 45.305 16.8648 46.7764 15.3935C48.2477 13.9221 49.0743 11.9265 49.0743 9.84572C49.0743 7.76491 48.2477 5.76932 46.7764 4.29796C45.305 2.8266 43.3094 2 41.2286 2Z" stroke="#7FBE3F" stroke-width="4" stroke-linecap="round" stroke-linejoin="round"/>
</svg>
