<svg width="519" height="165" viewBox="0 0 519 165" fill="none" xmlns="http://www.w3.org/2000/svg">
<path d="M0 87C0 44.4741 34.4741 10 77 10H441C483.526 10 518 44.4741 518 87V87C518 129.526 483.526 164 441 164H77C34.4741 164 0 129.526 0 87V87Z" fill="url(#paint0_linear_1_1765)"/>
<mask id="mask0_1_1765" style="mask-type:alpha" maskUnits="userSpaceOnUse" x="380" y="0" width="139" height="165">
<path d="M380 164.331C392 164.331 399.286 164.331 441.581 164.331C483.876 164.331 518.162 130.044 518.162 87.7498C518.162 67.1579 480.858 72.5931 480.858 53.4479C480.858 -0.79707 464.081 0.000651202 442.379 0.000651202C420.676 0.000651202 396.892 -0.209087 396.892 48.8507C396.892 79.5629 380 143.739 380 164.331Z" fill="white"/>
</mask>
<g mask="url(#mask0_1_1765)">
<path fill-rule="evenodd" clip-rule="evenodd" d="M394.217 101.481C396.316 91.5322 403.762 83.8115 413.775 79.9651C415.7 78.8756 417.565 74.2031 420.153 73.3469C420.567 73.2102 419.913 74.3019 420.153 74.367C421.008 74.5997 421.967 74.624 422.911 73.7836C424.599 72.2831 425.129 67.8977 426.155 65.9162C431.568 55.463 445.084 59.5528 446.894 71.1084C448.157 71.9316 449.941 72.6568 451.315 73.3197C452.73 74.0027 453.975 75.6577 455.434 76.2491C456.735 76.7766 458.879 76.403 460.19 76.8633C466.221 78.9794 471.328 81.6496 475.333 87.0601C476.177 88.2012 477.128 89.6036 477.896 90.7569C481.854 95.3156 484.604 100.425 487.136 105.907C494.221 121.998 496.148 139.814 497.877 157.151C497.838 160.184 499.85 168.596 496.874 170.05C497.052 170.234 496.987 170.605 496.657 170.602C489.112 170.526 481.583 171.201 474.154 172.514C470.57 173.149 467.005 174.018 463.354 174.16C455.776 174.108 448.224 172.837 440.655 174.04C431.556 174.04 420.498 173.774 410.375 173.385C400.915 173.021 391.404 173.843 382.06 172.234C381.321 172.116 380.96 171.214 381.115 170.567C382.211 166.572 382.749 162.459 383.365 158.369C383.242 155.746 383.461 153.008 384.431 150.564C386.966 134.07 390.216 117.683 394.217 101.481Z" fill="white"/>
<path fill-rule="evenodd" clip-rule="evenodd" d="M397.27 123.161C397.469 124.131 397.749 125.101 398.121 126.02C398.479 126.906 399.019 127.7 399.391 128.576C399.442 128.694 399.523 128.784 399.621 128.852L399.59 129.09L399.563 129.328C399.377 130.936 399.168 132.54 398.988 134.148L398.9 134.952C398.545 138.31 397.983 141.65 397.548 144.998C397.121 148.277 396.687 151.555 396.223 154.83C395.743 158.205 395.255 161.576 394.685 164.938C394.444 166.358 394.193 167.776 393.932 169.195L393.729 170.279C391.648 170.78 391.079 173.682 393.198 174.753C394.16 175.237 395.395 175.12 396.189 174.36C397.012 173.567 397.046 172.137 397.237 171.063L397.421 170.064C398.799 162.56 399.996 154.968 400.555 147.357C400.699 145.392 400.82 143.425 400.898 141.457C400.973 139.605 400.937 137.753 400.966 135.902L400.975 135.397C401.019 133.422 400.983 131.451 400.931 129.477C400.925 129.236 400.915 128.995 400.903 128.754C400.972 128.672 401.022 128.575 401.043 128.481L401.07 128.357C401.138 128.038 401.062 127.664 400.816 127.436C400.71 126.09 400.571 124.747 400.533 123.403C400.53 123.293 400.371 123.296 400.362 123.403C400.273 124.547 400.095 125.694 399.916 126.839C398.769 125.917 397.92 124.395 397.419 123.12C397.383 123.028 397.248 123.062 397.27 123.161ZM424.43 69.6892C424.239 70.5604 423.862 71.3428 423.357 72.0709C423.117 72.4188 422.843 72.7423 422.515 73.0129C422.233 73.2442 421.913 73.3959 421.614 73.5971C421.178 73.5291 420.723 73.6937 420.417 74.0145L420.465 73.5456C420.481 73.3945 420.23 73.3644 420.2 73.5105C418.877 80.1867 417.671 86.8665 416.626 93.5899L416.169 96.5594L415.738 99.347C415.023 103.992 414.33 108.635 413.809 113.314C413.115 119.559 412.531 125.82 412.105 132.089C411.677 138.403 411.414 144.722 411.226 151.047C411.18 152.642 411.13 154.235 411.081 155.83L410.758 153.924C410.436 152.016 410.12 150.108 409.848 148.192C408.876 141.337 408.099 134.433 407.719 127.519C407.371 121.192 407.487 114.738 409.097 108.575C409.502 107.024 409.999 105.497 410.597 104.009C411.178 102.563 411.97 101.223 412.595 99.798C413.321 98.1393 413.539 96.5751 413.165 94.7897C412.838 93.2342 412.265 91.7716 412.163 90.1702C411.97 87.1986 412.936 84.3208 414.302 81.7208C414.662 81.035 415.042 80.3585 415.438 79.6884C416.638 77.6625 417.99 75.7103 419.393 73.8391C419.469 73.7395 419.308 73.6286 419.227 73.7109C417.948 74.9759 416.549 76.2193 415.398 77.6002C414.838 78.2724 414.292 78.9575 413.775 79.6612C408.1 80.6098 403.224 84.1454 399.891 88.8151C396.108 94.1132 394.195 100.491 392.78 106.771C391.205 113.75 389.877 120.794 388.463 127.808C386.999 135.065 385.543 142.324 384.07 149.58C383.337 153.182 382.606 156.785 381.875 160.389C381.505 162.213 381.116 164.034 380.709 165.852C380.5 166.784 380.276 167.715 380.083 168.65C379.865 169.704 380.068 170.379 380.782 171.154C381.044 171.441 381.46 171.437 381.787 171.283L381.889 171.235L381.988 171.188C382.392 170.989 382.71 170.783 382.961 170.341C383.238 169.855 383.281 169.317 383.377 168.776C383.552 167.783 383.726 166.788 383.901 165.793C384.163 164.304 384.448 162.82 384.739 161.336L386.194 153.919C386.582 151.941 386.971 149.963 387.362 147.987C388.758 140.918 390.155 133.851 391.553 126.783C392.894 119.998 394.082 113.165 395.609 106.418L395.696 106.038L395.784 105.659C397.15 99.8431 399.059 94.217 402.521 89.2883C405.186 85.4985 408.887 82.1138 413.245 80.4007C412.938 80.8431 412.643 81.2934 412.362 81.7537C410.596 84.6408 409.306 88.0677 409.608 91.5053C409.756 93.1848 410.394 94.8348 410.334 96.5279C410.278 98.0319 409.348 99.3527 408.705 100.661C407.245 103.627 406.19 106.778 405.509 110.012C404.143 116.504 404.148 123.184 404.619 129.774C405.13 136.939 406.101 144.101 407.206 151.195C407.774 154.834 408.528 158.443 409.106 162.076C409.391 163.867 409.78 165.654 410.121 167.436L410.283 168.287C410.374 168.76 410.468 169.231 410.577 169.697L410.644 169.976V170.026C410.647 170.37 410.741 170.654 410.892 170.881C411.099 171.545 411.357 172.193 411.698 172.815C411.873 173.133 412.128 173.311 412.405 173.376C412.683 174.013 413.314 174.503 414.066 174.501L423.972 174.463C429.724 174.44 435.478 174.402 441.231 174.37C442.682 174.362 444.133 174.335 445.583 174.298C446.943 174.26 448.247 174.096 449.591 173.927C451.11 173.736 451.933 172.661 451.706 171.143C451.656 170.809 451.601 170.476 451.55 170.143C451.853 170.243 452.212 170.196 452.455 169.958L452.684 169.735C453 169.421 453.284 169.114 453.484 168.696C453.692 168.267 453.859 167.813 454.042 167.374C454.437 166.43 454.821 165.483 455.195 164.531C455.943 162.628 456.692 160.717 457.388 158.794C458.766 154.986 459.985 151.12 461.045 147.21C462.935 140.235 464.303 133.126 465.165 125.953L465.371 124.244L465.431 123.738C465.758 120.958 466.033 118.134 465.903 115.36C465.822 113.624 465.553 111.873 464.904 110.251C464.306 108.755 463.382 107.475 462.503 106.137L462.402 105.983L462.301 105.825C461.533 104.61 460.921 103.34 460.891 101.865C460.86 100.367 461.296 98.9103 461.783 97.5086L461.904 97.1629L461.986 96.9345C463.023 94.0374 464.203 91.1817 463.814 88.0298C463.239 83.3881 460.426 79.6462 456.887 76.7605C460.035 77.3841 463.15 78.6154 465.9 80.1774C469.147 82.0229 472.07 84.459 474.591 87.2079C479.356 92.4037 482.757 98.6375 485.541 105.073C488.456 111.81 490.617 118.867 492.246 126.018C493.883 133.209 494.98 140.515 495.729 147.85C496.102 151.501 496.396 155.161 496.639 158.823C496.763 160.699 496.857 162.578 497.002 164.451C497.147 166.322 497.212 168.223 497.669 170.044C497.882 170.893 499.321 170.98 499.475 170.044C499.817 167.956 499.721 165.797 499.626 163.682L499.617 163.49C499.523 161.384 499.401 159.28 499.256 157.175C498.959 152.873 498.563 148.578 498.046 144.297C496.232 129.266 492.888 114.315 486.329 100.595C483.241 94.1333 479.277 87.8544 473.763 83.1883C471.137 80.9684 468.177 79.1966 464.988 77.9138C462.135 76.7655 459.237 76.2222 456.206 76.2236C454.687 75.0589 453.055 74.0438 451.425 73.1762C451.326 73.1239 451.223 73.2506 451.305 73.3322C451.347 73.373 451.388 73.4153 451.43 73.4546C451.246 73.4668 451.055 73.5534 450.885 73.7331C450.286 74.3609 449.78 75.1462 449.328 75.9616C448.64 76.8214 447.984 77.7091 447.297 78.5595C446.197 79.9211 445.073 81.2634 443.934 82.5949C442.021 84.8327 440.046 87.0275 437.985 89.1344L437.642 89.4851C436.574 90.5668 435.493 91.8618 434.23 92.718L434.163 92.7631C433.629 93.1103 433.252 93.1733 432.798 92.655C432.385 92.1825 432.041 91.6349 431.687 91.1145L431.606 90.9949C429.802 88.3734 428.129 85.6545 426.615 82.8555C425.925 81.5812 425.268 80.2891 424.645 78.9826L424.46 78.5903C424.121 77.8701 423.753 77.1636 423.473 76.4219C423.409 76.248 423.345 76.074 423.283 75.9015C424.236 75.2765 424.974 73.9243 425.242 72.8648C425.52 71.7652 425.379 70.6363 424.884 69.6305C424.79 69.4407 424.475 69.488 424.43 69.6892ZM471.433 114.387C471.565 118.57 471.645 122.756 471.842 126.934L471.91 128.361C471.603 128.703 471.423 129.099 471.567 129.64C471.622 129.847 471.787 130.035 471.993 130.104L472.057 131.431C472.349 137.399 472.691 143.354 473.317 149.308C474.098 156.758 475.003 164.195 475.906 171.632C476.034 172.685 476.766 173.52 477.905 173.366C479.057 173.21 479.525 172.206 479.374 171.161C478.779 167.06 478.208 162.954 477.707 158.839L477.137 154.15C476.422 148.29 475.69 142.43 474.847 136.587C474.494 134.145 474.129 131.705 473.761 129.265L473.89 129.099C474.415 128.416 474.957 127.749 475.494 127.077C476.526 125.782 477.544 124.497 478.489 123.142C478.536 123.074 478.44 122.974 478.373 123.025C477.048 124.004 475.794 125.051 474.532 126.115L473.428 127.05C472.793 122.833 472.164 118.615 471.603 114.387C471.589 114.281 471.43 114.274 471.433 114.387ZM452.376 74.3659C453.173 75.1176 453.988 75.8528 454.791 76.6002L455.086 76.8758L455.378 77.1521C456.79 78.4908 458.142 79.8853 459.269 81.486C461.338 84.4254 462.571 88.0097 461.71 91.5991C460.996 94.5714 459.358 97.2667 458.918 100.313C458.698 101.84 458.805 103.374 459.38 104.816C459.967 106.287 460.904 107.547 461.747 108.875C463.577 111.758 463.826 114.923 463.645 118.264C463.454 121.753 463.053 125.243 462.559 128.701C461.558 135.705 460.048 142.638 458.05 149.427C457.051 152.827 455.869 156.153 454.694 159.494C454.109 161.157 453.427 162.781 452.724 164.397C452.353 165.247 451.974 166.093 451.588 166.937C451.73 165.745 451.73 164.521 451.8 163.336C451.899 161.638 452.027 159.944 452.143 158.247C452.38 154.806 452.592 151.361 452.781 147.915C453.451 135.63 453.944 123.334 453.908 111.029C453.889 104.876 453.764 98.722 453.499 92.5748C453.375 89.6798 453.135 86.7877 452.918 83.897L452.872 83.2771C452.679 80.6828 452.45 78.082 452.055 75.5099C452.172 75.2457 452.274 74.9787 452.349 74.7045L452.376 74.6015L452.356 74.605C452.374 74.5241 452.38 74.4447 452.376 74.3659ZM445.482 63.7932C445.466 63.7217 445.364 63.7281 445.346 63.7932C444.897 65.3059 445.055 66.9703 445.443 68.4922C445.651 69.3169 445.947 70.1172 446.306 70.889L446.431 71.1588C446.738 71.816 447.084 72.4932 447.683 72.9027C447.932 73.0738 448.379 73.0845 448.628 72.9027L448.755 72.8061C448.776 72.7896 448.797 72.7731 448.817 72.7559C449.05 72.5605 449.165 72.1296 449.057 71.8454C448.781 71.1116 448.153 70.5725 447.719 69.9189C447.335 69.3384 446.994 68.7256 446.712 68.0885C446.102 66.7097 445.829 65.2472 445.482 63.7932Z" fill="black"/>
<path fill-rule="evenodd" clip-rule="evenodd" d="M427.829 74.5427C430.96 74.5341 433.825 73.9234 436.544 72.5876C439.827 71.516 443.412 70.9325 446.076 68.5601C447.373 68.8357 448.703 67.5035 449.779 66.7096C451.535 73.1711 460.67 72.0965 464.53 67.9209C466.891 65.9257 467.84 60.9912 463.74 59.6855C470.458 55.1211 472.885 47.2358 472.423 38.7037C471.937 24.391 460.938 9.51102 446.801 7.02852C444.012 6.53772 441.148 6.58955 438.371 7.17327C436.82 7.5098 435.322 8.16217 433.661 8.13254C427.225 7.11471 420.156 7.23169 414.839 11.3527C406.342 17.0398 405.161 28.419 406.154 37.5677L406.114 37.6533C406.608 41.0116 407.428 44.0874 408.981 46.1119C409.102 49.0226 410.113 55.2363 410.188 57.6932C410.007 69.1235 416.496 74.1969 427.829 74.5427Z" fill="white"/>
<path fill-rule="evenodd" clip-rule="evenodd" d="M465.221 59.5285C485.57 41.5414 464.694 1.0624 438.217 6.43308C435.537 7.33078 432.816 7.64225 430.041 6.97714C416.056 4.79251 404.615 16.6637 405.207 30.3979C405.108 32.7469 405.127 35.0981 405.381 37.4378C405.671 40.5131 406.464 43.8023 408.232 46.3586C408.252 48.076 409.263 54.5174 409.425 57.5477L409.456 58.1805C409.617 61.2953 409.964 64.4716 411.333 67.3115C415.542 74.9405 426.383 76.5777 434.157 74.3556L434.481 74.249C435.925 73.7686 437.562 73.1294 438.478 71.9188C438.963 71.2803 438.161 70.4642 437.494 70.6374C436.635 70.8615 435.923 71.3855 435.121 71.757C429.893 74.0693 423.708 73.2947 418.546 71.1356L418.39 71.0698C409.145 67.3158 411.677 53.9619 410.46 46.3472C410.184 36.678 418.245 30.0935 424.319 23.6983L424.501 23.4957C425.125 22.8035 425.784 22.1287 426.651 21.9811C426.889 22.7023 427.474 23.3162 428.016 23.8422L429.241 25.1674C430.467 26.4911 431.696 27.8093 432.942 29.1157C438.993 35.2644 445.157 43.6126 454.484 44.2411C453.91 44.7601 453.408 45.3528 452.807 45.8418C452.554 46.0952 452.812 46.5211 453.152 46.4345C453.786 46.272 454.191 45.6707 454.607 45.2011C459.645 43.0857 463.781 50.9023 459.514 54.1387C457.93 55.8153 453.304 54.5396 454.374 56.607C453.206 60.2702 451.409 63.9547 448.369 66.4045C447.477 67.0788 446.082 67.4203 445.49 68.4125C445.347 68.6523 445.42 69.0424 445.688 69.1699C446.98 69.7719 448.367 68.759 449.359 67.9958C454.597 78.2385 473.804 66.922 465.221 59.5285ZM434.096 9.47961L434.62 9.37695C440.217 8.26943 443.906 7.17293 449.822 9.17536C463.009 13.5816 471.511 27.6178 471.143 41.2601C471.135 49.0102 467.294 58.8921 458.644 59.9924C457.336 60.0962 457.315 62.1264 458.604 62.0656L458.644 62.0634C460.776 61.9303 462.84 61.1564 464.6 59.9666C466.96 63.7908 464.594 67.2614 460.917 68.905C457.19 70.8722 453.206 70.2451 450.716 66.7695C452.989 64.244 454.664 60.4685 455.051 57.1203C461.434 59.5972 466.247 50.467 462.095 45.6249C460.633 43.541 457.797 42.2381 455.459 43.7178C445.398 39.8456 438.374 31.6161 431.649 23.5547L431.29 23.1462C430.112 21.8159 427.405 18.8107 427.104 18.4222C426.767 17.9854 426.086 18.3786 426.077 18.8478C426.071 19.1814 426.09 19.5197 426.127 19.8572C424.875 20.665 423.861 21.8917 422.926 23.0241C415.955 28.4979 410.285 34.2308 408.522 42.9153C407.426 41.6362 406.93 39.9575 406.571 38.3542C405.82 27.7778 407.839 15.1127 418.747 10.5246C423.989 7.92302 428.666 9.1153 434.096 9.47961ZM458.832 49.2006C459.286 48.7955 456.285 48.7461 456.002 49.0639L455.937 49.0861C454.863 49.4641 452.896 50.6825 453.861 51.9467C455.239 53.2453 456.198 49.3903 458.832 49.2006Z" fill="#221E1F"/>
<path fill-rule="evenodd" clip-rule="evenodd" d="M425.216 62.2189C426.233 61.8044 427.141 61.1122 427.804 60.2281C428.034 59.9203 428.094 59.596 428.046 59.2989C427.991 58.9653 427.794 58.6625 427.524 58.4599C427.254 58.2566 426.917 58.1556 426.59 58.2072C426.307 58.2516 426.024 58.4069 425.801 58.729L425.754 58.7935C425.36 59.3275 424.846 59.7649 424.26 60.0477C423.696 60.3197 423.065 60.4464 422.412 60.3727C421.168 60.2324 420.311 59.5595 419.399 58.6453C419.287 58.53 419.174 58.4112 419.06 58.2902C418.988 58.1807 418.889 58.1098 418.779 58.0733C418.655 58.0318 418.517 58.0346 418.39 58.079C418.267 58.1213 418.157 58.2029 418.084 58.311C418.014 58.4133 417.975 58.5401 417.988 58.6861C418.071 59.6325 418.566 60.4779 419.269 61.1415C420.049 61.8789 421.084 62.3886 422.059 62.5675C423.132 62.7644 424.226 62.6234 425.216 62.2189ZM421.553 47.6094C420.41 48.3038 418.67 49.9231 419.899 51.6448C421.345 53.1631 423.427 51.4229 424.453 50.6354C425.405 50.0255 426.473 51.5947 425.591 52.307C418.177 57.7984 415.168 47.7912 420.975 46.7933C421.614 46.6831 421.852 47.3947 421.553 47.6094ZM434.839 41.2216C434.713 39.6547 432.327 39.2989 432.09 40.8494C431.878 42.2382 432.128 43.5139 432.753 44.7645C433.351 45.9593 434.853 45.4024 434.967 44.3143C435.118 42.856 434.918 42.196 434.839 41.2216ZM416.68 40.5279C416.348 40.0922 415.868 39.7947 415.292 39.9628C413.495 40.4883 414.024 43.0414 414.656 44.2835C414.999 44.9585 416.108 45.1296 416.609 44.5355C417.426 43.5669 417.816 41.6316 416.778 40.6773C416.75 40.628 416.719 40.5781 416.68 40.5279ZM432.778 34.3654L432.495 34.3156C431.616 34.1636 430.524 34.0176 429.902 34.7241C429.573 35.0987 429.459 35.795 429.902 36.1535C430.682 36.7844 431.543 36.54 432.477 36.5934C433.246 36.6375 433.986 36.765 434.727 36.9769C436.353 37.4419 437.678 38.2906 439.067 39.2227C439.25 39.3449 439.436 39.1117 439.348 38.9412C438.547 37.3703 436.993 36.0799 435.437 35.2933C434.606 34.8734 433.697 34.5251 432.778 34.3654ZM418.319 33.6616L418.102 33.7061C415.737 34.2007 412.664 35.1886 411.544 37.5124C411.502 37.841 411.547 37.9114 411.583 37.9575L411.596 37.9728C411.626 38.0121 411.65 38.0662 411.792 38.111C411.832 38.1015 411.872 38.0916 411.912 38.081C412.425 37.9464 412.831 37.761 413.225 37.5686L413.651 37.3585C414.145 37.1159 414.644 36.8821 415.173 36.7095C416.302 36.3412 417.463 36.0818 418.642 35.9433C418.897 35.9133 419.143 35.827 419.338 35.6791C419.522 35.5388 419.662 35.3445 419.726 35.0863C419.809 34.7521 419.786 34.499 419.607 34.1975C419.472 33.9711 419.279 33.8141 419.057 33.724C418.832 33.6321 418.575 33.6104 418.319 33.6616Z" fill="black"/>
</g>
<defs>
<linearGradient id="paint0_linear_1_1765" x1="397.489" y1="27.0746" x2="400.105" y2="111.058" gradientUnits="userSpaceOnUse">
<stop stop-color="#F0995A"/>
<stop offset="1" stop-color="#F3802D"/>
</linearGradient>
</defs>
</svg>
