<svg width="1920" height="62" viewBox="0 0 1920 62" fill="none" xmlns="http://www.w3.org/2000/svg">
<path d="M752.477 59.8635C768.563 59.8635 781.603 46.8237 781.603 30.7383C781.603 14.6529 768.563 1.61304 752.477 1.61304C736.392 1.61304 723.352 14.6529 723.352 30.7383C723.352 46.8237 736.392 59.8635 752.477 59.8635Z" stroke="#C5C5C5" stroke-width="2" stroke-linecap="round" stroke-linejoin="round"/>
<path d="M759.206 19.0881L775.923 48.0386" stroke="#C5C5C5" stroke-width="2" stroke-linecap="round" stroke-linejoin="round"/>
<path d="M745.75 19.0881H779.185" stroke="#C5C5C5" stroke-width="2" stroke-linecap="round" stroke-linejoin="round"/>
<path d="M739.021 30.7383L755.739 1.78784" stroke="#C5C5C5" stroke-width="2" stroke-linecap="round" stroke-linejoin="round"/>
<path d="M745.75 42.3885L729.032 13.438" stroke="#C5C5C5" stroke-width="2" stroke-linecap="round" stroke-linejoin="round"/>
<path d="M759.206 42.3884H725.77" stroke="#C5C5C5" stroke-width="2" stroke-linecap="round" stroke-linejoin="round"/>
<path d="M765.933 30.7383L749.215 59.6888" stroke="#C5C5C5" stroke-width="2" stroke-linecap="round" stroke-linejoin="round"/>
<path d="M1516.29 59.8635C1532.37 59.8635 1545.41 46.8237 1545.41 30.7383C1545.41 14.6529 1532.37 1.61304 1516.29 1.61304C1500.2 1.61304 1487.16 14.6529 1487.16 30.7383C1487.16 46.8237 1500.2 59.8635 1516.29 59.8635Z" stroke="#C5C5C5" stroke-width="2" stroke-linecap="round" stroke-linejoin="round"/>
<path d="M1523.01 19.0881L1539.73 48.0386" stroke="#C5C5C5" stroke-width="2" stroke-linecap="round" stroke-linejoin="round"/>
<path d="M1509.56 19.0881H1542.99" stroke="#C5C5C5" stroke-width="2" stroke-linecap="round" stroke-linejoin="round"/>
<path d="M1502.83 30.7383L1519.55 1.78784" stroke="#C5C5C5" stroke-width="2" stroke-linecap="round" stroke-linejoin="round"/>
<path d="M1509.56 42.3885L1492.84 13.438" stroke="#C5C5C5" stroke-width="2" stroke-linecap="round" stroke-linejoin="round"/>
<path d="M1523.01 42.3884H1489.58" stroke="#C5C5C5" stroke-width="2" stroke-linecap="round" stroke-linejoin="round"/>
<path d="M1529.74 30.7383L1513.02 59.6888" stroke="#C5C5C5" stroke-width="2" stroke-linecap="round" stroke-linejoin="round"/>
<path d="M-11.0671 59.8635C5.01831 59.8635 18.0581 46.8237 18.0581 30.7383C18.0581 14.6529 5.01831 1.61304 -11.0671 1.61304C-27.1526 1.61304 -40.1924 14.6529 -40.1924 30.7383C-40.1924 46.8237 -27.1526 59.8635 -11.0671 59.8635Z" stroke="#C5C5C5" stroke-width="2" stroke-linecap="round" stroke-linejoin="round"/>
<path d="M-4.33936 19.0881L12.3785 48.0386" stroke="#C5C5C5" stroke-width="2" stroke-linecap="round" stroke-linejoin="round"/>
<path d="M-17.7949 19.0881H15.6409" stroke="#C5C5C5" stroke-width="2" stroke-linecap="round" stroke-linejoin="round"/>
<path d="M2.3888 30.7383L-14.3291 59.6888" stroke="#C5C5C5" stroke-width="2" stroke-linecap="round" stroke-linejoin="round"/>
<path d="M969.642 42.3885V19.0883C969.641 18.0668 969.372 17.0636 968.86 16.1792C968.349 15.2948 967.614 14.5604 966.73 14.0497L946.342 2.39955C945.457 1.88829 944.452 1.61914 943.43 1.61914C942.407 1.61914 941.403 1.88829 940.517 2.39955L920.129 14.0497C919.245 14.5604 918.51 15.2948 917.999 16.1792C917.487 17.0636 917.218 18.0668 917.217 19.0883V42.3885C917.218 43.41 917.487 44.4133 917.999 45.2977C918.51 46.182 919.245 46.9164 920.129 47.4272L940.517 59.0773C941.403 59.5886 942.407 59.8577 943.43 59.8577C944.452 59.8577 945.457 59.5886 946.342 59.0773L966.73 47.4272C967.614 46.9164 968.349 46.182 968.86 45.2977C969.372 44.4133 969.641 43.41 969.642 42.3885Z" stroke="#C5C5C5" stroke-width="2" stroke-linecap="round" stroke-linejoin="round"/>
<path d="M918.003 16.0591L943.429 30.7673L968.856 16.0591" stroke="#C5C5C5" stroke-width="2" stroke-linecap="round" stroke-linejoin="round"/>
<path d="M943.429 60.0965V30.7383" stroke="#C5C5C5" stroke-width="2" stroke-linecap="round" stroke-linejoin="round"/>
<path d="M1733.45 42.3885V19.0883C1733.45 18.0668 1733.18 17.0636 1732.67 16.1792C1732.16 15.2948 1731.42 14.5604 1730.54 14.0497L1710.15 2.39955C1709.26 1.88829 1708.26 1.61914 1707.24 1.61914C1706.21 1.61914 1705.21 1.88829 1704.32 2.39955L1683.94 14.0497C1683.05 14.5604 1682.32 15.2948 1681.81 16.1792C1681.3 17.0636 1681.03 18.0668 1681.02 19.0883V42.3885C1681.03 43.41 1681.3 44.4133 1681.81 45.2977C1682.32 46.182 1683.05 46.9164 1683.94 47.4272L1704.32 59.0773C1705.21 59.5886 1706.21 59.8577 1707.24 59.8577C1708.26 59.8577 1709.26 59.5886 1710.15 59.0773L1730.54 47.4272C1731.42 46.9164 1732.16 46.182 1732.67 45.2977C1733.18 44.4133 1733.45 43.41 1733.45 42.3885Z" stroke="#C5C5C5" stroke-width="2" stroke-linecap="round" stroke-linejoin="round"/>
<path d="M1681.81 16.0591L1707.24 30.7673L1732.66 16.0591" stroke="#C5C5C5" stroke-width="2" stroke-linecap="round" stroke-linejoin="round"/>
<path d="M1707.24 60.0965V30.7383" stroke="#C5C5C5" stroke-width="2" stroke-linecap="round" stroke-linejoin="round"/>
<path d="M206.097 42.3885V19.0883C206.096 18.0668 205.827 17.0636 205.315 16.1792C204.804 15.2948 204.069 14.5604 203.185 14.0497L182.797 2.39955C181.912 1.88829 180.907 1.61914 179.885 1.61914C178.862 1.61914 177.858 1.88829 176.972 2.39955L156.584 14.0497C155.7 14.5604 154.965 15.2948 154.454 16.1792C153.943 17.0636 153.673 18.0668 153.672 19.0883V42.3885C153.673 43.41 153.943 44.4133 154.454 45.2977C154.965 46.182 155.7 46.9164 156.584 47.4272L176.972 59.0773C177.858 59.5886 178.862 59.8577 179.885 59.8577C180.907 59.8577 181.912 59.5886 182.797 59.0773L203.185 47.4272C204.069 46.9164 204.804 46.182 205.315 45.2977C205.827 44.4133 206.096 43.41 206.097 42.3885Z" stroke="#C5C5C5" stroke-width="2" stroke-linecap="round" stroke-linejoin="round"/>
<path d="M154.458 16.0591L179.885 30.7673L205.311 16.0591" stroke="#C5C5C5" stroke-width="2" stroke-linecap="round" stroke-linejoin="round"/>
<path d="M179.885 60.0965V30.7383" stroke="#C5C5C5" stroke-width="2" stroke-linecap="round" stroke-linejoin="round"/>
<path d="M1134.38 19.0882C1139.21 19.0882 1143.12 15.1762 1143.12 10.3506C1143.12 5.52498 1139.21 1.61304 1134.38 1.61304C1129.56 1.61304 1125.64 5.52498 1125.64 10.3506C1125.64 15.1762 1129.56 19.0882 1134.38 19.0882Z" stroke="#C5C5C5" stroke-width="2" stroke-linecap="round" stroke-linejoin="round"/>
<path d="M1134.38 59.8635V19.0881" stroke="#C5C5C5" stroke-width="2" stroke-linecap="round" stroke-linejoin="round"/>
<path d="M1113.99 30.7383H1105.26C1105.26 38.4628 1108.32 45.8709 1113.79 51.3329C1119.25 56.795 1126.66 59.8635 1134.38 59.8635C1142.11 59.8635 1149.51 56.795 1154.98 51.3329C1160.44 45.8709 1163.51 38.4628 1163.51 30.7383H1154.77" stroke="#C5C5C5" stroke-width="2" stroke-linecap="round" stroke-linejoin="round"/>
<path d="M1898.19 19.0882C1903.01 19.0882 1906.93 15.1762 1906.93 10.3506C1906.93 5.52498 1903.01 1.61304 1898.19 1.61304C1893.36 1.61304 1889.45 5.52498 1889.45 10.3506C1889.45 15.1762 1893.36 19.0882 1898.19 19.0882Z" stroke="#C5C5C5" stroke-width="2" stroke-linecap="round" stroke-linejoin="round"/>
<path d="M1898.19 59.8635V19.0881" stroke="#C5C5C5" stroke-width="2" stroke-linecap="round" stroke-linejoin="round"/>
<path d="M1877.8 30.7383H1869.06C1869.06 38.4628 1872.13 45.8709 1877.59 51.3329C1883.06 56.795 1890.46 59.8635 1898.19 59.8635C1905.91 59.8635 1913.32 56.795 1918.78 51.3329C1924.25 45.8709 1927.31 38.4628 1927.31 30.7383H1918.58" stroke="#C5C5C5" stroke-width="2" stroke-linecap="round" stroke-linejoin="round"/>
<path d="M370.837 19.0882C375.663 19.0882 379.575 15.1762 379.575 10.3506C379.575 5.52498 375.663 1.61304 370.837 1.61304C366.012 1.61304 362.1 5.52498 362.1 10.3506C362.1 15.1762 366.012 19.0882 370.837 19.0882Z" stroke="#C5C5C5" stroke-width="2" stroke-linecap="round" stroke-linejoin="round"/>
<path d="M370.837 59.8635V19.0881" stroke="#C5C5C5" stroke-width="2" stroke-linecap="round" stroke-linejoin="round"/>
<path d="M350.449 30.7383H341.711C341.711 38.4628 344.78 45.8709 350.242 51.3329C355.704 56.795 363.112 59.8635 370.837 59.8635C378.561 59.8635 385.969 56.795 391.431 51.3329C396.893 45.8709 399.962 38.4628 399.962 30.7383H391.224" stroke="#C5C5C5" stroke-width="2" stroke-linecap="round" stroke-linejoin="round"/>
<path d="M1351.55 42.3885V19.0883C1351.54 18.0668 1351.27 17.0636 1350.76 16.1792C1350.25 15.2948 1349.52 14.5604 1348.63 14.0497L1328.25 2.39955C1327.36 1.88829 1326.36 1.61914 1325.33 1.61914C1324.31 1.61914 1323.31 1.88829 1322.42 2.39955L1302.03 14.0497C1301.15 14.5604 1300.41 15.2948 1299.9 16.1792C1299.39 17.0636 1299.12 18.0668 1299.12 19.0883V42.3885C1299.12 43.41 1299.39 44.4133 1299.9 45.2977C1300.41 46.182 1301.15 46.9164 1302.03 47.4272L1322.42 59.0773C1323.31 59.5886 1324.31 59.8577 1325.33 59.8577C1326.36 59.8577 1327.36 59.5886 1328.25 59.0773L1348.63 47.4272C1349.52 46.9164 1350.25 46.182 1350.76 45.2977C1351.27 44.4133 1351.54 43.41 1351.55 42.3885Z" stroke="#C5C5C5" stroke-width="2" stroke-linecap="round" stroke-linejoin="round"/>
<path d="M1312.23 8.0498L1325.33 15.6224L1338.44 8.0498" stroke="#C5C5C5" stroke-width="2" stroke-linecap="round" stroke-linejoin="round"/>
<path d="M1312.23 53.4269V38.3108L1299.12 30.7383" stroke="#C5C5C5" stroke-width="2" stroke-linecap="round" stroke-linejoin="round"/>
<path d="M1351.55 30.7383L1338.44 38.3108V53.4269" stroke="#C5C5C5" stroke-width="2" stroke-linecap="round" stroke-linejoin="round"/>
<path d="M1299.91 16.0591L1325.33 30.7673L1350.76 16.0591" stroke="#C5C5C5" stroke-width="2" stroke-linecap="round" stroke-linejoin="round"/>
<path d="M1325.33 60.0965V30.7383" stroke="#C5C5C5" stroke-width="2" stroke-linecap="round" stroke-linejoin="round"/>
<path d="M588.002 42.3885V19.0883C588.001 18.0668 587.731 17.0636 587.22 16.1792C586.709 15.2948 585.974 14.5604 585.09 14.0497L564.702 2.39955C563.816 1.88829 562.812 1.61914 561.789 1.61914C560.767 1.61914 559.762 1.88829 558.877 2.39955L538.489 14.0497C537.605 14.5604 536.87 15.2948 536.359 16.1792C535.847 17.0636 535.578 18.0668 535.577 19.0883V42.3885C535.578 43.41 535.847 44.4133 536.359 45.2977C536.87 46.182 537.605 46.9164 538.489 47.4272L558.877 59.0773C559.762 59.5886 560.767 59.8577 561.789 59.8577C562.812 59.8577 563.816 59.5886 564.702 59.0773L585.09 47.4272C585.974 46.9164 586.709 46.182 587.22 45.2977C587.731 44.4133 588.001 43.41 588.002 42.3885Z" stroke="#C5C5C5" stroke-width="2" stroke-linecap="round" stroke-linejoin="round"/>
<path d="M548.683 8.0498L561.789 15.6224L574.895 8.0498" stroke="#C5C5C5" stroke-width="2" stroke-linecap="round" stroke-linejoin="round"/>
<path d="M548.683 53.4269V38.3108L535.576 30.7383" stroke="#C5C5C5" stroke-width="2" stroke-linecap="round" stroke-linejoin="round"/>
<path d="M588.001 30.7383L574.895 38.3108V53.4269" stroke="#C5C5C5" stroke-width="2" stroke-linecap="round" stroke-linejoin="round"/>
<path d="M536.362 16.0591L561.789 30.7673L587.215 16.0591" stroke="#C5C5C5" stroke-width="2" stroke-linecap="round" stroke-linejoin="round"/>
<path d="M561.789 60.0965V30.7383" stroke="#C5C5C5" stroke-width="2" stroke-linecap="round" stroke-linejoin="round"/>
</svg>
