<svg width="52" height="52" viewBox="0 0 52 52" fill="none" xmlns="http://www.w3.org/2000/svg">
<path d="M44.3667 18.4763H23.1833C20.5834 18.4763 18.4758 20.5839 18.4758 23.1838V44.3672C18.4758 46.967 20.5834 49.0746 23.1833 49.0746H44.3667C46.9666 49.0746 49.0742 46.967 49.0742 44.3672V23.1838C49.0742 20.5839 46.9666 18.4763 44.3667 18.4763Z" stroke="#7FBE3F" stroke-width="4" stroke-linecap="round" stroke-linejoin="round"/>
<path d="M9.06115 32.5983H6.70743C5.45894 32.5983 4.26159 32.1024 3.37878 31.2195C2.49596 30.3367 2 29.1394 2 27.8909V6.70743C2 5.45894 2.49596 4.26159 3.37878 3.37878C4.26159 2.49596 5.45894 2 6.70743 2H27.8909C29.1394 2 30.3367 2.49596 31.2195 3.37878C32.1024 4.26159 32.5983 5.45894 32.5983 6.70743V9.06115" stroke="#7FBE3F" stroke-width="4" stroke-linecap="round" stroke-linejoin="round"/>
</svg>
