<svg width="154" height="174" viewBox="0 0 154 174" fill="none" xmlns="http://www.w3.org/2000/svg">
<mask id="mask0_1_1400" style="mask-type:alpha" maskUnits="userSpaceOnUse" x="0" y="0" width="154" height="174">
<path d="M153.162 97.3218C153.162 139.616 118.876 173.903 76.5811 173.903C34.2865 173.903 0 139.616 0 97.3218C0 76.7298 37.3037 82.1651 37.3037 63.0199C37.3037 8.77492 54.0808 0 75.7834 0C97.486 0 123.836 8.77492 123.836 57.8347C123.836 88.5469 153.162 76.7298 153.162 97.3218Z" fill="white"/>
</mask>
<g mask="url(#mask0_1_1400)">
<path fill-rule="evenodd" clip-rule="evenodd" d="M25.858 171.691C44.1426 174.47 62.7587 174.61 81.1956 173.601C88.492 173.054 95.8108 172.956 103.101 173.654C107.409 173.975 126.298 175.42 127.841 171.56C126.87 151.005 124.903 130.276 118.868 110.508C116.386 103.489 114.254 97.6629 109.41 91.8544C107.884 90.2685 104.592 86.9423 102.705 85.8571C101.071 84.9178 100.388 85.253 99.4491 83.6657C98.5163 81.9122 97.8287 78.9841 96.5044 77.7473C95.1563 76.4873 93.1583 76.9378 90.6814 77.3439C91.1365 71.1929 88.2985 69.6262 84.3887 68.457C77.5163 65.833 70.7287 67.1513 68.9991 75.5208C65.7921 75.5208 63.9902 76.9013 62.0426 78.2283C61.2463 78.7701 61.8001 80.152 60.8495 80.578C59.0899 81.2047 55.9806 81.0517 54.2865 81.8228C46.5829 85.3298 39.7214 90.4162 35.2154 97.8437C25.1132 113.702 18.1739 147.108 19.3747 165.904C18.8486 166.73 19.5761 167.913 19.7611 168.801C19.9945 169.573 20.7504 170.086 21.5393 169.998C22.6402 171.183 24.3429 171.446 25.858 171.691Z" fill="white"/>
<path fill-rule="evenodd" clip-rule="evenodd" d="M101.54 85.3929C101.428 85.3306 101.527 85.1703 101.64 85.2233C107.063 87.7678 111.222 92.2328 114.15 97.3913C117.18 102.733 118.908 108.798 120.397 114.725L120.451 114.94C122.039 121.281 123.39 127.688 124.605 134.11C125.836 140.614 126.824 147.157 127.619 153.728C128.013 156.977 128.363 160.232 128.637 163.494C128.773 165.123 128.897 166.754 129.009 168.386C129.054 169.038 129.095 169.691 129.132 170.344L129.158 170.834C129.179 171.278 129.232 171.724 129.123 172.162C129.028 172.54 128.828 172.882 128.652 173.229C128.304 173.915 127.35 173.802 126.975 173.229L126.866 173.062C126.618 172.678 126.411 172.321 126.333 171.843C126.258 171.379 126.255 170.893 126.221 170.426C126.159 169.565 126.106 168.703 126.045 167.842C125.918 166.029 125.776 164.217 125.618 162.407C125.305 158.833 124.971 155.262 124.559 151.698C123.829 145.364 122.911 139.047 121.83 132.763C120.774 126.624 119.439 120.548 118.046 114.48L117.901 113.852C115.462 103.257 111.702 91.0556 101.54 85.3929ZM43.7824 126.881C43.8223 126.775 43.9939 126.751 44.0229 126.881C44.3882 128.527 44.4243 130.222 44.4801 131.906C44.5351 133.568 44.5329 135.236 44.5087 136.899C44.4194 143.01 44.2517 149.115 44.1067 155.225C44.0342 158.281 43.9662 161.337 43.914 164.394C43.8943 165.54 43.8777 166.686 43.8639 167.833L43.847 169.344C43.8386 170.013 43.8211 170.673 43.7396 171.341C43.6858 171.78 43.5714 172.2 43.329 172.576C43.1569 172.843 42.9118 172.979 42.6728 173.16L42.6281 173.195C42.3232 173.436 42.0022 173.438 41.7003 173.195L41.6126 173.126C41.3242 172.9 41.075 172.724 40.8909 172.367C40.6348 171.871 40.5938 171.332 40.5503 170.785C40.4842 169.957 40.528 169.115 40.5366 168.285C40.5537 166.616 40.5767 164.95 40.606 163.282C40.7133 157.168 40.9255 151.052 41.3122 144.949C41.4944 142.074 41.7414 139.189 42.0728 136.326L42.1358 135.79C42.2363 134.947 42.328 134.09 42.4313 133.229C40.8894 132.145 39.5341 130.828 38.3783 129.335C38.2932 129.225 38.4333 129.071 38.536 129.177C39.717 130.4 41.0711 131.376 42.5701 132.142C42.8158 130.341 43.1535 128.551 43.7824 126.881ZM69.5421 72.3768C69.5627 72.3609 69.5958 72.3537 69.6163 72.3768C69.9476 72.7637 69.8807 73.3546 69.8913 73.8442L69.8926 73.8899C69.9158 74.606 69.9204 75.3202 69.9184 76.0369L69.9105 78.3178C69.9098 78.6311 69.8846 78.9577 69.9005 79.2731L69.9085 79.3956C70.0827 79.5738 70.1635 79.8315 70.1046 80.0905C70.094 80.4224 69.9204 80.6993 69.6674 80.8736L70.2099 81.644L70.7531 82.4138C71.8727 84.0017 73.0048 85.5764 74.184 87.1212C75.387 88.6959 76.6702 90.2116 78.013 91.669C78.6689 92.3812 79.336 93.0834 80.0183 93.7697C80.2959 94.0486 80.5801 94.3208 80.8616 94.5958L81.1412 94.872C81.3068 95.0376 81.5148 95.2012 81.6241 95.4106C81.689 95.5345 81.7036 95.8392 81.7268 95.8895C81.9335 96.3447 81.5804 97.0714 80.9928 96.8442L81.0199 96.8263C81.1266 96.7521 81.0584 96.7507 80.8139 96.823C80.6602 96.8223 80.5158 96.7872 80.3807 96.717L80.3409 96.6951C80.1508 96.5984 79.9812 96.4116 79.8269 96.2619L79.7884 96.2254C79.436 95.8949 79.0995 95.5444 78.7616 95.1986C78.0554 94.4772 77.3658 93.7405 76.698 92.984C75.3658 91.4756 74.1025 89.9049 72.9061 88.2858C71.6879 86.637 70.5551 84.9033 69.5812 83.0988C69.2116 82.4138 68.8731 81.7155 68.5478 81.0094C67.9158 80.8066 67.7687 80.1336 67.8131 79.3757C67.5799 78.8325 67.3693 78.2774 67.2454 77.711C67.2282 77.6335 67.3282 77.5599 67.3878 77.6282C67.5899 77.858 67.7774 78.1025 67.9575 78.3536C68.0662 77.8223 68.2033 77.3334 68.2682 77.0214L68.5485 75.6454C66.9685 75.5633 65.2375 76.2125 64.1484 77.3486C64.0901 77.6447 63.8622 77.8567 63.6403 78.1336C63.3866 78.4496 63.1653 78.8047 63.0003 79.1757C62.6347 79.9985 62.8414 81.2108 62.1305 81.8143C62.057 81.8772 61.9742 81.9209 61.8887 81.9481C62.2259 83.6009 62.0729 85.4227 62.0656 87.1L62.065 87.2478C62.0669 89.1245 62.004 91.0032 61.9318 92.8787L61.8583 94.7355C61.7622 97.2112 61.7006 99.6881 61.9411 102.15C63.0388 101.177 64.1742 100.249 65.3488 99.3642C66.1205 98.7825 66.9082 98.2214 67.7104 97.6815L68.3616 97.2463C69.1427 96.7223 69.9423 96.183 70.7975 95.8081C71.9157 95.3178 72.979 95.4861 74.0588 95.9889C75.134 96.4904 76.1774 97.072 77.2313 97.6153C78.3045 98.1677 79.379 98.7149 80.4535 99.2641C81.165 99.6278 82.2077 99.9564 82.7291 100.626C82.7629 100.478 82.8013 100.33 82.847 100.183C82.7953 99.9584 82.8152 99.7159 82.9411 99.4847C84.6946 96.2612 86.317 92.9608 87.9281 89.6644C88.7436 87.9963 89.5193 86.3084 90.3361 84.641L91.1304 83.0173C91.2629 82.7463 91.3961 82.4761 91.5299 82.2064C91.7306 81.8023 91.9393 81.4022 92.142 80.9988C92.2274 80.8285 92.3348 80.6596 92.4182 80.488L92.458 80.4012C92.46 80.3972 92.6521 79.7918 92.5037 79.8494L92.4904 79.8554C92.4149 79.8984 92.354 79.803 92.403 79.7421C92.6137 79.4817 92.9065 79.7123 93.0264 79.9527C93.3563 80.6152 92.7508 81.6553 92.5183 82.2892L92.505 82.325C91.7823 84.3714 90.9641 86.3799 90.1255 88.3819C88.5177 92.2189 86.79 95.9969 85.0662 99.7822L85.0464 99.8471C85.4134 99.5655 85.8062 99.3098 86.1421 99.0607C86.99 98.4321 87.8625 97.8352 88.7336 97.2396C90.3308 96.1479 91.9717 95.1284 93.6398 94.1486L93.9737 93.9532C94.8064 93.4676 95.6318 93.0741 96.6209 93.2198C97.5397 93.355 98.3936 93.8485 99.2237 94.25L99.3098 94.291L101.874 95.5106C101.6 94.4169 101.303 93.3285 100.994 92.244C100.39 90.1288 99.7245 88.0314 99.0038 85.9533C98.3307 84.011 97.6033 82.0898 96.8335 80.1846L96.6017 79.6122C96.2877 78.8279 95.9756 77.9726 95.0787 77.7308C94.1824 77.4891 93.1542 77.8474 92.3348 77.336C92.2606 77.2896 92.2692 77.1671 92.3599 77.1446L92.8654 77.0167C93.8147 76.7809 94.9276 76.5431 95.8253 76.7729C96.8017 77.0233 97.6099 77.8428 98.0836 78.6954C98.6109 79.644 98.9819 80.7053 99.382 81.7169L99.4456 81.8759C99.904 83.0199 100.346 84.1713 100.768 85.3299C101.613 87.6459 102.382 89.9897 103.077 92.3547C103.412 93.4941 103.73 94.6395 104.036 95.7869C104.125 96.1174 104.27 96.5176 104.388 96.9349C104.525 97.0681 104.654 97.2165 104.774 97.386C104.976 97.6669 104.831 97.9962 104.582 98.1644C104.572 98.4513 104.508 98.7216 104.356 98.9534C103.76 99.8577 102.186 99.6245 102.25 98.4089C102.26 98.2227 102.332 98.0452 102.442 97.8948L102.439 97.871L102.426 97.8259C102.153 97.6954 101.878 97.549 101.589 97.4059L98.8971 96.0757C98.118 95.6902 97.2535 95.0946 96.387 94.9475C95.5788 94.8111 94.7262 95.4132 94.0313 95.7769L93.9863 95.8001C92.3076 96.6607 90.6415 97.5503 88.9814 98.4466C88.1712 98.8845 87.3716 99.341 86.5647 99.7835C85.8897 100.154 85.1616 100.686 84.4031 100.895C84.0785 101.147 83.6936 101.113 83.3849 100.923C83.526 101.799 83.5174 102.697 83.5605 103.593C83.6188 104.79 83.628 105.99 83.6473 107.188L83.6552 107.638C83.7062 110.287 83.7334 112.938 83.7433 115.588C83.7791 125.027 83.6751 134.467 83.6506 143.905C83.638 148.647 83.5446 153.393 83.4214 158.133C83.369 160.142 83.2597 162.148 83.1418 164.153L83.0769 165.247C82.9397 167.555 82.8589 169.889 82.4316 172.166C82.376 172.463 81.8732 172.471 81.8242 172.166C81.4313 169.726 81.4095 167.233 81.3333 164.764L81.3174 164.271C81.2266 161.62 81.1836 158.972 81.1928 156.32C81.2266 146.878 81.4717 137.442 81.6725 128.004C81.7732 123.261 81.8414 118.517 81.9984 113.775C82.0766 111.403 82.1653 109.033 82.2707 106.661C82.3177 105.603 82.3627 104.545 82.433 103.488L82.4648 103.035C82.4866 102.739 82.5045 102.447 82.5257 102.158C81.5704 102.507 80.6973 101.861 79.8381 101.419C78.8484 100.909 77.8587 100.399 76.8683 99.8901L75.8766 99.3827L73.8932 98.3705C73.0002 97.914 72.3119 97.4602 71.3593 97.9955C67.9271 99.9213 64.7731 102.484 61.9146 105.174C61.3667 105.69 60.2085 105.552 60.0698 104.687C59.4767 100.994 59.8374 97.2476 60.1401 93.5438L60.2517 92.1685C60.387 90.5256 60.5343 88.8834 60.7308 87.2478C60.8182 86.5157 60.9056 85.7844 61.0024 85.0543L61.0772 84.5065C61.1978 83.6407 61.2766 82.7801 61.5343 81.9501C61.4535 81.9236 61.3753 81.8805 61.3051 81.8143C60.53 81.0789 60.9037 79.8024 61.2574 78.9273C61.6065 78.0634 62.1391 77.3095 62.8062 76.661C62.9513 76.5192 63.1567 76.4278 63.3627 76.4232C64.9791 75.3513 66.7532 74.8167 68.5995 75.4016C68.6511 75.1539 68.7041 74.9061 68.7598 74.659L68.8168 74.4119C68.9598 73.7991 69.0135 72.7869 69.5421 72.3768ZM86.1136 169.156C86.6151 169.017 87.1643 169.163 87.5319 169.531C87.8996 169.898 88.0453 170.448 87.9069 170.95C87.838 171.197 87.7128 171.411 87.5319 171.594C87.363 171.762 87.1662 171.881 86.941 171.953L86.8887 171.968L86.8065 172.003C86.5555 172.071 86.3037 172.071 86.052 172.003C85.8115 171.935 85.6028 171.814 85.426 171.638C85.2497 171.46 85.1285 171.252 85.0609 171.011C84.9934 170.76 84.9934 170.508 85.0609 170.257L85.0954 170.175C85.1643 169.927 85.2895 169.713 85.4697 169.531C85.6519 169.35 85.8665 169.225 86.1136 169.156ZM115.906 119.138C115.989 119.043 116.122 119.164 116.071 119.265C115.289 120.798 114.418 122.32 113.562 123.814C113.631 124.228 113.698 124.638 113.777 125.038C114.11 126.745 114.519 128.42 114.785 130.143C115.743 136.333 116.24 142.592 116.666 148.839C117.094 155.108 117.149 161.38 117.213 167.661C117.218 168.206 116.799 168.838 116.239 168.941C115.982 168.988 115.79 168.979 115.533 168.941C114.95 168.855 114.585 168.186 114.56 167.661C114.392 164.151 114.167 160.644 113.906 157.139C113.443 150.925 113.161 144.694 112.788 138.474L112.656 136.3C112.515 133.944 112.385 131.586 112.344 129.227C112.315 127.664 112.399 126.102 112.348 124.54C112.3 123.099 112.154 121.531 112.472 120.115C112.484 120.062 112.568 120.049 112.591 120.1C112.922 120.795 113.131 121.551 113.292 122.323C114.144 121.246 115.011 120.167 115.906 119.138ZM60.1477 81.063C60.2672 81.0538 60.2624 81.2333 60.1477 81.2465C58.4771 81.4406 56.8634 82.1203 55.286 82.6986L55.1509 82.7477C53.5574 83.3267 52.0037 83.999 50.5085 84.8006C47.5853 86.368 44.9009 88.3892 42.5275 90.7032C33.0518 99.9398 28.7335 113.26 25.5691 125.777C23.811 132.732 22.5608 139.804 21.7505 146.93C21.3497 150.454 21.0665 153.992 20.9013 157.535C20.8168 159.351 20.7635 161.169 20.7412 162.987C20.7297 163.918 20.7264 164.849 20.7275 165.78C20.7281 166.207 20.8042 166.744 20.6901 167.158C20.5843 167.543 20.286 167.88 20.0652 168.2C19.8036 168.579 19.3335 168.559 19.0683 168.2L18.9705 168.069C18.6876 167.694 18.4109 167.335 18.3705 166.844C18.3273 166.318 18.3577 165.776 18.3558 165.249C18.3513 164.184 18.3645 163.12 18.3858 162.055C18.4268 160.016 18.5071 157.978 18.6265 155.942C18.8689 151.809 19.2679 147.685 19.8392 143.585C20.8547 136.298 22.3769 129.079 24.3707 121.997C26.2517 115.316 28.4801 108.655 31.6546 102.466C34.6021 96.7196 38.4688 91.3742 43.571 87.3584C45.9437 85.4909 48.5266 83.9348 51.3114 82.7622C52.7158 82.1713 54.1907 81.689 55.6906 81.4135C57.1739 81.1419 58.6507 81.1796 60.1477 81.063ZM86.4011 157.346C86.6661 157.344 86.9609 157.402 87.1888 157.549L87.4922 157.784C87.5743 157.889 87.6565 157.996 87.7379 158.102C87.9281 158.35 87.9533 158.75 87.9135 159.045C87.9042 159.242 87.8459 159.425 87.7379 159.595L87.5067 159.894C87.2848 160.076 87.0993 160.205 86.8304 160.293C86.6893 160.338 86.5541 160.348 86.419 160.34L86.3739 160.338L86.4011 160.342L86.3534 160.336C86.3097 160.332 86.2653 160.328 86.2216 160.322C86.1911 160.318 86.1606 160.315 86.1308 160.311C86.1017 160.309 86.0738 160.308 86.0447 160.311C85.7029 160.342 85.3584 160.149 85.1159 159.926C84.8973 159.725 84.7006 159.299 84.731 158.997L84.7443 158.87C84.7675 158.658 84.786 158.574 84.8761 158.36C84.9642 158.152 85.0868 157.968 85.2531 157.813C85.5724 157.516 85.9632 157.349 86.4011 157.346ZM85.3418 141.765C85.7963 141.27 86.576 141.234 87.1391 141.533C87.2762 141.607 87.4021 141.723 87.5226 141.821C87.8274 142.068 87.9473 142.512 87.9638 142.886C87.9804 143.257 87.7856 143.697 87.5226 143.952L87.4591 144.014C87.3021 144.167 87.0775 144.3 86.8582 144.34C86.5045 144.405 86.207 144.403 85.8771 144.264C85.5942 144.145 85.3498 143.952 85.1842 143.691L85.157 143.648C85.1457 143.629 85.1351 143.611 85.1245 143.591L85.11 143.563C84.7946 142.956 84.8794 142.269 85.3418 141.765ZM85.577 126.102C85.7817 126.038 85.9864 126.029 86.1911 126.075C86.3302 126.075 86.4601 126.11 86.58 126.18C86.7105 126.216 86.8238 126.283 86.9198 126.378C87.0351 126.446 87.1278 126.538 87.1961 126.654C87.3325 126.803 87.4239 126.978 87.4716 127.178L87.5266 127.588L87.4716 127.998L87.3166 128.365C87.2736 128.421 87.2305 128.477 87.1874 128.532C87.1185 128.648 87.0265 128.741 86.9105 128.81C86.835 128.885 86.7482 128.941 86.6515 128.979C86.309 129.226 85.8519 129.306 85.4458 129.194C85.2047 129.127 84.9947 129.004 84.8172 128.828C84.6409 128.65 84.5184 128.44 84.4515 128.199L84.4237 128.006C84.3872 127.748 84.3819 127.605 84.4548 127.276C84.4873 127.132 84.58 126.928 84.629 126.842C84.837 126.476 85.1775 126.225 85.577 126.102ZM103.356 114.834C103.944 114.83 104.532 114.831 105.12 114.837L105.561 114.843C106.299 114.855 106.931 114.779 107.512 115.291C107.933 115.663 107.748 116.287 107.347 116.567C106.742 116.992 105.982 116.778 105.285 116.731C104.551 116.682 103.816 116.641 103.081 116.608C101.657 116.544 100.233 116.503 98.807 116.497C97.3854 116.491 95.9611 116.505 94.5388 116.528C93.092 116.551 91.5855 116.686 90.1467 116.536C89.9492 116.516 89.9049 116.256 90.0996 116.188C91.4557 115.719 92.9807 115.567 94.4016 115.388C95.867 115.202 97.3324 115.071 98.807 114.986C100.322 114.9 101.839 114.845 103.356 114.834ZM85.575 110.225L85.6234 110.227C85.8817 110.227 86.1242 110.288 86.3501 110.409L86.3985 110.436L86.7091 110.676C86.8993 110.868 87.0304 111.094 87.1033 111.354L87.1583 111.762C87.1662 111.973 87.1225 112.171 87.0265 112.354C86.9642 112.544 86.8582 112.709 86.7091 112.848C86.57 112.998 86.4051 113.104 86.215 113.166C86.046 113.254 85.8652 113.299 85.6717 113.299L85.6234 113.298C85.3465 113.297 85.0881 113.227 84.8483 113.088L84.5376 112.848C84.3475 112.656 84.2157 112.431 84.1428 112.17L84.0878 111.762C84.0805 111.551 84.1242 111.353 84.2203 111.171C84.2826 110.98 84.3879 110.815 84.5376 110.676C84.6767 110.527 84.8417 110.421 85.0318 110.358C85.2007 110.27 85.3816 110.225 85.575 110.225ZM90.1261 74.1489C90.4567 73.6693 91.0562 74.0959 90.9701 74.4808C90.9926 75.5633 91.0483 76.6133 91.294 77.6732C91.4067 78.1588 91.5544 78.6444 91.7823 79.0889L91.8777 79.2764C92.1725 79.8587 92.4017 80.4078 92.0049 81.0471C91.8174 81.3485 91.4795 81.5751 91.1125 81.5592C89.4875 81.489 89.2636 79.2254 89.1649 77.9614C89.0629 76.6603 89.3802 75.2301 90.1261 74.1489Z" fill="black"/>
<path fill-rule="evenodd" clip-rule="evenodd" d="M55.9922 21.7329C56.718 20.9538 57.6463 20.3733 58.6611 20.1878C57.7335 20.6514 56.8267 21.1345 55.9922 21.7329ZM54.5704 28.4512C54.442 27.8574 54.3558 27.2579 54.3286 26.6585C54.4909 26.9052 54.7499 27.07 55.0409 27.1551C54.8529 27.5761 54.6931 28.0099 54.5704 28.4512ZM103.138 37.7611C102.3 34.2724 98.3919 27.562 97.4677 26.2705C96.4648 23.0725 101.936 20.5078 98.9603 18.0071C97.6135 16.8787 95.8328 16.4795 94.1627 16.0793C82.5982 13.3009 70.173 14.7021 59.4472 19.8113C57.8157 19.4678 56.1159 20.139 54.9295 21.3179C49.3558 26.9223 56.9517 37.0342 58.6127 43.3524C61.4624 50.3973 55.5922 51.5824 56.2217 57.5433C56.7109 60.6224 59.8287 61.4365 62.46 61.9016C62.8813 62.0003 63.4451 62.0155 63.5809 62.4614C64.0075 65.0642 65.4689 67.5444 67.4311 69.2284C67.2596 69.7365 67.3901 70.3539 67.9955 70.8004C73.4774 74.8759 80.3895 76.9156 87.2261 76.5486C95.3744 76.112 99.5883 71.4397 100.605 70.2373C106.227 62.6416 105.555 52.6205 104.408 43.5691C103.609 37.2636 104.622 43.9412 103.138 37.7611Z" fill="white"/>
<path fill-rule="evenodd" clip-rule="evenodd" d="M78.0139 8.7324C78.2703 7.93148 78.995 7.44987 79.8251 7.54931C80.5597 7.63609 81.3461 8.36553 81.2566 9.17061C81.2401 9.32603 81.2175 9.47164 81.191 9.60883L81.1944 9.61009L81.1977 9.61022L81.1798 9.66342C81.1248 9.91966 81.0493 10.1493 80.9373 10.3663C80.7949 10.7821 80.6578 11.1994 80.522 11.618C80.718 11.6096 80.9181 11.6208 81.1208 11.6586C81.3308 11.121 81.5421 10.5847 81.7521 10.0457C81.9774 9.47024 82.1357 8.73094 82.5809 8.28577C83.1499 7.71731 84.1383 7.59965 84.8326 8.00574C85.5659 8.43416 85.8276 9.19579 85.6679 10.0121C85.5871 10.4284 85.3089 10.7182 84.9651 10.9002L84.928 10.9194L84.663 11.5466C84.7445 11.5116 84.8286 11.4794 84.9194 11.4528C85.0618 11.4108 85.2022 11.3842 85.3394 11.373C85.717 10.6883 86.133 10.0233 86.5623 9.37081C87.0565 8.62037 88.0223 8.30113 88.8325 8.77579C89.5573 9.20003 89.9468 10.3145 89.4274 11.0468C89.0326 11.6026 88.659 12.1696 88.2906 12.7423C88.3536 12.7535 88.4165 12.7675 88.4768 12.7857C88.5053 12.7479 88.5344 12.7101 88.5649 12.6723C88.967 12.1739 89.434 11.8 89.9143 11.3856C90.3635 10.9964 90.5708 10.3845 91.1611 10.0891C91.9044 9.71807 92.8 9.89588 93.2425 10.6351C94.1912 12.2187 92.5986 13.3751 91.5797 14.3342C92.4655 13.7812 93.3883 13.2757 94.3343 12.8389C94.8662 12.5939 95.4061 12.3572 95.9546 12.1528C96.7681 11.8504 97.426 11.9472 98.0937 12.5099C98.3918 12.7619 98.5396 13.3123 98.4024 13.679C98.1368 14.3818 97.7168 14.8089 96.9808 15.0119C96.4627 15.1547 95.9328 15.2513 95.4147 15.4011C94.5469 15.6503 93.7043 15.9541 92.8868 16.3336C92.9457 16.37 93.002 16.4092 93.0537 16.454C93.6638 16.2566 94.2852 16.0858 94.9093 15.9402C95.9447 15.6973 96.998 15.5332 98.0566 15.4306L98.4084 15.3979C99.677 15.276 101.203 15.0513 101.982 16.2664C102.237 16.6668 102.265 17.3277 101.982 17.7239C101.438 18.4855 100.898 18.6368 99.9996 18.6508C100.884 18.7446 101.767 18.8608 102.646 18.9966C103.252 19.089 103.858 19.1938 104.461 19.31L104.762 19.369C105.497 19.5161 106.318 19.6015 106.948 20.0271C108.325 20.9568 107.679 22.7671 106.153 22.9603C105.416 23.0527 104.597 22.7405 103.874 22.5949C103.171 22.4535 102.466 22.3289 101.757 22.2196C101.391 22.1623 101.024 22.1118 100.656 22.0656C101.405 22.1735 102.148 22.3261 102.871 22.5417L103.073 22.6023C104.471 23.0288 106.359 23.7081 106.796 25.2033C107.06 26.112 106.337 26.9044 105.461 26.9576C104.646 27.0066 103.967 26.5208 103.276 26.1624C102.772 25.9019 102.26 25.7073 101.717 25.5407C101.156 25.3685 100.583 25.2257 100.007 25.1095C100.494 25.378 100.969 25.6732 101.424 26.0035L101.633 26.1582C102.844 27.0608 104.691 28.4581 104.264 30.1499C104.129 30.6834 103.535 31.193 102.964 31.1383C101.478 30.9998 100.657 29.4162 99.5366 28.5678C99.2438 28.3465 98.9231 28.1281 98.5873 27.9153C100.286 29.9427 101.639 32.2864 102.667 34.7073C104.928 40.033 105.621 44.965 105.638 50.6915L105.638 50.8691C105.641 54.0277 105.57 57.2433 105.262 60.388C104.977 63.2935 104.453 66.1606 103.136 68.7919C100.929 73.2032 96.6284 76.6394 91.8851 77.9471C86.6073 79.4032 80.7081 78.2644 76.3849 74.9044C75.2819 74.0479 76.7446 72.187 77.8708 72.978C82.3709 76.1353 88.1899 77.135 93.3545 74.9985C97.4511 73.3039 100.75 69.6597 102.148 65.4637C103.038 62.794 103.297 59.9474 103.615 57.1657L103.636 56.9803C103.972 54.0707 104.166 51.142 104.163 48.2127C104.159 42.7733 103.378 38.2958 100.986 33.3617C99.8612 31.0376 98.4011 28.8886 96.6575 27.0025C96.1282 27.1102 95.5658 26.959 95.0312 26.9016C94.7582 26.8722 94.4853 26.8442 94.2124 26.819C94.4913 26.9993 94.7649 27.1869 95.0332 27.3787L95.3856 27.6331C96.4892 28.4233 97.8884 29.3235 97.6048 30.8514C97.528 31.2644 97.1166 31.6438 96.7178 31.7376C95.2716 32.082 94.278 30.6763 93.3015 29.8418C92.4515 29.1166 91.5632 28.467 90.6576 27.8159C90.4516 27.6689 90.2449 27.5219 90.0362 27.3763C90.2323 27.6048 90.4224 27.8368 90.6086 28.0711L90.8835 28.4196C91.7149 29.4606 92.9139 30.8137 92.1733 32.1632C91.9633 32.5441 91.5155 32.7975 91.0816 32.7891C89.5897 32.7583 88.9962 31.0641 88.2966 29.9945C87.6944 29.0774 87.0412 28.2135 86.3649 27.3497C86.1787 27.113 85.9912 26.8764 85.8011 26.6398C82.6677 26.8022 79.5448 27.2166 76.477 27.8789C74.3697 28.3339 72.2968 28.9235 70.2392 29.5688L70.0683 29.6233C68.9547 29.9819 67.8074 30.4409 67.0051 31.228C66.8905 31.7703 66.978 32.3422 67.0879 32.8838L67.1734 33.2983C67.5251 35.0317 67.765 36.7331 67.5854 38.5128C67.3993 40.3483 66.8468 41.999 66.1724 43.7043C65.8531 44.508 65.5225 44.3624 65.4092 45.2249C65.3225 45.8819 65.3761 46.56 65.4357 47.2225L65.4854 47.784C65.6093 49.2553 65.6722 50.8591 64.7084 52.0727C64.5586 52.2589 64.238 52.1847 64.1314 51.9986C64.0896 51.9244 64.0446 51.8528 63.9956 51.7846C63.5312 51.1109 62.819 50.7273 62.0042 50.5789C61.9009 50.561 61.9413 50.4219 62.0281 50.4106C62.7163 50.3298 63.3689 50.5021 63.9234 50.8578C63.6604 49.9482 61.6253 50.3908 60.9568 50.567L60.9337 50.5736C60.0994 50.7975 59.31 51.1612 58.6145 51.6766C57.2149 52.7127 56.4059 54.3284 56.4466 56.0687C56.4872 57.7798 57.3703 59.3605 58.8874 60.1793C59.6194 60.5741 60.4521 60.7649 61.2808 60.7563C62.1453 60.7477 62.9151 60.3687 63.7816 60.4217C64.2824 60.4522 64.666 60.9901 64.3765 61.4592C64.183 61.7725 63.9313 62.0189 63.6405 62.2084C64.35 63.8447 65.2556 65.4061 66.2996 66.8469C66.8773 67.6465 67.5324 68.3838 68.2532 69.0576C68.8156 69.5842 70.0352 70.193 69.9663 71.0708C69.9425 71.3874 69.7788 71.5809 69.4907 71.6981C68.5944 72.0645 67.5039 70.8025 66.9044 70.1937L66.8567 70.1453C66.1095 69.4007 65.4278 68.5773 64.8342 67.7035C63.7816 66.1527 63.1284 64.4038 62.8581 62.5668C61.4206 62.9994 59.5172 62.5933 58.3444 62.0627C54.6579 60.3966 53.4529 55.4301 55.6936 52.1231C56.1274 51.4832 56.6705 50.936 57.2891 50.4934C57.1533 50.4192 57.026 50.3239 56.9126 50.2039C56.2855 49.5375 55.8421 48.6677 55.4021 47.8661L55.3493 47.7703C54.9587 47.0646 54.5901 46.3479 54.2447 45.6201L54.1163 45.3467C53.3451 43.6876 52.6691 42.9623 52.1191 41.2178C51.5901 39.5348 51.173 37.8197 50.9029 36.0752L50.8311 35.6134C50.6749 34.6011 50.5271 33.5186 50.6411 32.4909C49.856 32.7471 49.0667 32.9053 48.2899 32.5203C47.7777 32.2668 47.4949 31.5276 47.6699 30.997C47.7973 30.6063 48.01 30.2997 48.2801 30.0589C48.1192 29.9777 47.968 29.8741 47.835 29.7592L47.7189 29.6586C47.2486 29.2496 47.215 28.4725 47.5006 27.9601C47.5285 27.9111 47.5565 27.8607 47.5831 27.8117C47.8546 27.3259 48.4159 27.008 48.9701 27.0164C49.0597 27.0178 49.1492 27.0178 49.2402 27.0164C48.9813 26.959 48.728 26.8708 48.4872 26.7224C47.4012 26.0545 47.5383 24.2442 48.8525 23.925C49.4039 23.792 50.0127 23.8466 50.6201 23.9894C50.5978 23.9768 50.5754 23.9642 50.553 23.9502C50.094 23.6688 49.7091 23.1185 49.7525 22.5543C49.8 21.9298 50.0015 21.4846 50.553 21.157C51.0317 20.8742 51.709 20.8475 52.1849 21.157C52.5978 21.4272 53.0022 21.7254 53.3913 22.0461C53.0008 21.5658 52.6621 21.0436 52.525 20.4891C52.3557 19.7989 52.6383 19.047 53.2598 18.683C53.7552 18.3931 54.2787 18.4253 54.7461 18.6494C54.7209 18.2867 54.8091 17.9171 55.0498 17.5895C55.5424 16.9176 56.4381 16.531 57.2177 17.021C57.3199 17.0854 57.4571 17.1961 57.59 17.3319C57.3311 16.5072 57.5648 15.6419 58.4479 15.2695C58.9868 15.0413 59.7159 15.1561 60.1834 15.5495C59.8867 13.9436 62.2559 12.7633 63.1768 14.4224C63.3861 14.7983 63.5928 15.194 63.7776 15.5989L63.8458 15.7512L63.8531 15.7483L63.8061 15.637L63.7577 15.5257C63.502 14.9306 63.1754 14.3118 63.086 13.6663C62.9548 12.7115 63.3801 11.8056 64.4182 11.6656C64.9548 11.5928 65.551 11.8364 65.9107 12.2622C65.716 10.7807 67.3701 9.70403 68.5612 10.8101C69.125 11.3337 69.4264 12.0996 69.7841 12.7717C69.9875 13.1511 70.1942 13.5291 70.3976 13.91C70.4492 13.8484 70.5049 13.7868 70.5639 13.7266C70.2631 12.8249 70.0292 11.9008 69.8318 10.9712C69.6444 10.0947 70.0822 9.18459 70.9865 8.9369C71.808 8.70994 72.8368 9.21692 73.0203 10.092C73.1488 10.7079 73.3018 11.3171 73.4694 11.9232C73.584 11.8952 73.6973 11.8756 73.8092 11.8616C73.8192 11.7477 73.8298 11.6332 73.841 11.5194L73.8854 11.1143C73.9835 10.1889 74.0822 9.13259 74.5651 8.34592C75.3899 7.00185 77.5031 7.55905 77.5257 9.14822C77.5382 9.97007 77.2037 10.785 77.0871 11.5984C77.0368 11.9526 77.0076 12.3111 76.991 12.6695C77.2163 11.4794 77.5257 10.3047 77.8834 9.14822C77.9258 9.00957 77.9702 8.87098 78.0139 8.7324ZM59.7808 54.6252C61.6352 54.3384 63.3298 55.3731 64.4288 56.8219C64.6289 57.0869 64.497 57.4605 64.3168 57.6831C64.1863 57.8468 64.0115 57.8666 63.814 57.8918C63.5875 57.9209 63.3006 57.7374 63.2013 57.54C62.4944 56.129 61.2338 55.2373 59.7808 54.6881C59.7542 54.6782 59.7458 54.6312 59.7808 54.6252ZM62.3507 29.3386L62.407 29.2783C62.7819 28.889 62.189 28.2942 61.8127 28.6844C61.4173 29.0952 61.1536 29.5941 60.9005 30.0999C60.6597 30.5821 61.3835 31.008 61.6259 30.524L61.7359 30.304C61.9095 29.9619 62.0936 29.6239 62.3507 29.3386ZM57.1434 28.5395C57.6752 28.4499 57.4497 27.6402 56.9201 27.7295C56.2341 27.8452 55.5506 27.9767 54.8645 28.0924C54.3328 28.182 54.5582 28.9917 55.0878 28.9025C55.7739 28.7867 56.4573 28.6553 57.1434 28.5395ZM88.8246 23.0117C88.3112 22.8402 88.0906 23.6513 88.6013 23.8218C89.3075 24.0574 90.0077 24.299 90.6781 24.6261C91.1617 24.8625 91.5877 24.1382 91.1015 23.9008C90.3668 23.5416 89.5997 23.2704 88.8246 23.0117ZM57.022 21.923C56.5203 21.7222 56.3024 22.5344 56.7989 22.7331L58.6127 23.4588C59.1144 23.6596 59.3323 22.8474 58.8359 22.6488L57.022 21.923ZM95.1584 19.9506L95.0921 19.9088C94.637 19.6139 94.2157 20.3408 94.6681 20.6342C94.9338 20.8063 95.2564 20.923 95.4995 21.128L95.5505 21.1733C95.9434 21.5444 96.5383 20.9515 96.1441 20.5793C95.8559 20.3072 95.4916 20.1557 95.1584 19.9506Z" fill="black"/>
<path fill-rule="evenodd" clip-rule="evenodd" d="M93.3673 66.9918C92.473 66.9991 91.4674 66.6632 90.795 66.4003L90.6194 66.3307C90.0371 66.0975 89.4396 65.8299 88.9938 65.3807C88.8513 65.235 88.6996 65.0694 88.6221 64.8958C88.5771 64.7938 88.5585 64.6885 88.6022 64.5838C88.7632 64.5679 88.9163 64.5474 89.0607 64.5209C89.1296 64.5083 89.1958 64.495 89.2462 64.495C89.433 64.4937 89.6171 64.5175 89.8013 64.5407C89.8285 64.544 89.855 64.5474 89.8815 64.5507C90.0252 64.5685 90.1683 64.5878 90.3107 64.607C90.7254 64.6626 91.1381 64.7183 91.5588 64.7381C91.8629 64.7527 92.1809 64.7355 92.5021 64.7183C93.3362 64.6726 94.1981 64.6109 94.84 65.1946C95.0082 65.3476 95.0785 65.5404 95.0785 65.7365C95.0785 65.975 94.9778 66.2181 94.8247 66.4089C94.4783 66.8395 93.945 66.9872 93.3673 66.9918ZM98.245 59.4703C97.8562 60.0545 97.2076 60.4302 96.3193 60.3891C94.5531 60.3083 92.4458 59.6418 90.9672 58.6786C90.5817 58.4275 90.3319 58.0261 90.2876 57.5968L90.208 56.8323L89.7775 57.469C89.7324 57.5352 89.6874 57.6015 89.6416 57.6677C89.5171 57.8499 89.3926 58.0321 89.2753 58.2189C88.8242 58.9356 88.4101 59.6604 88.0345 60.4196C87.7689 60.9575 87.5741 61.559 87.3793 62.1665C87.0501 63.1913 86.7321 64.1989 86.0292 64.919C85.9226 65.0283 85.7596 65.0674 85.6099 65.0482C85.4781 65.0309 85.3489 64.966 85.2853 64.8375C84.4453 63.1284 85.5755 61.0688 86.4923 59.6365L86.589 59.4868C87.439 58.193 88.8275 56.4806 90.4174 56.248L90.5989 56.5382L90.8639 56.3613C91.2965 56.0725 91.8682 56.0864 92.3683 56.3123L92.8685 56.5382C93.7993 56.9562 94.7181 57.3418 95.7257 57.5531C95.7992 57.5683 95.8721 57.5829 95.9456 57.5962C96.0145 57.6087 96.0841 57.6207 96.1543 57.6313C96.1391 57.563 96.1232 57.4941 96.1066 57.4259C96.09 57.3537 96.0728 57.2815 96.0543 57.2093C96.035 57.1351 96.0145 57.0609 95.9946 56.9874C95.9138 56.6932 95.8224 56.4017 95.7144 56.1169C95.3077 55.0444 94.6585 54.0414 94.0265 53.0848L93.9516 52.9722C93.8615 52.835 93.7622 52.692 93.6595 52.5442C93.1666 51.8347 92.6201 51.0643 92.5817 50.2905C93.2355 50.3316 93.7827 50.7384 94.265 51.0921C94.9261 51.5777 95.5389 52.1328 96.0947 52.7357C97.1732 53.9062 98.1404 55.4014 98.565 56.9476C98.8081 57.8333 98.7015 58.7859 98.245 59.4703ZM80.9932 50.6496V50.6185C80.9952 49.7255 81.5152 47.6868 82.7998 47.6868C83.6027 47.6868 84.0896 49.0743 84.1744 50.5045L84.177 50.5628C84.2141 51.4518 83.9703 53.3955 82.7998 53.3955C81.6166 53.3955 81.0058 51.5545 80.9932 50.6496ZM99.9091 50.3694L99.9098 50.3382C99.9078 49.4452 99.3878 47.4068 98.1033 47.4068C97.3202 47.4068 96.8373 48.7258 96.7359 50.117L96.7286 50.2243C96.6783 51.0835 96.9062 53.1153 98.1033 53.1153C99.2857 53.1153 99.8972 51.2743 99.9091 50.3694ZM85.3204 44.6074C85.1502 44.6274 84.9806 44.6535 84.8116 44.6805C84.3175 44.7592 83.8259 44.8537 83.3383 44.9639C82.4109 45.1732 81.4921 45.4375 80.5898 45.7362C79.7458 46.0158 78.9151 46.3317 78.0844 46.6477C78.04 46.6646 77.9956 46.6815 77.9519 46.6983C77.6584 46.8098 77.3663 46.9348 77.0728 47.0602C76.6269 47.2511 76.1785 47.4432 75.7207 47.588C76.9264 45.9211 78.7833 44.6859 80.5699 43.802C81.5894 43.2977 82.6712 42.8911 83.759 42.5579L84.3652 42.3757C85.2568 42.1124 86.2326 41.8692 87.0706 42.3942C87.4019 42.6019 87.6139 42.9247 87.6801 43.2737C87.7457 43.6159 87.6708 43.9829 87.435 44.289C87.229 44.5558 86.9726 44.7078 86.6997 44.7599C86.3982 44.8173 86.0789 44.7542 85.7881 44.5989C85.5556 44.5816 85.4867 44.5878 85.4178 44.5955L85.3204 44.6074ZM98.7419 44.777C98.145 44.6472 97.5541 44.595 96.9413 44.6137C96.6644 44.6221 96.3961 44.6649 96.1285 44.7079C95.7138 44.7748 95.3004 44.844 94.8526 44.7628C94.6194 44.7204 94.4206 44.5838 94.2669 44.4056C94.0874 44.1972 93.9688 43.9309 93.9311 43.6777C93.8913 43.4161 93.9304 43.1874 94.0278 42.9854C94.1417 42.7468 94.3345 42.5456 94.567 42.3694C95.2712 41.8362 96.4789 41.9645 97.3103 42.0723C98.1311 42.179 98.9479 42.4338 99.6739 42.8384C100.39 43.2377 101.013 43.7756 101.498 44.4332C101.908 44.9875 102.101 45.6254 102.3 46.2748C101.363 45.4885 99.929 45.0348 98.7419 44.777Z" fill="black"/>
<path fill-rule="evenodd" clip-rule="evenodd" d="M96.9458 63.9443C97.3294 64.3378 97.6977 64.7592 98.0448 65.1944C98.1415 65.886 98.1634 66.5862 98.0753 67.309C97.9468 68.3563 97.6613 69.3798 97.275 70.3623C97.0465 70.3305 96.8213 70.2655 96.602 70.1648C95.9051 69.8442 95.5155 69.199 95.0439 68.6293C94.1052 67.4965 92.392 66.8274 91.1937 68.0019C90.673 68.5127 90.3404 69.2202 89.8754 69.7813C89.3646 70.3987 88.7909 70.9856 88.192 71.5176C88.1179 71.5845 88.0403 71.6574 87.9608 71.7289C87.6276 71.348 87.3004 70.9644 86.9797 70.5749C86.0265 69.4156 85.2037 68.1318 84.7711 66.6843C84.634 66.2252 84.5485 65.7462 84.5154 65.2633C84.9394 64.7366 85.4236 64.2577 85.9735 63.8615C87.6316 62.6645 89.5421 62.4697 91.5295 62.3664C93.5858 62.2597 95.4374 62.4001 96.9458 63.9443ZM101.962 69.4984C101.882 68.6975 101.759 67.8648 101.577 67.0327C100.913 63.947 99.4724 60.8712 96.5848 59.4615C95.2188 58.793 93.6666 58.5579 92.1946 58.8798C89.611 57.9126 86.7419 58.8997 84.7082 60.6691C82.3094 62.7572 81.2024 66.0331 80.8301 69.1023C80.5711 71.2374 80.4737 74.0899 81.0792 75.6394C81.6847 77.1889 85.5336 81.3313 91.0274 81.3604C98.8524 81.4015 100.754 76.1224 100.985 75.6606C101.949 73.7395 102.173 71.6183 101.962 69.4984Z" fill="black"/>
<path fill-rule="evenodd" clip-rule="evenodd" d="M104.878 54.3104C103.593 55.9162 98.563 57.6989 95.8866 55.7639C93.2096 53.8288 92.1517 52.4807 91.7939 50.0627C91.7555 49.805 91.2898 49.6335 91.0924 49.817C89.9894 50.8418 89.2759 52.1468 88.5684 53.4559C87.7702 54.9318 86.9845 56.4171 85.535 57.4161C82.9667 58.7933 78.3208 58.9894 76.9489 58.3819C74.3196 57.218 72.2394 54.7298 71.7664 51.3049C71.7664 51.3049 71.2855 49.7858 70.8642 49.4659C70.4647 49.1631 68.26 48.8935 68.0182 48.8484C63.6659 48.0405 58.1611 47.5255 54.2844 50.3681C53.7598 50.6848 51.9638 51.8772 51.9372 51.5838C51.9185 50.4357 53.2189 47.8377 56.1764 46.6014C59.8337 45.0725 65.2704 44.9831 68.4197 45.3204C68.578 45.3375 69.1179 45.2047 69.1563 45.1882C73.9281 43.1215 79.4185 43.6704 84.5241 44.539C85.2555 44.681 91.8052 46.3034 94.41 45.3204C98.7173 43.5614 103.31 42.287 107.961 42.7883C108 42.7925 108.587 46.3581 108.13 46.6014C107.766 46.795 107.146 47.2909 106.927 47.5624C106.73 47.8051 106.606 48.1068 106.617 48.5245C106.705 50.9425 106.016 52.8881 104.878 54.3104ZM87.1673 52.1535C87.7139 51.3632 87.8861 49.5878 87.6576 48.2922C87.5416 47.6363 87.317 47.1143 87.0348 46.8544C86.8474 46.6817 86.6334 46.6004 86.3995 46.6124C86.2717 46.6191 86.1332 46.6555 85.9868 46.7347C84.0001 45.6597 81.5934 45.2726 79.3125 45.384C77.4967 45.3836 76.201 45.8124 75.3225 46.4799C74.2652 47.283 73.7889 48.4375 73.7611 49.6898C73.7287 51.1757 74.3388 52.8007 75.3398 54.0872C76.2977 55.318 77.608 56.2303 79.0297 56.4409C80.6434 56.7615 82.2876 56.4515 83.7179 55.693C85.1839 54.9153 86.4227 53.6659 87.1673 52.1535ZM103.092 52.9915C104.012 51.9031 104.624 50.4874 104.717 49.0849C104.802 47.8087 104.46 46.5443 103.516 45.4995C102.659 44.7641 101.146 44.7519 99.554 45.1615C97.4957 45.691 95.3659 46.8743 94.6558 47.6386C94.4888 47.7263 94.3338 47.879 94.1987 48.2067L94.1974 48.3235C93.9827 49.3155 94.1099 50.3224 94.4822 51.2512C94.8863 52.2601 95.5792 53.1763 96.4239 53.8752C97.5468 54.8 98.7187 55.0835 99.8157 54.9338C101.058 54.7649 102.214 54.0289 103.092 52.9915Z" fill="white"/>
<path fill-rule="evenodd" clip-rule="evenodd" d="M94.2627 44.9279C98.625 43.1464 103.287 41.8623 108.007 42.3711C108.398 42.2226 108.882 42.3477 109.055 42.8999C110.736 48.0236 106.987 46.5987 107.038 48.5141C107.43 59.2532 93.002 61.0876 91.379 50.1245L91.3492 50.1424C89.0153 52.3212 88.5238 55.8674 85.7739 57.762C80.2271 61.8203 72.3637 58.6054 71.3541 51.3806L71.3323 51.2825C70.9931 49.8085 70.5876 49.4429 68.9156 49.4501L68.6513 49.3978C64.3075 48.5413 58.5227 47.7719 54.5215 50.7168C53.6512 51.2229 53.6104 52.524 52.875 53.0897C52.0694 53.246 51.5732 52.2769 51.5186 51.6065C51.3909 44.9188 63.3529 44.4378 68.7102 45.0117C68.8123 44.9057 69.0309 44.9189 69.1044 45.0509C73.9496 42.9524 79.4083 43.2428 84.596 44.1253C87.809 44.7477 90.9835 46.1653 94.2627 44.9279ZM107.573 43.6056C104.956 43.4747 102.535 43.6179 99.9658 44.2473C98.6117 44.574 97.573 44.9872 96.2765 45.4841C88.1932 49.0666 87.2611 42.6985 69.1408 45.1949C69.3753 46.1993 69.4184 47.1938 69.431 48.1375C73.1308 47.9884 72.2597 51.5223 73.6456 54.0046L73.6886 54.0794C75.7085 57.7018 80.4755 59.391 84.3211 56.9883C87.5288 55.1182 87.8421 50.3736 91.0358 48.4909C93.8049 48.3819 92.6986 52.1205 94.2057 53.6568C96.3262 56.4881 100.835 56.8836 103.494 54.2205C104.742 52.9393 105.405 51.3123 105.442 49.5648C105.511 48.4478 105.32 47.313 106.164 46.5275C106.755 45.9263 107.806 46.1269 107.927 45.2182C108.003 44.6808 107.78 44.0979 107.573 43.6056ZM79.1281 45.0694C81.7282 44.9412 84.4788 45.3929 86.7113 46.6685C88.3641 45.353 88.7689 50.5816 87.6718 52.0934C86.0919 55.3282 82.4126 57.4547 78.8704 56.7485C73.3441 55.9476 69.4933 45.0597 79.1281 45.0694ZM86.553 47.0193L86.4112 46.9986C84.0164 46.6331 77.4951 44.9395 74.9798 47.6125C72.5393 52.0463 78.7313 59.4944 85.1757 53.562C86.9696 51.7356 87.6646 49.5204 86.553 47.0193ZM94.1428 47.5859C95.3829 46.1167 101.704 43.1409 103.907 45.0505C107.929 49.5588 101.552 58.6782 96.2103 54.2351C94.4309 52.7505 93.2604 50.3842 93.7724 48.0928L93.7731 47.9968C93.7744 47.962 93.7811 47.9699 93.8182 47.9266C93.8844 47.7533 94.003 47.6427 94.1428 47.5859ZM103.851 50.3186C105.207 42.9599 99.5392 45.7573 94.884 47.7214C95.1338 47.9497 95.1331 48.2616 95.0609 48.5181C94.57 53.9774 101.204 57.0718 103.851 50.3186ZM68.6162 45.3693C66.6745 46.027 53.8319 44.8506 52.6455 50.8731C53.8978 48.8433 56.4915 48.0378 58.8231 47.6008C61.9949 47.0061 65.1489 47.3504 68.2757 47.9761L68.3406 47.3287C68.4101 46.642 68.483 45.9995 68.6162 45.3693Z" fill="black"/>
</g>
</svg>
