<svg width="154" height="165" viewBox="0 0 154 165" fill="none" xmlns="http://www.w3.org/2000/svg">
<mask id="mask0_1_20" style="mask-type:alpha" maskUnits="userSpaceOnUse" x="0" y="0" width="154" height="165">
<path d="M153.162 87.7498C153.162 130.044 118.876 164.331 76.5811 164.331C34.2865 164.331 0 130.044 0 87.7498C0 67.1579 37.3037 72.5931 37.3037 53.4479C37.3037 -0.797069 54.0808 0.0006512 75.7834 0.0006512C97.486 0.0006512 115.27 -0.209089 115.27 48.8507C115.27 79.5629 153.162 67.1579 153.162 87.7498Z" fill="white"/>
</mask>
<g mask="url(#mask0_1_20)">
<path fill-rule="evenodd" clip-rule="evenodd" d="M121.416 93.2449C119.368 83.5342 112.1 75.9986 102.327 72.2444C100.449 71.181 98.6278 66.6205 96.1026 65.7849C95.6981 65.6514 96.3367 66.7169 96.1026 66.7805C95.2677 67.0076 94.3321 67.0314 93.4105 66.2111C91.7629 64.7466 91.2459 60.4663 90.2439 58.5322C84.961 48.3296 71.7693 52.3214 70.0022 63.6C68.7697 64.4035 67.0278 65.1113 65.687 65.7583C64.3056 66.4249 63.0906 68.0403 61.6673 68.6174C60.3972 69.1324 58.3045 68.7677 57.0248 69.2169C51.1387 71.2823 46.1535 73.8885 42.245 79.1694C41.4215 80.2831 40.4932 81.6519 39.7437 82.7775C35.88 87.2269 33.1964 92.2143 30.7247 97.5644C23.8095 113.27 21.9286 130.659 20.2411 147.58C20.2794 150.541 18.3156 158.751 21.2202 160.17C21.0466 160.35 21.1095 160.712 21.4316 160.708C28.7966 160.634 36.1444 161.294 43.3951 162.575C46.8934 163.194 50.373 164.043 53.9365 164.182C61.3333 164.131 68.704 162.89 76.0915 164.064C84.9721 164.064 95.7651 163.805 105.646 163.425C114.879 163.07 124.162 163.872 133.282 162.301C134.004 162.187 134.356 161.307 134.205 160.675C133.134 156.775 132.61 152.761 132.009 148.77C132.129 146.209 131.914 143.536 130.968 141.151C128.494 125.052 125.322 109.058 121.416 93.2449Z" fill="white"/>
<path fill-rule="evenodd" clip-rule="evenodd" d="M118.437 114.405C118.242 115.352 117.969 116.299 117.606 117.195C117.256 118.06 116.73 118.836 116.366 119.69C116.317 119.806 116.238 119.893 116.142 119.959L116.172 120.192L116.199 120.425C116.38 121.994 116.584 123.559 116.76 125.128L116.846 125.914C117.193 129.191 117.741 132.451 118.165 135.719C118.582 138.919 119.006 142.119 119.459 145.315C119.927 148.609 120.403 151.9 120.96 155.181C121.195 156.567 121.44 157.951 121.695 159.335L121.893 160.394C123.924 160.883 124.479 163.715 122.411 164.761C121.472 165.233 120.266 165.119 119.492 164.376C118.689 163.603 118.655 162.207 118.469 161.159L118.289 160.184C116.944 152.86 115.777 145.45 115.231 138.021C115.09 136.103 114.972 134.184 114.896 132.262C114.823 130.455 114.858 128.648 114.83 126.841L114.821 126.348C114.778 124.421 114.813 122.496 114.863 120.569C114.87 120.335 114.879 120.1 114.891 119.864C114.823 119.784 114.775 119.689 114.754 119.597L114.728 119.476C114.661 119.165 114.736 118.8 114.976 118.577C115.079 117.264 115.215 115.953 115.252 114.641C115.255 114.534 115.41 114.537 115.419 114.641C115.505 115.758 115.679 116.877 115.854 117.995C116.974 117.095 117.802 115.609 118.291 114.365C118.326 114.275 118.458 114.308 118.437 114.405ZM91.9281 62.2149C92.1139 63.0653 92.4821 63.829 92.9747 64.5396C93.2095 64.8791 93.4764 65.195 93.7971 65.4591C94.0717 65.6847 94.3847 65.8329 94.6768 66.0292C95.1023 65.9628 95.546 66.1235 95.8443 66.4366L95.7975 65.9789C95.7822 65.8315 96.0274 65.8021 96.0561 65.9447C97.3473 72.4609 98.5253 78.9805 99.5447 85.5428L99.9912 88.4411L100.412 91.1619C101.11 95.6958 101.785 100.228 102.294 104.794C102.971 110.889 103.541 117 103.957 123.12C104.375 129.282 104.632 135.449 104.815 141.623C104.861 143.18 104.909 144.734 104.957 146.291L105.272 144.43C105.586 142.569 105.895 140.706 106.16 138.836C107.109 132.146 107.868 125.407 108.238 118.658C108.578 112.483 108.464 106.184 106.894 100.168C106.498 98.6549 106.013 97.1645 105.429 95.7126C104.863 94.3012 104.089 92.9925 103.479 91.6021C102.771 89.9832 102.558 88.4565 102.923 86.7139C103.242 85.1956 103.801 83.7681 103.901 82.2051C104.089 79.3047 103.146 76.4959 101.813 73.9582C101.461 73.2888 101.091 72.6285 100.704 71.9746C99.5335 69.9972 98.2137 68.0918 96.8442 66.2654C96.7701 66.1683 96.9266 66.0599 97.0063 66.1403C98.2549 67.3749 99.6202 68.5886 100.744 69.9364C101.29 70.5925 101.823 71.2612 102.328 71.948C107.866 72.8738 112.625 76.3247 115.879 80.8824C119.571 86.0536 121.438 92.2784 122.82 98.4082C124.357 105.22 125.653 112.095 127.033 118.941C128.462 126.024 129.883 133.108 131.321 140.191C132.036 143.706 132.75 147.223 133.463 150.74C133.824 152.521 134.204 154.298 134.601 156.073C134.805 156.983 135.023 157.891 135.212 158.804C135.424 159.833 135.227 160.491 134.53 161.248C134.274 161.528 133.868 161.524 133.548 161.374L133.449 161.327L133.353 161.281C132.958 161.087 132.648 160.886 132.403 160.455C132.133 159.98 132.09 159.455 131.997 158.927C131.826 157.957 131.656 156.987 131.485 156.016C131.229 154.562 130.951 153.113 130.667 151.665L129.247 144.425C128.868 142.495 128.489 140.565 128.107 138.636C126.745 131.736 125.381 124.838 124.017 117.941C122.708 111.318 121.549 104.648 120.058 98.0638L119.973 97.6927L119.887 97.3224C118.554 91.6461 116.691 86.1549 113.312 81.3443C110.711 77.6453 107.099 74.3418 102.845 72.6698C103.144 73.1016 103.432 73.5411 103.707 73.9903C105.431 76.8082 106.69 80.153 106.395 83.5082C106.25 85.1474 105.627 86.7579 105.686 88.4104C105.741 89.8783 106.649 91.1675 107.276 92.4447C108.701 95.3395 109.731 98.4152 110.395 101.571C111.728 107.908 111.723 114.428 111.264 120.86C110.765 127.853 109.818 134.843 108.739 141.768C108.185 145.319 107.449 148.841 106.885 152.387C106.606 154.135 106.227 155.879 105.894 157.619L105.736 158.45C105.647 158.911 105.555 159.371 105.449 159.826L105.384 160.098V160.147C105.38 160.483 105.289 160.76 105.141 160.981C104.939 161.63 104.688 162.262 104.355 162.869C104.183 163.179 103.935 163.353 103.665 163.416C103.393 164.038 102.778 164.517 102.043 164.514L92.3752 164.477C86.7604 164.455 81.1448 164.418 75.53 164.387C74.113 164.379 72.6974 164.353 71.2818 164.316C69.9543 164.279 68.6819 164.119 67.3697 163.954C65.8878 163.768 65.0842 162.718 65.3057 161.237C65.3546 160.911 65.4077 160.586 65.458 160.261C65.1625 160.358 64.8117 160.313 64.5742 160.081L64.3513 159.863C64.0425 159.557 63.7658 159.257 63.5701 158.849C63.3675 158.43 63.204 157.987 63.0251 157.558C62.6401 156.637 62.2649 155.712 61.9002 154.784C61.1701 152.926 60.4391 151.061 59.76 149.184C58.4153 145.467 57.2254 141.694 56.1908 137.878C54.3456 131.07 53.011 124.131 52.1696 117.13L51.9684 115.462L51.91 114.968C51.5909 112.255 51.3223 109.499 51.4492 106.791C51.5276 105.096 51.7902 103.388 52.4236 101.805C53.008 100.344 53.91 99.0951 54.7676 97.7892L54.8658 97.639L54.9644 97.4845C55.7144 96.2988 56.3113 95.0593 56.3412 93.6193C56.3715 92.1575 55.9459 90.7357 55.4702 89.3676L55.3516 89.0301L55.272 88.8072C54.2598 85.9795 53.1079 83.1924 53.4878 80.1159C54.0489 75.5855 56.7944 71.9333 60.2487 69.1168C57.1767 69.7254 54.136 70.9272 51.4523 72.4518C48.2829 74.2531 45.4295 76.6308 42.9687 79.3138C38.3188 84.3851 34.999 90.4695 32.2815 96.7509C29.4369 103.326 27.3274 110.214 25.7377 117.194C24.1391 124.212 23.0689 131.343 22.338 138.502C21.9736 142.066 21.687 145.638 21.4495 149.212C21.3285 151.043 21.237 152.877 21.0952 154.706C20.9535 156.532 20.8899 158.387 20.4441 160.165C20.236 160.993 18.8322 161.078 18.6817 160.165C18.3479 158.126 18.4412 156.019 18.5344 153.955L18.5428 153.768C18.6345 151.712 18.754 149.658 18.8956 147.604C19.1851 143.405 19.5717 139.213 20.0766 135.034C21.8465 120.364 25.1104 105.771 31.5124 92.3797C34.5268 86.0732 38.3957 79.9448 43.7778 75.3906C46.3402 73.2238 49.2291 71.4945 52.3423 70.2424C55.1265 69.1217 57.9548 68.5914 60.913 68.5928C62.3963 67.456 63.9894 66.4652 65.5803 65.6184C65.676 65.5674 65.7767 65.691 65.697 65.7707C65.6558 65.8105 65.616 65.8517 65.5747 65.8902C65.755 65.902 65.9409 65.9866 66.1072 66.162C66.692 66.7747 67.1853 67.5412 67.6262 68.3371C68.2983 69.1762 68.9383 70.0426 69.6091 70.8727C70.6823 72.2016 71.78 73.5117 72.8916 74.8113C74.7586 76.9955 76.6864 79.1377 78.6973 81.1941L79.0326 81.5364C80.0751 82.5922 81.1302 83.8562 82.3627 84.6918L82.4284 84.7358C82.9489 85.0747 83.3171 85.1362 83.7608 84.6303C84.164 84.1692 84.4994 83.6347 84.8445 83.1267L84.9242 83.01C86.6849 80.4513 88.3178 77.7976 89.7956 75.0657C90.4692 73.8219 91.1099 72.5608 91.7177 71.2856L91.8987 70.9027C92.2292 70.1998 92.5883 69.5102 92.8615 68.7863C92.9244 68.6165 92.9866 68.4468 93.0474 68.2784C92.1174 67.6684 91.397 66.3485 91.1357 65.3144C90.8639 64.2412 91.0016 63.1393 91.4851 62.1576C91.5766 61.9725 91.884 62.0186 91.9281 62.2149ZM46.0511 105.842C45.9225 109.924 45.8444 114.01 45.6524 118.088L45.5861 119.481C45.8856 119.815 46.0612 120.2 45.921 120.729C45.8665 120.931 45.7055 121.114 45.5047 121.182L45.4421 122.477C45.1573 128.302 44.8233 134.115 44.2131 139.925C43.4499 147.197 42.5672 154.455 41.686 161.714C41.5606 162.742 40.846 163.557 39.7345 163.407C38.6098 163.254 38.1536 162.275 38.3013 161.255C38.8813 157.252 39.4392 153.245 39.9279 149.228L40.4845 144.652C41.1823 138.931 41.8965 133.212 42.7194 127.51C43.0634 125.126 43.4205 122.744 43.7791 120.362L43.6538 120.2C43.1414 119.534 42.6115 118.883 42.0875 118.227C41.0808 116.963 40.0874 115.709 39.1648 114.386C39.1189 114.32 39.212 114.222 39.2783 114.272C40.5714 115.228 41.7953 116.25 43.0264 117.288L44.104 118.201C44.724 114.085 45.3381 109.968 45.8856 105.842C45.899 105.738 46.054 105.731 46.0511 105.842ZM64.6517 66.7796C63.8741 67.5133 63.0782 68.2309 62.2943 68.9603L62.0071 69.2293L61.7213 69.499C60.3437 70.8056 59.0236 72.1667 57.9237 73.729C55.9044 76.5979 54.7013 80.0964 55.5411 83.5997C56.2379 86.5008 57.8366 89.1314 58.2662 92.1052C58.4816 93.5955 58.3769 95.0928 57.8158 96.5C57.2431 97.9352 56.3278 99.1656 55.5056 100.461C53.7195 103.275 53.4759 106.364 53.6532 109.625C53.8392 113.031 54.2302 116.437 54.7131 119.812C55.6901 126.649 57.1634 133.415 59.1133 140.042C60.0892 143.36 61.242 146.607 62.3893 149.868C62.9602 151.491 63.626 153.075 64.3122 154.652C64.6741 155.483 65.0444 156.308 65.421 157.131C65.282 155.968 65.282 154.773 65.2142 153.617C65.1171 151.96 64.9927 150.306 64.8795 148.651C64.6475 145.291 64.4407 141.929 64.2563 138.566C63.6023 126.575 63.1216 114.574 63.1565 102.563C63.1747 96.558 63.2969 90.5519 63.5555 84.5521C63.6763 81.7265 63.9111 78.9037 64.1228 76.0823L64.1675 75.4772C64.3555 72.9451 64.5798 70.4066 64.9648 67.8962C64.8509 67.6383 64.7517 67.3777 64.6783 67.1101L64.6517 67.0095L64.6713 67.013C64.6538 66.934 64.6475 66.8565 64.6517 66.7796ZM71.3803 56.4604C71.3964 56.3905 71.4956 56.3968 71.5131 56.4604C71.9519 57.9367 71.7968 59.5612 71.4188 61.0467C71.2154 61.8516 70.9262 62.6328 70.5761 63.386L70.4538 63.6494C70.1541 64.2908 69.8166 64.9518 69.2325 65.3515C68.9893 65.5184 68.5533 65.5289 68.3102 65.3515L68.1858 65.2571C68.1656 65.2411 68.1453 65.225 68.1257 65.2082C67.898 65.0175 67.7862 64.5969 67.891 64.3195C68.1607 63.6033 68.7734 63.0771 69.1969 62.4392C69.5721 61.8726 69.9047 61.2745 70.1799 60.6526C70.7753 59.3069 71.0422 57.8794 71.3803 56.4604Z" fill="black"/>
<path fill-rule="evenodd" clip-rule="evenodd" d="M88.6103 66.9525C85.5548 66.9442 82.7579 66.3482 80.1042 65.0444C76.8999 63.9984 73.4008 63.4289 70.8008 61.1134C69.5348 61.3824 68.2366 60.0821 67.1864 59.3072C65.4732 65.6138 56.557 64.565 52.7897 60.4895C50.4852 58.5421 49.5582 53.7259 53.5601 52.4515C47.0033 47.9965 44.6349 40.3002 45.0856 31.9726C45.5599 18.003 56.2953 3.47964 70.0937 1.05665C72.8159 0.577614 75.6108 0.628199 78.3211 1.19793C79.8352 1.52639 81.2976 2.16313 82.9179 2.1342C89.2 1.14077 96.0998 1.25494 101.289 5.27715C109.582 10.828 110.735 21.9344 109.766 30.8638L109.805 30.9474C109.323 34.2251 108.522 37.2272 107.007 39.2032C106.889 42.0442 105.902 48.109 105.829 50.507C106.005 61.6633 99.6716 66.6151 88.6103 66.9525Z" fill="white"/>
<path fill-rule="evenodd" clip-rule="evenodd" d="M52.1152 52.2977C32.2534 34.7417 52.6295 -4.76707 78.4716 0.474882C81.0876 1.35107 83.7434 1.65508 86.4516 1.0059C100.102 -1.12636 111.268 10.4602 110.691 23.8653C110.787 26.158 110.768 28.4529 110.52 30.7365C110.237 33.7381 109.464 36.9484 107.738 39.4435C107.718 41.1197 106.732 47.4067 106.573 50.3643L106.543 50.982C106.386 54.0221 106.047 57.1223 104.711 59.8941C100.603 67.3402 90.0214 68.9382 82.434 66.7694L82.1182 66.6653C80.7089 66.1964 79.111 65.5725 78.2166 64.391C77.7436 63.7677 78.5261 62.9712 79.1773 63.1403C80.0158 63.359 80.7103 63.8704 81.4929 64.2331C86.5963 66.4899 92.6331 65.7339 97.6709 63.6266L97.8232 63.5623C106.846 59.8983 104.375 46.8645 105.563 39.4323C105.833 29.9948 97.9643 23.5682 92.0364 17.3263L91.859 17.1285C91.2497 16.4529 90.6069 15.7943 89.76 15.6502C89.5281 16.3542 88.9572 16.9533 88.4283 17.4667L87.2321 18.7602C86.0352 20.0521 84.8362 21.3388 83.6198 22.6139C77.7142 28.6152 71.6976 36.7632 62.5948 37.3767C63.1545 37.8832 63.645 38.4618 64.2312 38.939C64.4785 39.1863 64.2263 39.6021 63.8944 39.5175C63.2761 39.3589 62.8799 38.772 62.4739 38.3136C57.5574 36.2489 53.5199 43.8782 57.6853 47.0371C59.2305 48.6734 63.7456 47.4283 62.7017 49.4462C63.8413 53.0215 65.5958 56.6178 68.5625 59.0088C69.4338 59.667 70.7949 60.0003 71.3727 60.9687C71.5125 61.2028 71.4412 61.5835 71.1792 61.7079C69.9187 62.2955 68.5646 61.3069 67.5962 60.562C62.4844 70.5592 43.7377 59.514 52.1152 52.2977ZM82.4941 3.44839L81.982 3.3482C76.5195 2.26722 72.919 1.197 67.1441 3.15144C54.2734 7.45208 45.9758 21.1519 46.3345 34.4671C46.3429 42.0315 50.0913 51.6765 58.5343 52.7504C59.8108 52.8517 59.8308 54.8333 58.573 54.7739L58.5345 54.7718C56.4532 54.6419 54.4385 53.8865 52.7212 52.7253C50.4172 56.4578 52.7262 59.8452 56.3159 61.4494C59.9532 63.3695 63.8413 62.7574 66.2721 59.3651C64.0537 56.9001 62.4187 53.2151 62.0407 49.9472C55.8112 52.3647 51.1131 43.4534 55.166 38.7273C56.5922 36.6933 59.361 35.4217 61.6432 36.8659C71.4629 33.0865 78.3186 25.0543 84.8823 17.1861L85.2324 16.7874C86.3818 15.489 89.0243 12.5558 89.3178 12.1766C89.6468 11.7503 90.312 12.1341 90.3204 12.592C90.326 12.9176 90.3078 13.2478 90.2715 13.5773C91.4935 14.3657 92.4836 15.5629 93.3954 16.6682C100.2 22.0109 105.734 27.6064 107.455 36.0827C108.524 34.8343 109.009 33.1958 109.359 31.6309C110.092 21.308 108.121 8.94642 97.4752 4.46837C92.3586 1.92911 87.7939 3.09282 82.4941 3.44839ZM58.3509 42.2173C57.9076 41.8219 60.8365 41.7737 61.1128 42.0839L61.1757 42.1056C62.2245 42.4745 64.1446 43.6637 63.202 44.8976C61.8577 46.1651 60.921 42.4025 58.3509 42.2173Z" fill="#221E1F"/>
<path fill-rule="evenodd" clip-rule="evenodd" d="M91.1602 54.9235C90.168 54.519 89.282 53.8433 88.635 52.9804C88.41 52.68 88.3513 52.3635 88.3989 52.0735C88.452 51.7479 88.6448 51.4523 88.9075 51.2546C89.1709 51.0562 89.5007 50.9576 89.8193 51.008C90.096 51.0513 90.372 51.2029 90.59 51.5173L90.6354 51.5802C91.0204 52.1014 91.5221 52.5284 92.0937 52.8043C92.6442 53.0699 93.2598 53.1935 93.8977 53.1216C95.1114 52.9846 95.9484 52.3278 96.8379 51.4356C96.9476 51.3231 97.058 51.2071 97.1691 51.089C97.239 50.9821 97.3361 50.9129 97.4437 50.8773C97.5639 50.8368 97.6994 50.8396 97.8231 50.8829C97.9433 50.9241 98.0502 51.0038 98.1214 51.1093C98.1899 51.2092 98.2283 51.3329 98.2158 51.4754C98.1347 52.3991 97.6512 53.2243 96.9651 53.872C96.2035 54.5916 95.1931 55.0891 94.2422 55.2638C93.1941 55.456 92.1265 55.3183 91.1602 54.9235ZM94.7362 40.6642C95.8513 41.342 97.5492 42.9225 96.3502 44.6029C94.9388 46.0848 92.9063 44.3863 91.905 43.6177C90.9764 43.0224 89.9332 44.554 90.7947 45.2492C98.0313 50.609 100.968 40.8417 95.3 39.8677C94.6761 39.7601 94.4441 40.4546 94.7362 40.6642ZM81.7681 34.4295C81.8911 32.9002 84.2199 32.5529 84.4511 34.0663C84.6587 35.4218 84.4141 36.6669 83.8041 37.8875C83.2207 39.0537 81.7548 38.5101 81.6437 37.4481C81.4956 36.0248 81.6912 35.3806 81.7681 34.4295ZM99.4916 33.7524C99.8158 33.3272 100.285 33.0368 100.846 33.2009C102.601 33.7138 102.084 36.2057 101.468 37.418C101.133 38.0769 100.051 38.2439 99.5615 37.664C98.7643 36.7186 98.3828 34.8297 99.3959 33.8982C99.4231 33.8501 99.4539 33.8015 99.4916 33.7524ZM83.7797 27.7376L84.0564 27.6891C84.9137 27.5407 85.9799 27.3982 86.5864 28.0878C86.9078 28.4534 87.0189 29.133 86.5864 29.4829C85.8255 30.0987 84.9849 29.8601 84.0738 29.9122C83.3227 29.9553 82.6009 30.0797 81.8771 30.2866C80.2903 30.7404 78.997 31.5688 77.6415 32.4785C77.4633 32.5978 77.2817 32.3702 77.3669 32.2038C78.1495 30.6705 79.6657 29.411 81.1847 28.6433C81.9952 28.2335 82.8825 27.8935 83.7797 27.7376ZM97.8923 27.0507L98.104 27.0942C100.413 27.5769 103.411 28.5411 104.505 30.8092C104.546 31.1299 104.502 31.1987 104.466 31.2436L104.455 31.2586C104.425 31.2969 104.401 31.3498 104.262 31.3934C104.224 31.3842 104.185 31.3745 104.146 31.3642C103.645 31.2328 103.249 31.0518 102.864 30.8641L102.449 30.659C101.966 30.4222 101.479 30.194 100.962 30.0256C99.8605 29.6661 98.7279 29.4129 97.5771 29.2777C97.3277 29.2485 97.088 29.1643 96.898 29.0199C96.7184 28.883 96.5815 28.6933 96.5186 28.4412C96.4375 28.1151 96.4606 27.8681 96.6353 27.5738C96.7673 27.3528 96.9553 27.1995 97.1719 27.1116C97.392 27.0219 97.6428 27.0008 97.8923 27.0507Z" fill="black"/>
</g>
</svg>
