<svg width="154" height="174" viewBox="0 0 154 174" fill="none" xmlns="http://www.w3.org/2000/svg">
<mask id="mask0_1_1379" style="mask-type:alpha" maskUnits="userSpaceOnUse" x="0" y="0" width="154" height="174">
<path d="M153.162 97.3218C153.162 139.616 118.876 173.903 76.5811 173.903C34.2865 173.903 0 139.616 0 97.3218C0 76.7298 29.3265 82.1651 29.3265 63.0199C29.3265 8.77492 54.0808 0 75.7834 0C97.486 0 131.225 9.3629 131.225 58.4227C131.225 89.1349 153.162 76.7298 153.162 97.3218Z" fill="white"/>
</mask>
<g mask="url(#mask0_1_1379)">
<path fill-rule="evenodd" clip-rule="evenodd" d="M23.986 173.684C24.7477 174.842 26.246 174.664 26.8892 173.768C34.214 175.475 41.7233 174.801 49.1499 174.383C70.0775 173.531 91.1235 176.202 111.967 173.408C114.178 172.966 116.751 173.178 118.56 171.643C121.454 168.251 120.831 163.101 120.37 158.969C116.675 135.679 111.422 112.175 108.802 88.7355C108.656 86.5023 109.575 83.7283 110.4 81.6291C110.604 81.2387 111.891 80.8565 112.559 80.4059C114.609 78.9338 114.276 76.2958 112.499 74.7478C106.745 70.6904 98.7358 72.1085 92.6319 73.6052C91.462 69.21 90.1471 66.3198 87.9201 66.0333C83.6815 65.4884 73.3985 63.8234 70.2306 66.0333C68.7154 67.0904 67.7431 70.8155 66.6525 72.6302C58.6976 72.4894 42.5528 61.8426 39.2336 73.8316C36.5369 74.0176 33.8659 76.3731 34.3817 79.1991C30.8843 82.291 33.6429 86.9269 33.5945 90.7751C33.1347 98.9399 28.7184 106.242 26.881 114.129C22.6813 129.427 17.9278 157.252 23.1367 172.184C23.0246 172.125 22.7798 172.213 22.9384 172.338C23.5282 172.504 23.6049 173.247 23.986 173.684Z" fill="white"/>
<path fill-rule="evenodd" clip-rule="evenodd" d="M115.441 169.795C114.465 161.949 113.785 152.477 113.778 144.566C113.777 143.82 114.933 143.822 114.933 144.566C114.941 152.477 115.621 161.949 116.597 169.795C116.689 170.533 115.532 170.523 115.441 169.795ZM108.205 121.146C106.695 122.069 104.713 121.429 103.219 120.817C102.538 120.538 102.838 119.42 103.526 119.702C104.663 120.168 106.325 120.853 107.525 120.203C108.722 119.556 108.776 117.773 108.785 116.597C108.791 115.853 109.946 115.853 109.941 116.597C109.929 118.197 109.715 120.221 108.205 121.146ZM105.411 157.05C103.887 156.27 102.588 155.202 101.542 153.847C101.087 153.258 102.092 152.683 102.54 153.263C103.461 154.456 104.66 155.368 105.994 156.053C106.657 156.393 106.071 157.39 105.411 157.05ZM98.0897 116.703C95.4764 127.178 93.7232 137.842 92.8638 148.605C92.6887 150.79 92.5656 152.972 92.4966 155.156C92.4275 155.725 92.3605 156.296 92.299 156.867C92.0631 159.026 91.8826 161.22 91.8983 163.393C91.9058 164.369 91.9359 165.34 92.0022 166.312C91.8867 165.987 91.78 165.66 91.6761 165.335C91.4634 164.669 91.3233 163.978 91.1072 163.316C90.928 162.769 90.6969 162.244 90.4816 161.714V161.712C90.5465 159.541 90.3988 157.348 90.3243 155.186C90.2272 152.386 90.1075 149.588 90.0453 146.786C89.9209 141.182 89.9831 135.573 90.1855 129.972C90.591 118.685 91.6166 107.453 92.6511 96.2123C92.9383 93.0862 93.248 89.9621 93.4614 86.8305C93.6768 83.6654 93.7636 80.4948 93.7882 77.3215C93.7896 77.0931 93.4429 77.0329 93.3793 77.2538C93.3226 76.501 93.2234 75.7495 93.0573 75.022C95.5489 76.6117 98.1766 77.9861 100.752 79.4315C102.109 80.1932 103.459 80.9673 104.858 81.6497C105.626 82.025 106.402 82.371 107.193 82.6972C108.014 83.0356 108.799 83.5006 109.701 83.2654C109.779 83.2449 109.853 83.2161 109.924 83.1785C109.821 83.3734 109.718 83.5676 109.621 83.7638C109.279 84.4414 108.955 85.1225 108.639 85.8089C108.556 85.8705 108.482 85.956 108.424 86.0674C108.271 86.3662 108.123 86.6684 107.978 86.9748C107.949 86.9474 107.92 86.9201 107.891 86.8927C107.77 86.7785 107.602 86.9502 107.71 87.0746C107.758 87.1307 107.806 87.186 107.854 87.2421C106.912 89.2695 106.146 91.4014 105.357 93.4828C104.389 96.04 103.47 98.6171 102.604 101.211C100.898 106.313 99.393 111.483 98.0897 116.703ZM60.7292 154.72C55.9131 157.301 51.4124 160.384 47.0836 163.71C46.4935 164.164 45.9186 163.158 46.5003 162.712C50.8291 159.386 55.3299 156.302 60.1459 153.722C60.8023 153.37 61.3856 154.369 60.7292 154.72ZM44.4621 124.5C44.2118 124.482 43.9685 124.336 43.9049 124.075C43.5148 122.478 43.2093 120.737 43.5721 119.107C43.7339 118.38 44.8478 118.69 44.6864 119.414C44.4003 120.7 44.6276 122.089 44.9248 123.371C49.1254 123.554 53.2697 122.047 57.2886 121.034C58.0113 120.852 58.3165 121.967 57.5959 122.149C53.3327 123.223 48.923 124.83 44.4621 124.5ZM128.088 167.126C128.092 167.116 128.096 167.104 128.099 167.094C128.346 166.345 128.352 165.476 128.38 164.691C128.427 163.295 128.377 161.896 128.251 160.504C127.985 157.575 127.413 154.693 126.73 151.836C125.376 146.177 123.463 140.672 122.425 134.936C120.386 123.677 120.87 111.954 116.871 101.094C115.208 96.5795 112.833 92.2397 109.606 88.6527C109.841 87.9361 110.071 87.2175 110.295 86.4968C110.687 85.2421 111.087 83.9471 111.328 82.6555C111.333 82.6206 111.341 82.5844 111.345 82.5488C112.719 81.956 113.969 80.8387 114.182 79.3536C114.275 78.7115 114.168 78.0004 113.891 77.381C114.457 76.8579 114.821 76.1782 114.734 75.2681C114.572 73.554 112.572 73.1129 111.179 72.7779C109.596 72.3977 107.954 72.2924 106.334 72.4716C105.517 72.5611 104.707 72.7116 103.917 72.9372C103.231 73.1321 102.484 73.3331 101.934 73.8042C101.869 73.8589 101.922 73.9656 102 73.9656C103.114 73.9615 104.224 73.5526 105.349 73.4993C106.527 73.4439 107.703 73.541 108.859 73.7837C109.988 74.021 111.115 74.3676 112.142 74.9037C112.432 75.0555 112.855 75.158 112.515 75.4644C112.267 75.6886 111.779 75.7071 111.459 75.7406C110.753 75.8145 110.143 76.2275 110.053 76.9816C109.974 77.6483 110.371 78.4025 111.079 78.5529C111.118 78.5618 111.154 78.5714 111.186 78.5844C111.205 78.6206 111.234 78.6507 111.231 78.6021C111.231 78.6021 111.232 78.6001 111.232 78.6021C111.25 78.7074 111.255 78.7491 111.255 78.7567C111.251 78.7478 111.244 78.7115 111.238 78.6828C111.243 78.7088 111.251 78.7505 111.263 78.8127C111.247 78.745 111.26 78.9112 111.247 78.9372C110.871 79.6305 109.761 79.8261 109.113 80.1249C108.987 80.183 108.879 80.2507 108.787 80.3273C108.634 80.2739 108.477 80.2206 108.32 80.1611C107.545 79.8705 106.77 79.5888 105.984 79.3269C104.468 78.8203 102.932 78.3676 101.416 77.8589C98.5437 76.8968 95.767 75.6811 92.9486 74.5803C92.859 74.248 92.755 73.9225 92.6327 73.6059C92.608 73.5396 92.4891 73.5177 92.4761 73.6059C92.433 73.8863 92.3981 74.168 92.3694 74.4517C92.3578 74.4777 92.355 74.5064 92.3605 74.5338C92.1978 76.181 92.2409 77.8678 92.1568 79.5136C92.0528 81.5655 91.7629 83.6031 91.6802 85.6572V85.6948C91.3773 87.4472 91.1024 89.2059 90.8542 90.9706C90.5752 90.8838 90.2559 90.9016 89.9298 91.0759C87.6214 92.3088 85.0265 92.9953 82.4166 93.1484C81.1018 93.225 79.8006 93.1819 78.4932 93.0301C77.6337 92.9317 76.7872 92.7525 75.9387 92.5823C76.3852 90.7108 76.8652 88.8476 77.4067 87.0042C77.8532 85.4876 78.3503 83.9792 78.9636 82.5208C79.5838 81.0486 80.3551 79.6421 81.073 78.2145C81.404 77.5539 81.0135 76.544 80.1541 76.6131C79.8997 76.6336 79.646 76.6493 79.3903 76.6609C76.9028 76.7799 74.3155 76.5023 71.8594 76.2548C69.0642 75.9717 66.2314 75.6784 63.4608 75.2175C63.2557 75.184 63.1722 75.463 63.374 75.5307C64.6888 75.9731 65.9873 76.4729 67.335 76.8039C68.7223 77.1464 70.1172 77.4589 71.5244 77.703C72.872 77.9355 74.2259 78.131 75.5838 78.2958C76.4693 78.4039 77.365 78.4586 78.256 78.531C77.056 80.4503 76.2279 82.6151 75.5072 84.7464C74.5814 87.4835 73.9004 90.2999 73.2351 93.1108C71.8102 99.1354 70.6362 105.221 69.7172 111.344C69.0587 115.734 68.5254 120.142 68.1254 124.561C68.0071 123.219 67.8621 121.881 67.6994 120.544C67.1531 116.106 66.3558 111.697 65.2898 107.354C65.3849 107.187 65.43 106.986 65.3979 106.791C65.2057 105.597 64.7004 104.558 64.2567 103.451C63.8163 101.905 63.3411 100.368 62.8297 98.8434C62.2492 96.7669 61.5976 94.7224 60.7641 92.7252C60.1268 91.2031 59.4 89.7207 58.5913 88.2828C57.6249 86.2725 56.5631 84.306 55.3974 82.4257C55.3367 82.2507 55.2385 82.0873 55.0984 81.9505C54.886 81.6148 54.6707 81.2838 54.4512 80.9556C54.3081 80.7423 53.8979 80.8722 54.0063 81.1437C54.0568 81.2708 54.1074 81.398 54.1594 81.5238C49.4111 80.3361 44.7553 82.1522 40.2324 83.4937C39.0912 83.8329 37.9384 84.1399 36.7683 84.3608C35.8482 84.5344 34.7763 84.745 33.859 84.5543C33.245 84.4271 32.9735 84.1481 33.2725 83.4924C33.5817 82.8134 34.4253 82.3662 35.1577 82.0661C35.4336 82.0066 35.7051 81.9013 35.9666 81.742C36.5762 81.372 36.8435 80.6008 36.556 79.943C36.2945 79.3488 35.5318 78.8374 34.8572 79.1088C34.7604 79.1478 34.6651 79.1854 34.5697 79.223C34.5596 79.2086 34.548 79.1888 34.538 79.1594C34.4411 78.8955 34.3992 79.2121 34.4411 78.8333C34.5105 78.2144 35.1649 77.6524 35.6127 77.2982C36.7265 76.4155 38.3357 75.7625 39.773 76.0962C39.8813 76.1208 39.9897 76.1509 40.0966 76.1885C41.5773 76.7013 42.2981 74.5687 41.115 73.7734C41.0428 73.7263 40.9518 73.6654 40.8521 73.5943C40.3595 73.2517 39.6387 72.6753 39.8351 72.155C40.0778 71.5095 41.5094 71.1376 42.0511 70.9181C44.0099 70.1235 46.1262 69.6723 48.2382 69.5799C50.3631 69.4876 52.5155 69.7215 54.5653 70.2952C55.5707 70.5755 56.6036 71.0022 57.5541 71.4329C58.4078 71.8186 60.2656 72.3287 60.3839 73.4097C60.4099 73.6483 60.7497 73.729 60.8229 73.4685C61.4054 71.3933 59.1463 70.0538 57.6552 69.197C56.6772 68.6329 55.5678 68.2822 54.4945 67.9369C53.466 67.6046 52.4158 67.3605 51.3439 67.2128C49.0427 66.8976 46.7141 66.9379 44.4317 67.3803C42.353 67.7837 40.0402 68.4716 38.3602 69.8097C37.3288 70.6302 36.8623 71.9369 37.2768 73.2114C37.2913 73.2531 37.3057 73.2969 37.3202 73.3386C35.4639 73.6709 33.7073 74.7348 32.5329 76.2172C31.5679 77.4356 31.0624 79.1307 31.9261 80.5488C31.89 80.5748 31.8539 80.6021 31.8193 80.6308C30.9959 81.29 30.3834 82.2466 30.2014 83.2927C29.8446 85.3563 31.0912 86.7997 32.8348 87.3522C32.4029 87.7741 31.9883 88.2219 31.5824 88.6698C30.6737 89.6742 29.8055 90.7683 29.0399 91.8841C27.4885 94.144 26.1624 96.6055 25.0024 99.0848C22.6175 104.177 21.1137 109.659 20.3163 115.217C19.9146 118.017 19.646 120.832 19.5434 123.659C19.4249 126.882 19.5449 130.106 19.4827 133.33C19.4221 136.428 19.0797 139.452 18.3877 142.472C17.7247 145.361 16.8407 148.192 16.0403 151.043C15.1375 154.254 14.1436 157.451 13.6669 160.762C13.4257 162.447 13.2524 164.136 13.3867 165.839C13.5225 167.575 14.1523 169.059 14.733 170.674C14.8804 171.086 15.3296 171.251 15.6894 171.164C15.7702 171.936 16.062 172.691 16.4968 173.344C17.4199 174.729 18.8413 175.612 20.4694 175.932C22.304 176.292 24.1949 176.207 26.0526 176.14C28.0678 176.068 30.0844 176.003 32.0995 175.919C34.2093 175.833 36.319 175.743 38.4287 175.653C38.3589 173.489 38.2757 171.327 38.1817 169.165C37.6731 157.476 36.872 145.781 36.8508 134.076C36.81 134.052 36.7698 134.024 36.7313 133.987C35.7816 133.068 34.6155 132.465 33.52 131.746C32.9 131.339 33.4795 130.339 34.1033 130.748C35.0269 131.354 35.9894 131.892 36.855 132.571C36.8601 131.353 36.8707 130.135 36.8949 128.916C36.9096 128.173 38.0653 128.173 38.0505 128.916C37.978 132.588 38.0023 136.261 38.0854 139.933C38.3542 151.832 39.1992 163.709 39.5841 175.603C45.2467 175.361 50.9097 175.117 56.5732 174.911C61.1798 174.743 65.7869 174.576 70.3934 174.408C71.3596 174.373 71.9032 173.682 72.0214 172.779C72.2382 171.117 71.8307 169.399 70.909 168.001C70.8139 167.857 70.7011 167.729 70.5753 167.619C70.5972 166.623 70.6375 165.625 70.5815 164.63C70.4973 163.11 70.3715 161.59 70.2621 160.071C70.0392 157.029 69.8676 153.981 69.7999 150.932C69.6611 144.834 69.7623 138.729 70.1076 132.64C70.7996 120.473 72.4098 108.385 75.0464 96.4838C75.2385 95.6168 75.432 94.7498 75.6331 93.8841C77.6823 94.9494 80.176 95.3317 82.4166 95.3467C85.2248 95.3638 87.9708 94.7176 90.5075 93.5429C90.4898 93.6742 90.4727 93.8048 90.4569 93.9361C89.7492 99.5723 89.1523 105.219 88.6327 110.874C87.5954 122.148 86.9595 133.468 87.0477 144.791C87.0723 147.929 87.192 151.056 87.341 154.189C87.4928 157.376 87.7253 160.743 88.6122 163.817C88.7106 164.156 88.9287 164.352 89.1797 164.422C89.1927 164.87 89.2221 165.32 89.2535 165.761C89.3561 167.199 89.6494 170.187 90.2764 171.49C90.887 172.762 91.9058 173.77 93.2043 174.326C94.8542 175.029 96.6381 174.827 98.3803 174.714C105.956 174.22 113.525 173.558 121.096 172.977C122.151 172.896 123.205 172.816 124.258 172.734C125.195 172.662 126.165 172.598 126.997 172.112C127.943 171.558 128.681 168.84 128.355 167.716C128.295 167.511 128.206 167.308 128.088 167.126Z" fill="black"/>
<path fill-rule="evenodd" clip-rule="evenodd" d="M104.575 45.501C104.518 42.2636 104.454 38.9615 103.973 35.7557C103.502 32.6214 102.209 29.7884 99.9852 27.5125C95.2625 22.6782 88.4167 21.4973 82.0448 20.4152L71.1498 18.565C67.826 18.0007 64.2801 17.0986 60.9221 17.899C59.2674 18.2934 57.862 19.2095 56.5777 20.2936C55.3397 21.3383 54.0086 22.4604 53.1697 23.8661C52.3295 25.2737 52.0405 26.9193 51.7672 28.5114C51.4591 30.3064 51.2197 32.1154 51.0498 33.9287C50.709 37.5618 50.6625 41.2221 50.9096 44.8627C51.0294 46.6285 51.2199 48.3894 51.4632 50.1419C51.5838 51.0116 51.7202 51.8786 51.8742 52.7422C51.9195 52.9972 51.954 53.2796 52.0005 53.5641C51.6569 54.5418 51.4616 55.5545 51.4773 56.563C51.5237 59.5333 54.0296 61.4027 56.5559 62.4071C58.0206 62.989 59.5519 63.3842 60.9912 64.0345C62.505 64.7189 63.5355 65.8273 64.5707 67.0922C66.5454 69.5052 68.773 71.6734 71.3173 73.4819C76.7108 77.3178 83.5422 79.1318 90.0872 77.7547C91.6571 77.4245 93.2413 76.9117 94.6526 76.1383C96.1432 75.3226 97.2632 74.1397 98.2047 72.7414C99.9517 70.1459 101.204 67.2235 102.153 64.2492C103.12 61.2153 103.806 58.176 104.18 55.0123C104.553 51.8588 104.631 48.6738 104.575 45.501Z" fill="white"/>
<path fill-rule="evenodd" clip-rule="evenodd" d="M69.8092 7.28893C74.3172 6.66849 80.5401 8.68489 82.7856 12.7506C93.5049 10.2225 107.025 10.1397 115.86 18.5557C125.079 28.5389 113.499 41.7018 105.821 44.6695C106.38 47.3874 105.509 64.7993 99.3414 72.5654C94.4464 79.1459 83.0475 82.1832 77.7729 74.3234L77.7319 74.2584C77.1671 73.3504 77.654 73.3798 78.2338 74.0546C83.3989 78.5989 90.4211 78.6762 95.8324 73.881C105.975 65.1165 104.929 43.6258 100.103 31.1933C86.3609 29.6835 71.6472 33.8501 62.1559 44.1985L62.798 48.0643C62.9067 48.7228 63.0311 49.3805 63.1262 50.0411C63.187 50.465 63.1932 50.8862 62.9005 51.2287C61.9316 52.3604 60.3002 50.6599 58.9573 49.9836C58.5609 49.9275 58.1638 49.9064 57.7743 49.9337C51.3233 50.7652 52.5943 63.2841 59.6848 61.0899C60.2804 60.7186 60.7918 60.8314 61.0229 61.3702C62.7132 62.9189 63.8277 65.6807 66.6352 68.3412C67.626 69.3388 68.5272 70.1736 69.6417 70.9743C70.296 71.6362 72.2714 72.3117 71.6451 73.4447C70.4615 76.0232 63.4797 67.9241 62.2455 65.6841C58.3777 67.2116 54.0917 66.6926 50.0838 66.3193C28.9398 65.2198 31.7624 42.9229 49.0937 28.8458C52.3561 26.4432 55.9555 24.4831 59.6971 22.9749C60.2079 22.7689 59.985 21.9299 59.4667 22.1387C56.9909 23.1369 54.5775 24.3249 52.2769 25.6999L52.2734 24.8779C52.2701 23.4932 52.2918 22.0518 52.5322 20.7867C52.6524 19.9101 52.8545 18.9737 53.1657 18.2694C53.5503 16.11 59.5761 8.69761 69.8092 7.28893ZM57.492 52.8075C57.8185 52.4978 58.4279 52.8677 58.7186 52.8581C59.4619 52.96 60.1682 53.2739 60.7187 53.6616C61.0824 53.8653 61.3368 54.0568 61.5501 54.2325L61.5556 54.2311C61.5542 54.2311 61.5522 54.2325 61.5501 54.2332L61.5706 54.2468C61.8804 54.467 63.0154 55.708 62.2981 55.3744C62.2448 55.3053 62.1901 55.2383 62.1347 55.1727C62.1292 55.1815 62.121 55.1904 62.1108 55.1993L62.1511 55.2588C62.761 56.1757 61.7087 55.2096 61.5467 54.9532C61.5392 54.9593 61.5303 54.9634 61.5221 54.9682L61.7327 55.2246C61.7621 55.2609 61.7853 55.2903 61.8045 55.3149L61.8489 55.358C62.5539 56.0506 62.5757 56.6742 61.7566 55.6499C61.7894 55.6978 61.8147 55.7491 61.8188 55.7949L61.8674 55.8564C62.5101 56.6851 61.987 56.3911 61.6677 56.0369L61.641 56.0068L61.6465 56.015C61.9433 56.4725 61.3539 56.1511 61.2499 55.9063L61.2451 55.8954C61.1316 55.8024 61.0619 55.6985 61.038 55.6725L61.0339 55.6677C60.4807 55.1015 59.68 54.6222 58.999 54.4041C58.9005 54.3857 58.8007 54.3706 58.6999 54.3597C58.2907 54.2687 57.877 54.2058 57.4589 54.1723C57.4078 54.1662 57.3559 54.1286 57.3172 54.08C56.685 54.0588 56.8802 53.7997 57.1425 53.7511L57.147 53.7504L57.095 53.7463C56.6893 53.7067 56.4123 53.561 56.8225 53.4715L56.8744 53.4612C56.8681 53.451 56.8625 53.4414 56.857 53.4311C56.5057 53.3928 56.7349 53.051 56.9299 53.1337C56.8479 52.8657 57.2229 52.999 57.2697 52.9593C57.3053 52.9197 57.3497 52.8848 57.3753 52.8828C57.4882 52.8034 57.4335 52.8103 57.492 52.8075ZM59.6417 48.4629L59.5597 48.5108C59.4927 48.5498 59.4243 48.5758 59.3559 48.5908C59.453 48.6325 59.5487 48.677 59.6438 48.7248C59.6424 48.6667 59.641 48.6079 59.641 48.5498L59.6417 48.4629Z" fill="black"/>
<path fill-rule="evenodd" clip-rule="evenodd" d="M88.2522 66.2726C87.2813 65.8767 86.4142 65.2155 85.7811 64.3711C85.5609 64.077 85.5035 63.7673 85.55 63.4835C85.6019 63.1649 85.7907 62.8757 86.0478 62.6822C86.3055 62.488 86.6283 62.3916 86.9401 62.4408C87.2108 62.4832 87.4809 62.6316 87.6942 62.9393L87.7387 63.0008C88.1154 63.5109 88.6064 63.9287 89.1657 64.1988C89.7045 64.4586 90.3069 64.5796 90.9312 64.5092C92.1189 64.3752 92.938 63.7324 93.8084 62.8593C93.9158 62.7492 94.0238 62.6357 94.1325 62.5201C94.2009 62.4155 94.2959 62.3478 94.4012 62.313C94.5188 62.2733 94.6515 62.276 94.7725 62.3184C94.8901 62.3588 94.9947 62.4367 95.0645 62.54C95.1315 62.6377 95.1691 62.7588 95.1568 62.8982C95.0775 63.8022 94.6043 64.6097 93.9329 65.2435C93.1876 65.9478 92.1988 66.4346 91.2683 66.6056C90.2426 66.7936 89.1978 66.6589 88.2522 66.2726ZM91.7517 52.3185C92.8429 52.9817 94.5045 54.5284 93.3312 56.1728C91.95 57.6231 89.9609 55.9608 88.9811 55.2087C88.0724 54.6261 87.0515 56.1249 87.8946 56.8053C94.9763 62.0504 97.8501 52.4921 92.3035 51.539C91.6929 51.4337 91.4659 52.1133 91.7517 52.3185ZM79.0611 46.2172C79.1815 44.7206 81.4604 44.3807 81.6867 45.8617C81.8898 47.1882 81.6505 48.4067 81.0536 49.6012C80.4826 50.7424 79.0481 50.2104 78.9394 49.1711C78.7944 47.7783 78.9859 47.1479 79.0611 46.2172ZM96.4053 45.5546C96.7226 45.1385 97.1814 44.8543 97.7311 45.0149C99.448 45.5168 98.9421 47.9554 98.339 49.1417C98.0115 49.7865 96.9523 49.9499 96.4737 49.3824C95.6935 48.4573 95.3202 46.6088 96.3116 45.6973C96.3383 45.6502 96.3684 45.6026 96.4053 45.5546ZM81.0297 39.6685L81.3004 39.621C82.1394 39.4758 83.1828 39.3364 83.7763 40.0112C84.0908 40.369 84.1996 41.034 83.7763 41.3765C83.0317 41.9791 82.2091 41.7456 81.3175 41.7966C80.5825 41.8388 79.8762 41.9605 79.1678 42.1629C77.615 42.607 76.3493 43.4177 75.0228 44.308C74.8485 44.4247 74.6707 44.202 74.7541 44.0391C75.5199 42.5387 77.0037 41.3061 78.4902 40.5548C79.2833 40.1538 80.1517 39.8211 81.0297 39.6685ZM94.8402 38.9963L95.0474 39.0389C97.3065 39.5112 100.241 40.4548 101.311 42.6744C101.352 42.9882 101.309 43.0555 101.274 43.0995L101.262 43.1141C101.233 43.1517 101.21 43.2034 101.074 43.2461C101.036 43.2371 100.998 43.2276 100.96 43.2174C100.47 43.0889 100.082 42.9118 99.7058 42.7281L99.299 42.5274C98.8265 42.2957 98.3499 42.0723 97.8446 41.9075C96.7663 41.5557 95.658 41.308 94.5318 41.1757C94.2877 41.147 94.0532 41.0646 93.8672 40.9234C93.6915 40.7893 93.5575 40.6038 93.4959 40.3571C93.4166 40.0379 93.4392 39.7962 93.6101 39.5082C93.7394 39.2919 93.9233 39.142 94.1352 39.0559C94.3506 38.9682 94.5961 38.9474 94.8402 38.9963Z" fill="black"/>
<path fill-rule="evenodd" clip-rule="evenodd" d="M105.974 55.3028C105.495 54.66 104.634 53.8156 103.764 53.8614C103.652 53.8669 103.611 53.9879 103.678 54.0693C103.963 54.4173 104.352 54.6648 104.637 55.0197C104.975 55.4402 105.218 55.9469 105.377 56.4597C105.607 57.2043 105.67 58.0467 105.465 58.8043C105.103 60.139 103.96 61.1175 102.712 61.6166C101.477 62.111 99.9909 62.2798 98.8231 61.5557C97.0986 60.4857 95.6361 58.9438 93.4692 58.9137C92.9626 58.9062 92.605 59.1387 92.3923 59.4703C92.1783 59.1503 91.8262 58.9246 91.3318 58.9185C88.9024 58.8911 87.0891 60.5643 85.0501 61.607C83.6723 62.312 81.8891 62.0932 80.4676 61.6275C79.1267 61.1886 77.671 60.3065 77.165 58.9137C76.886 58.1445 76.9483 57.2467 77.2348 56.4884C77.4235 55.99 77.7148 55.5086 78.0751 55.1168C78.4484 54.7106 78.9394 54.4549 79.3216 54.0693C79.3995 53.9906 79.338 53.8683 79.2354 53.8614C77.6108 53.7513 76.1442 55.6918 75.8372 57.0997C75.5349 58.4857 75.9855 59.8689 76.897 60.9267C78.7513 63.0778 82.1838 63.7868 84.8552 63.1551C87.0173 62.6436 89.0713 61.4655 91.3318 61.6344C91.8268 61.6713 92.1831 61.4648 92.3978 61.1516C92.6125 61.4744 92.9701 61.685 93.4692 61.6364C95.5759 61.4327 97.4562 62.9253 99.5013 63.2898C101.129 63.5797 102.888 63.1886 104.284 62.3106C105.742 61.3937 106.768 59.9222 106.836 58.1684C106.875 57.1592 106.579 56.1151 105.974 55.3028Z" fill="black"/>
</g>
</svg>
