<svg width="154" height="175" viewBox="0 0 154 175" fill="none" xmlns="http://www.w3.org/2000/svg">
<mask id="mask0_1_70" style="mask-type:alpha" maskUnits="userSpaceOnUse" x="0" y="0" width="154" height="175">
<path d="M153.162 98.2251C153.162 140.52 118.876 174.806 76.5811 174.806C34.2865 174.806 0 140.52 0 98.2251C0 77.6332 37.3037 83.0685 37.3037 63.9232C37.3037 9.67824 54.0808 0.90332 75.7834 0.90332C97.486 0.90332 123.836 9.67824 123.836 58.738C123.836 89.4502 153.162 77.6332 153.162 98.2251Z" fill="white"/>
</mask>
<g mask="url(#mask0_1_70)">
<path fill-rule="evenodd" clip-rule="evenodd" d="M25.858 172.595C44.1426 175.373 62.7587 175.513 81.1956 174.504C88.492 173.958 95.8108 173.859 103.101 174.558C107.409 174.878 126.298 176.323 127.841 172.463C126.87 151.909 124.903 131.179 118.868 111.411C116.386 104.392 114.254 98.5662 109.41 92.7577C107.884 91.1718 104.592 87.8456 102.705 86.7605C101.071 85.8211 100.388 86.1563 99.4491 84.569C98.5163 82.8155 97.8287 79.8874 96.5044 78.6506C95.1563 77.3906 93.1583 77.8411 90.6814 78.2472C91.1365 72.0962 88.2985 70.5295 84.3887 69.3603C77.5163 66.7363 70.7287 68.0546 68.9991 76.4241C65.7921 76.4241 63.9902 77.8047 62.0426 79.1316C61.2463 79.6735 61.8001 81.0554 60.8495 81.4813C59.0899 82.108 55.9806 81.955 54.2865 82.7261C46.5829 86.2332 39.7214 91.3195 35.2154 98.747C25.1132 114.606 18.1739 148.012 19.3747 166.808C18.8486 167.633 19.5761 168.817 19.7611 169.704C19.9945 170.476 20.7504 170.99 21.5393 170.902C22.6402 172.086 24.3429 172.35 25.858 172.595Z" fill="white"/>
<path fill-rule="evenodd" clip-rule="evenodd" d="M101.54 86.2962C101.428 86.2339 101.527 86.0736 101.64 86.1266C107.063 88.6711 111.222 93.1361 114.15 98.2947C117.18 103.637 118.908 109.701 120.397 115.629L120.451 115.843C122.039 122.184 123.39 128.591 124.605 135.013C125.836 141.517 126.824 148.061 127.619 154.632C128.013 157.88 128.363 161.136 128.637 164.397C128.773 166.027 128.897 167.658 129.009 169.289C129.054 169.942 129.095 170.594 129.132 171.247L129.158 171.737C129.179 172.182 129.232 172.627 129.123 173.065C129.028 173.444 128.828 173.785 128.652 174.132C128.304 174.818 127.35 174.706 126.975 174.132L126.866 173.966C126.618 173.581 126.411 173.224 126.333 172.746C126.258 172.282 126.255 171.797 126.221 171.329C126.159 170.468 126.106 169.607 126.045 168.745C125.918 166.932 125.776 165.12 125.618 163.31C125.305 159.737 124.971 156.165 124.559 152.601C123.829 146.267 122.911 139.95 121.83 133.666C120.774 127.528 119.439 121.452 118.046 115.384L117.901 114.755C115.462 104.16 111.702 91.9589 101.54 86.2962ZM43.7824 127.785C43.8223 127.679 43.9939 127.654 44.0229 127.785C44.3882 129.43 44.4243 131.125 44.4801 132.809C44.5351 134.471 44.5329 136.14 44.5087 137.802C44.4194 143.913 44.2517 150.018 44.1067 156.128C44.0342 159.184 43.9662 162.241 43.914 165.297C43.8943 166.443 43.8777 167.589 43.8639 168.736L43.847 170.248C43.8386 170.916 43.8211 171.577 43.7396 172.244C43.6858 172.684 43.5714 173.103 43.329 173.479C43.1569 173.746 42.9118 173.882 42.6728 174.064L42.6281 174.098C42.3232 174.339 42.0022 174.341 41.7003 174.098L41.6126 174.029C41.3242 173.803 41.075 173.627 40.8909 173.271C40.6348 172.774 40.5938 172.235 40.5503 171.689C40.4842 170.86 40.528 170.019 40.5366 169.188C40.5537 167.52 40.5767 165.853 40.606 164.186C40.7133 158.071 40.9255 151.955 41.3122 145.852C41.4944 142.977 41.7414 140.093 42.0728 137.229L42.1358 136.693C42.2363 135.85 42.328 134.993 42.4313 134.132C40.8894 133.048 39.5341 131.731 38.3783 130.238C38.2932 130.128 38.4333 129.974 38.536 130.08C39.717 131.304 41.0711 132.279 42.5701 133.045C42.8158 131.245 43.1535 129.454 43.7824 127.785ZM69.5421 73.2802C69.5627 73.2643 69.5958 73.257 69.6163 73.2802C69.9476 73.667 69.8807 74.258 69.8913 74.7475L69.8926 74.7932C69.9158 75.5093 69.9204 76.2235 69.9184 76.9403L69.9105 79.2211C69.9098 79.5345 69.8846 79.861 69.9005 80.1764L69.9085 80.2989C70.0827 80.4771 70.1635 80.7348 70.1046 80.9939C70.094 81.3257 69.9204 81.6026 69.6674 81.7769L70.2099 82.5473L70.7531 83.3171C71.8727 84.905 73.0048 86.4797 74.184 88.0245C75.387 89.5992 76.6702 91.1149 78.013 92.5723C78.6689 93.2845 79.336 93.9867 80.0183 94.673C80.2959 94.9519 80.5801 95.2242 80.8616 95.4991L81.1412 95.7753C81.3068 95.9409 81.5148 96.1046 81.6241 96.3139C81.689 96.4378 81.7036 96.7425 81.7268 96.7929C81.9335 97.248 81.5804 97.9747 80.9928 97.7475L81.0199 97.7296C81.1266 97.6554 81.0584 97.6541 80.8139 97.7263C80.6602 97.7256 80.5158 97.6905 80.3807 97.6203L80.3409 97.5984C80.1508 97.5017 79.9812 97.3149 79.8269 97.1652L79.7884 97.1287C79.436 96.7982 79.0995 96.4477 78.7616 96.1019C78.0554 95.3805 77.3658 94.6438 76.698 93.8873C75.3658 92.3789 74.1025 90.8082 72.9061 89.1892C71.6879 87.5403 70.5551 85.8066 69.5812 84.0021C69.2116 83.3171 68.8731 82.6189 68.5478 81.9127C67.9158 81.71 67.7687 81.0369 67.8131 80.2791C67.5799 79.7358 67.3693 79.1807 67.2454 78.6143C67.2282 78.5368 67.3282 78.4633 67.3878 78.5315C67.5899 78.7614 67.7774 79.0058 67.9575 79.2569C68.0662 78.7256 68.2033 78.2367 68.2682 77.9247L68.5485 76.5487C66.9685 76.4666 65.2375 77.1158 64.1484 78.2519C64.0901 78.548 63.8622 78.76 63.6403 79.0369C63.3866 79.3529 63.1653 79.708 63.0003 80.079C62.6347 80.9018 62.8414 82.1141 62.1305 82.7176C62.057 82.7805 61.9742 82.8242 61.8887 82.8514C62.2259 84.5042 62.0729 86.326 62.0656 88.0033L62.065 88.1511C62.0669 90.0278 62.004 91.9066 61.9318 93.782L61.8583 95.6389C61.7622 98.1145 61.7006 100.591 61.9411 103.053C63.0388 102.081 64.1742 101.152 65.3488 100.267C66.1205 99.6858 66.9082 99.1247 67.7104 98.5848L68.3616 98.1496C69.1427 97.6256 69.9423 97.0863 70.7975 96.7114C71.9157 96.2212 72.979 96.3894 74.0588 96.8922C75.134 97.3937 76.1774 97.9754 77.2313 98.5186C78.3045 99.0711 79.379 99.6183 80.4535 100.167C81.165 100.531 82.2077 100.86 82.7291 101.529C82.7629 101.381 82.8013 101.233 82.847 101.086C82.7953 100.862 82.8152 100.619 82.9411 100.388C84.6946 97.1645 86.317 93.8641 87.9281 90.5677C88.7436 88.8997 89.5193 87.2117 90.3361 85.5443L91.1304 83.9206C91.2629 83.6497 91.3961 83.3794 91.5299 83.1098C91.7306 82.7056 91.9393 82.3055 92.142 81.9021C92.2274 81.7318 92.3348 81.5629 92.4182 81.3913L92.458 81.3045C92.46 81.3006 92.6521 80.6951 92.5037 80.7527L92.4904 80.7587C92.4149 80.8017 92.354 80.7063 92.403 80.6454C92.6137 80.385 92.9065 80.6156 93.0264 80.8561C93.3563 81.5185 92.7508 82.5586 92.5183 83.1926L92.505 83.2283C91.7823 85.2747 90.9641 87.2833 90.1255 89.2852C88.5177 93.1222 86.79 96.9002 85.0662 100.685L85.0464 100.75C85.4134 100.469 85.8062 100.213 86.1421 99.9641C86.99 99.3354 87.8625 98.7385 88.7336 98.143C90.3308 97.0512 91.9717 96.0317 93.6398 95.0519L93.9737 94.8565C94.8064 94.3709 95.6318 93.9774 96.6209 94.1232C97.5397 94.2583 98.3936 94.7518 99.2237 95.1533L99.3098 95.1944L101.874 96.4139C101.6 95.3202 101.303 94.2318 100.994 93.1473C100.39 91.0321 99.7245 88.9348 99.0038 86.8566C98.3307 84.9143 97.6033 82.9932 96.8335 81.0879L96.6017 80.5156C96.2877 79.7312 95.9756 78.876 95.0787 78.6342C94.1824 78.3924 93.1542 78.7508 92.3348 78.2393C92.2606 78.193 92.2692 78.0704 92.3599 78.0479L92.8654 77.92C93.8147 77.6842 94.9276 77.4464 95.8253 77.6763C96.8017 77.9267 97.6099 78.7461 98.0836 79.5987C98.6109 80.5474 98.9819 81.6086 99.382 82.6202L99.4456 82.7792C99.904 83.9232 100.346 85.0746 100.768 86.2332C101.613 88.5492 102.382 90.893 103.077 93.258C103.412 94.3974 103.73 95.5428 104.036 96.6902C104.125 97.0208 104.27 97.4209 104.388 97.8382C104.525 97.9714 104.654 98.1198 104.774 98.2894C104.976 98.5703 104.831 98.8995 104.582 99.0678C104.572 99.3546 104.508 99.6249 104.356 99.8567C103.76 100.761 102.186 100.528 102.25 99.3122C102.26 99.1261 102.332 98.9485 102.442 98.7981L102.439 98.7743L102.426 98.7292C102.153 98.5987 101.878 98.4523 101.589 98.3092L98.8971 96.979C98.118 96.5935 97.2535 95.9979 96.387 95.8509C95.5788 95.7144 94.7262 96.3166 94.0313 96.6803L93.9863 96.7034C92.3076 97.564 90.6415 98.4537 88.9814 99.35C88.1712 99.7879 87.3716 100.244 86.5647 100.687C85.8897 101.057 85.1616 101.589 84.4031 101.798C84.0785 102.05 83.6936 102.016 83.3849 101.826C83.526 102.702 83.5174 103.6 83.5605 104.496C83.6188 105.693 83.628 106.893 83.6473 108.092L83.6552 108.541C83.7062 111.191 83.7334 113.841 83.7433 116.492C83.7791 125.93 83.6751 135.371 83.6506 144.809C83.638 149.551 83.5446 154.296 83.4214 159.036C83.369 161.045 83.2597 163.051 83.1418 165.057L83.0769 166.15C82.9397 168.459 82.8589 170.792 82.4316 173.069C82.376 173.366 81.8732 173.374 81.8242 173.069C81.4313 170.629 81.4095 168.136 81.3333 165.668L81.3174 165.174C81.2266 162.524 81.1836 159.875 81.1928 157.223C81.2266 147.781 81.4717 138.346 81.6725 128.907C81.7732 124.164 81.8414 119.42 81.9984 114.679C82.0766 112.306 82.1653 109.936 82.2707 107.564C82.3177 106.506 82.3627 105.448 82.433 104.391L82.4648 103.938C82.4866 103.643 82.5045 103.351 82.5257 103.061C81.5704 103.41 80.6973 102.764 79.8381 102.322C78.8484 101.812 77.8587 101.302 76.8683 100.793L75.8766 100.286L73.8932 99.2738C73.0002 98.8173 72.3119 98.3636 71.3593 98.8988C67.9271 100.825 64.7731 103.388 61.9146 106.077C61.3667 106.593 60.2085 106.455 60.0698 105.59C59.4767 101.897 59.8374 98.1509 60.1401 94.4471L60.2517 93.0718C60.387 91.4289 60.5343 89.7867 60.7308 88.1511C60.8182 87.4191 60.9056 86.6877 61.0024 85.9577L61.0772 85.4098C61.1978 84.544 61.2766 83.6834 61.5343 82.8534C61.4535 82.8269 61.3753 82.7838 61.3051 82.7176C60.53 81.9822 60.9037 80.7057 61.2574 79.8306C61.6065 78.9667 62.1391 78.2128 62.8062 77.5643C62.9513 77.4225 63.1567 77.3311 63.3627 77.3265C64.9791 76.2546 66.7532 75.72 68.5995 76.305C68.6511 76.0572 68.7041 75.8094 68.7598 75.5623L68.8168 75.3152C68.9598 74.7025 69.0135 73.6902 69.5421 73.2802ZM86.1136 170.059C86.6151 169.921 87.1643 170.066 87.5319 170.434C87.8996 170.802 88.0453 171.351 87.9069 171.853C87.838 172.101 87.7128 172.315 87.5319 172.497C87.363 172.665 87.1662 172.784 86.941 172.857L86.8887 172.872L86.8065 172.906C86.5555 172.974 86.3037 172.974 86.052 172.906C85.8115 172.839 85.6028 172.717 85.426 172.541C85.2497 172.364 85.1285 172.155 85.0609 171.915C84.9934 171.663 84.9934 171.411 85.0609 171.16L85.0954 171.078C85.1643 170.831 85.2895 170.616 85.4697 170.434C85.6519 170.253 85.8665 170.128 86.1136 170.059ZM115.906 120.041C115.989 119.947 116.122 120.068 116.071 120.168C115.289 121.701 114.418 123.223 113.562 124.717C113.631 125.131 113.698 125.542 113.777 125.942C114.11 127.648 114.519 129.324 114.785 131.046C115.743 137.237 116.24 143.496 116.666 149.742C117.094 156.012 117.149 162.283 117.213 168.565C117.218 169.109 116.799 169.742 116.239 169.844C115.982 169.891 115.79 169.882 115.533 169.844C114.95 169.758 114.585 169.089 114.56 168.565C114.392 165.054 114.167 161.548 113.906 158.043C113.443 151.829 113.161 145.598 112.788 139.377L112.656 137.203C112.515 134.847 112.385 132.49 112.344 130.131C112.315 128.567 112.399 127.005 112.348 125.444C112.3 124.002 112.154 122.435 112.472 121.018C112.484 120.965 112.568 120.952 112.591 121.003C112.922 121.699 113.131 122.455 113.292 123.226C114.144 122.149 115.011 121.07 115.906 120.041ZM60.1477 81.9663C60.2672 81.9571 60.2624 82.1366 60.1477 82.1498C58.4771 82.3439 56.8634 83.0236 55.286 83.602L55.1509 83.651C53.5574 84.23 52.0037 84.9024 50.5085 85.7039C47.5853 87.2713 44.9009 89.2925 42.5275 91.6065C33.0518 100.843 28.7335 114.163 25.5691 126.68C23.811 133.635 22.5608 140.707 21.7505 147.833C21.3497 151.358 21.0665 154.895 20.9013 158.439C20.8168 160.255 20.7635 162.072 20.7412 163.89C20.7297 164.821 20.7264 165.752 20.7275 166.684C20.7281 167.11 20.8042 167.648 20.6901 168.062C20.5843 168.446 20.286 168.784 20.0652 169.104C19.8036 169.483 19.3335 169.463 19.0683 169.104L18.9705 168.973C18.6876 168.598 18.4109 168.239 18.3705 167.748C18.3273 167.222 18.3577 166.68 18.3558 166.152C18.3513 165.087 18.3645 164.023 18.3858 162.959C18.4268 160.92 18.5071 158.881 18.6265 156.845C18.8689 152.712 19.2679 148.588 19.8392 144.488C20.8547 137.201 22.3769 129.983 24.3707 122.9C26.2517 116.22 28.4801 109.558 31.6546 103.369C34.6021 97.6229 38.4688 92.2775 43.571 88.2617C45.9437 86.3942 48.5266 84.8381 51.3114 83.6656C52.7158 83.0746 54.1907 82.5924 55.6906 82.3168C57.1739 82.0452 58.6507 82.0829 60.1477 81.9663ZM86.4011 158.249C86.6661 158.247 86.9609 158.306 87.1888 158.452L87.4922 158.687C87.5743 158.793 87.6565 158.899 87.7379 159.005C87.9281 159.253 87.9533 159.654 87.9135 159.949C87.9042 160.145 87.8459 160.329 87.7379 160.498L87.5067 160.798C87.2848 160.979 87.0993 161.108 86.8304 161.196C86.6893 161.241 86.5541 161.251 86.419 161.244L86.3739 161.241L86.4011 161.245L86.3534 161.24C86.3097 161.236 86.2653 161.231 86.2216 161.225C86.1911 161.221 86.1606 161.218 86.1308 161.215C86.1017 161.213 86.0738 161.211 86.0447 161.214C85.7029 161.246 85.3584 161.052 85.1159 160.829C84.8973 160.628 84.7006 160.202 84.731 159.9L84.7443 159.774C84.7675 159.561 84.786 159.477 84.8761 159.264C84.9642 159.055 85.0868 158.871 85.2531 158.716C85.5724 158.42 85.9632 158.253 86.4011 158.249ZM85.3418 142.668C85.7963 142.173 86.576 142.137 87.1391 142.436C87.2762 142.51 87.4021 142.627 87.5226 142.725C87.8274 142.971 87.9473 143.416 87.9638 143.79C87.9804 144.16 87.7856 144.6 87.5226 144.856L87.4591 144.917C87.3021 145.07 87.0775 145.203 86.8582 145.243C86.5045 145.308 86.207 145.306 85.8771 145.167C85.5942 145.048 85.3498 144.856 85.1842 144.595L85.157 144.551C85.1457 144.532 85.1351 144.514 85.1245 144.495L85.11 144.466C84.7946 143.859 84.8794 143.172 85.3418 142.668ZM85.577 127.006C85.7817 126.941 85.9864 126.932 86.1911 126.978C86.3302 126.979 86.4601 127.014 86.58 127.083C86.7105 127.12 86.8238 127.186 86.9198 127.281C87.0351 127.35 87.1278 127.442 87.1961 127.558C87.3325 127.707 87.4239 127.881 87.4716 128.082L87.5266 128.491L87.4716 128.901L87.3166 129.269C87.2736 129.324 87.2305 129.38 87.1874 129.436C87.1185 129.552 87.0265 129.644 86.9105 129.713C86.835 129.788 86.7482 129.844 86.6515 129.883C86.309 130.129 85.8519 130.209 85.4458 130.097C85.2047 130.03 84.9947 129.907 84.8172 129.731C84.6409 129.553 84.5184 129.344 84.4515 129.102L84.4237 128.91C84.3872 128.651 84.3819 128.508 84.4548 128.18C84.4873 128.035 84.58 127.831 84.629 127.746C84.837 127.379 85.1775 127.128 85.577 127.006ZM103.356 115.737C103.944 115.733 104.532 115.734 105.12 115.741L105.561 115.747C106.299 115.758 106.931 115.682 107.512 116.194C107.933 116.566 107.748 117.19 107.347 117.47C106.742 117.895 105.982 117.681 105.285 117.635C104.551 117.585 103.816 117.544 103.081 117.511C101.657 117.448 100.233 117.407 98.807 117.401C97.3854 117.395 95.9611 117.408 94.5388 117.431C93.092 117.454 91.5855 117.59 90.1467 117.44C89.9492 117.419 89.9049 117.159 90.0996 117.091C91.4557 116.622 92.9807 116.47 94.4016 116.291C95.867 116.106 97.3324 115.974 98.807 115.89C100.322 115.803 101.839 115.748 103.356 115.737ZM85.575 111.129L85.6234 111.13C85.8817 111.131 86.1242 111.191 86.3501 111.313L86.3985 111.339L86.7091 111.58C86.8993 111.771 87.0304 111.997 87.1033 112.257L87.1583 112.665C87.1662 112.877 87.1225 113.074 87.0265 113.257C86.9642 113.448 86.8582 113.612 86.7091 113.751C86.57 113.901 86.4051 114.007 86.215 114.069C86.046 114.157 85.8652 114.202 85.6717 114.202L85.6234 114.201C85.3465 114.2 85.0881 114.13 84.8483 113.992L84.5376 113.751C84.3475 113.56 84.2157 113.334 84.1428 113.074L84.0878 112.665C84.0805 112.454 84.1242 112.257 84.2203 112.074C84.2826 111.883 84.3879 111.719 84.5376 111.58C84.6767 111.43 84.8417 111.324 85.0318 111.262C85.2007 111.173 85.3816 111.129 85.575 111.129ZM90.1261 75.0522C90.4567 74.5726 91.0562 74.9992 90.9701 75.3841C90.9926 76.4666 91.0483 77.5166 91.294 78.5765C91.4067 79.0621 91.5544 79.5477 91.7823 79.9922L91.8777 80.1797C92.1725 80.762 92.4017 81.3112 92.0049 81.9504C91.8174 82.2519 91.4795 82.4784 91.1125 82.4625C89.4875 82.3923 89.2636 80.1287 89.1649 78.8647C89.0629 77.5636 89.3802 76.1334 90.1261 75.0522Z" fill="black"/>
<path fill-rule="evenodd" clip-rule="evenodd" d="M55.9922 22.6362C56.718 21.8571 57.6463 21.2766 58.6611 21.0911C57.7335 21.5547 56.8267 22.0378 55.9922 22.6362ZM54.5704 29.3546C54.442 28.7607 54.3558 28.1612 54.3286 27.5618C54.4909 27.8085 54.7499 27.9733 55.0409 28.0585C54.8529 28.4795 54.6931 28.9132 54.5704 29.3546ZM103.138 38.6644C102.3 35.1757 98.3919 28.4653 97.4677 27.1738C96.4648 23.9758 101.936 21.4111 98.9603 18.9104C97.6135 17.782 95.8328 17.3828 94.1627 16.9826C82.5982 14.2042 70.173 15.6055 59.4472 20.7146C57.8157 20.3711 56.1159 21.0423 54.9295 22.2213C49.3558 27.8256 56.9517 37.9375 58.6127 44.2557C61.4624 51.3006 55.5922 52.4858 56.2217 58.4466C56.7109 61.5257 59.8287 62.3399 62.46 62.8049C62.8813 62.9036 63.4451 62.9189 63.5809 63.3647C64.0075 65.9675 65.4689 68.4478 67.4311 70.1317C67.2596 70.6398 67.3901 71.2572 67.9955 71.7037C73.4774 75.7792 80.3895 77.8189 87.2261 77.4519C95.3744 77.0154 99.5883 72.343 100.605 71.1407C106.227 63.5449 105.555 53.5238 104.408 44.4724C103.609 38.1669 104.622 44.8445 103.138 38.6644Z" fill="white"/>
<path fill-rule="evenodd" clip-rule="evenodd" d="M78.0139 9.63572C78.2703 8.8348 78.995 8.35319 79.8251 8.45263C80.5597 8.53941 81.3461 9.26885 81.2566 10.0739C81.2401 10.2293 81.2175 10.375 81.191 10.5122L81.1944 10.5134L81.1977 10.5135L81.1798 10.5667C81.1248 10.823 81.0493 11.0526 80.9373 11.2696C80.7949 11.6854 80.6578 12.1027 80.522 12.5213C80.718 12.5129 80.9181 12.5241 81.1208 12.5619C81.3308 12.0243 81.5421 11.488 81.7521 10.949C81.9774 10.3736 82.1357 9.63426 82.5809 9.18909C83.1499 8.62063 84.1383 8.50298 84.8326 8.90906C85.5659 9.33748 85.8276 10.0991 85.6679 10.9154C85.5871 11.3317 85.3089 11.6215 84.9651 11.8036L84.928 11.8227L84.663 12.4499C84.7445 12.4149 84.8286 12.3827 84.9194 12.3561C85.0618 12.3141 85.2022 12.2875 85.3394 12.2763C85.717 11.5916 86.133 10.9266 86.5623 10.2741C87.0565 9.52369 88.0223 9.20445 88.8325 9.67911C89.5573 10.1033 89.9468 11.2178 89.4274 11.9501C89.0326 12.5059 88.659 13.073 88.2906 13.6456C88.3536 13.6568 88.4165 13.6708 88.4768 13.689C88.5053 13.6512 88.5344 13.6134 88.5649 13.5756C88.967 13.0772 89.434 12.7033 89.9143 12.2889C90.3635 11.8997 90.5708 11.2878 91.1611 10.9924C91.9044 10.6214 92.8 10.7992 93.2425 11.5384C94.1912 13.122 92.5986 14.2784 91.5797 15.2375C92.4655 14.6845 93.3883 14.1791 94.3343 13.7422C94.8662 13.4972 95.4061 13.2606 95.9546 13.0561C96.7681 12.7537 97.426 12.8505 98.0937 13.4132C98.3918 13.6652 98.5396 14.2156 98.4024 14.5823C98.1368 15.2851 97.7168 15.7122 96.9808 15.9152C96.4627 16.058 95.9328 16.1546 95.4147 16.3044C94.5469 16.5537 93.7043 16.8575 92.8868 17.2369C92.9457 17.2733 93.002 17.3125 93.0537 17.3573C93.6638 17.1599 94.2852 16.9891 94.9093 16.8435C95.9447 16.6006 96.998 16.4365 98.0566 16.3339L98.4084 16.3012C99.677 16.1794 101.203 15.9546 101.982 17.1697C102.237 17.5701 102.265 18.231 101.982 18.6272C101.438 19.3889 100.898 19.5401 99.9996 19.5541C100.884 19.6479 101.767 19.7641 102.646 19.8999C103.252 19.9923 103.858 20.0971 104.461 20.2133L104.762 20.2723C105.497 20.4194 106.318 20.5048 106.948 20.9304C108.325 21.8601 107.679 23.6704 106.153 23.8636C105.416 23.9561 104.597 23.6438 103.874 23.4982C103.171 23.3568 102.466 23.2322 101.757 23.1229C101.391 23.0656 101.024 23.0152 100.656 22.9689C101.405 23.0768 102.148 23.2294 102.871 23.445L103.073 23.5057C104.471 23.9321 106.359 24.6114 106.796 26.1066C107.06 27.0153 106.337 27.8077 105.461 27.8609C104.646 27.91 103.967 27.4241 103.276 27.0657C102.772 26.8052 102.26 26.6107 101.717 26.4441C101.156 26.2718 100.583 26.129 100.007 26.0128C100.494 26.2814 100.969 26.5766 101.424 26.9068L101.633 27.0615C102.844 27.9641 104.691 29.3614 104.264 31.0532C104.129 31.5867 103.535 32.0963 102.964 32.0417C101.478 31.9031 100.657 30.3195 99.5366 29.4711C99.2438 29.2498 98.9231 29.0314 98.5873 28.8187C100.286 30.846 101.639 33.1898 102.667 35.6106C104.928 40.9363 105.621 45.8683 105.638 51.5948L105.638 51.7724C105.641 54.931 105.57 58.1466 105.262 61.2913C104.977 64.1968 104.453 67.0639 103.136 69.6952C100.929 74.1066 96.6284 77.5428 91.8851 78.8505C86.6073 80.3065 80.7081 79.1678 76.3849 75.8078C75.2819 74.9512 76.7446 73.0904 77.8708 73.8813C82.3709 77.0386 88.1899 78.0383 93.3545 75.9018C97.4511 74.2073 100.75 70.5631 102.148 66.367C103.038 63.6973 103.297 60.8507 103.615 58.0691L103.636 57.8836C103.972 54.974 104.166 52.0453 104.163 49.116C104.159 43.6766 103.378 39.1991 100.986 34.2651C99.8612 31.9409 98.4011 29.7919 96.6575 27.9058C96.1282 28.0136 95.5658 27.8623 95.0312 27.805C94.7582 27.7755 94.4853 27.7475 94.2124 27.7223C94.4913 27.9027 94.7649 28.0902 95.0332 28.2821L95.3856 28.5364C96.4892 29.3266 97.8884 30.2268 97.6048 31.7547C97.528 32.1677 97.1166 32.5471 96.7178 32.6409C95.2716 32.9853 94.278 31.5797 93.3015 30.7452C92.4515 30.0199 91.5632 29.3703 90.6576 28.7192C90.4516 28.5722 90.2449 28.4252 90.0362 28.2796C90.2323 28.5081 90.4224 28.7402 90.6086 28.9744L90.8835 29.3229C91.7149 30.3639 92.9139 31.717 92.1733 33.0665C91.9633 33.4474 91.5155 33.7008 91.0816 33.6924C89.5897 33.6616 88.9962 31.9675 88.2966 30.8978C87.6944 29.9807 87.0412 29.1168 86.3649 28.253C86.1787 28.0163 85.9912 27.7797 85.8011 27.5432C82.6677 27.7055 79.5448 28.12 76.477 28.7822C74.3697 29.2373 72.2968 29.8269 70.2392 30.4722L70.0683 30.5266C68.9547 30.8852 67.8074 31.3442 67.0051 32.1313C66.8905 32.6736 66.978 33.2455 67.0879 33.7871L67.1734 34.2016C67.5251 35.9351 67.765 37.6364 67.5854 39.4161C67.3993 41.2516 66.8468 42.9024 66.1724 44.6077C65.8531 45.4114 65.5225 45.2658 65.4092 46.1282C65.3225 46.7852 65.3761 47.4633 65.4357 48.1258L65.4854 48.6874C65.6093 50.1586 65.6722 51.7624 64.7084 52.9761C64.5586 53.1622 64.238 53.088 64.1314 52.9019C64.0896 52.8277 64.0446 52.7561 63.9956 52.6879C63.5312 52.0142 62.819 51.6306 62.0042 51.4822C61.9009 51.4643 61.9413 51.3252 62.0281 51.314C62.7163 51.2331 63.3689 51.4054 63.9234 51.7611C63.6604 50.8516 61.6253 51.2941 60.9568 51.4703L60.9337 51.4769C60.0994 51.7008 59.31 52.0645 58.6145 52.5799C57.2149 53.616 56.4059 55.2317 56.4466 56.972C56.4872 58.6832 57.3703 60.2638 58.8874 61.0826C59.6194 61.4774 60.4521 61.6682 61.2808 61.6596C62.1453 61.651 62.9151 61.2721 63.7816 61.3251C64.2824 61.3555 64.666 61.8935 64.3765 62.3625C64.183 62.6758 63.9313 62.9222 63.6405 63.1117C64.35 64.748 65.2556 66.3094 66.2996 67.7503C66.8773 68.5499 67.5324 69.2872 68.2532 69.9609C68.8156 70.4875 70.0352 71.0963 69.9663 71.9741C69.9425 72.2908 69.7788 72.4842 69.4907 72.6015C68.5944 72.9678 67.5039 71.7058 66.9044 71.097L66.8567 71.0487C66.1095 70.3041 65.4278 69.4806 64.8342 68.6068C63.7816 67.056 63.1284 65.3071 62.8581 63.4701C61.4206 63.9027 59.5172 63.4966 58.3444 62.966C54.6579 61.2999 53.4529 56.3334 55.6936 53.0264C56.1274 52.3865 56.6705 51.8393 57.2891 51.3968C57.1533 51.3226 57.026 51.2272 56.9126 51.1073C56.2855 50.4408 55.8421 49.571 55.4021 48.7694L55.3493 48.6736C54.9587 47.9679 54.5901 47.2512 54.2447 46.5234L54.1163 46.25C53.3451 44.5909 52.6691 43.8656 52.1191 42.1211C51.5901 40.4381 51.173 38.723 50.9029 36.9785L50.8311 36.5167C50.6749 35.5044 50.5271 34.4219 50.6411 33.3942C49.856 33.6504 49.0667 33.8086 48.2899 33.4236C47.7777 33.1702 47.4949 32.4309 47.6699 31.9003C47.7973 31.5096 48.01 31.203 48.2801 30.9622C48.1192 30.881 47.968 30.7774 47.835 30.6625L47.7189 30.5619C47.2486 30.1529 47.215 29.3758 47.5006 28.8634C47.5285 28.8144 47.5565 28.764 47.5831 28.715C47.8546 28.2292 48.4159 27.9113 48.9701 27.9198C49.0597 27.9211 49.1492 27.9211 49.2402 27.9198C48.9813 27.8623 48.728 27.7742 48.4872 27.6258C47.4012 26.9579 47.5383 25.1476 48.8525 24.8283C49.4039 24.6953 50.0127 24.7499 50.6201 24.8927C50.5978 24.8801 50.5754 24.8675 50.553 24.8535C50.094 24.5721 49.7091 24.0218 49.7525 23.4576C49.8 22.8331 50.0015 22.3879 50.553 22.0603C51.0317 21.7775 51.709 21.7509 52.1849 22.0603C52.5978 22.3305 53.0022 22.6288 53.3913 22.9494C53.0008 22.4691 52.6621 21.9469 52.525 21.3924C52.3557 20.7022 52.6383 19.9503 53.2598 19.5863C53.7552 19.2964 54.2787 19.3286 54.7461 19.5527C54.7209 19.1901 54.8091 18.8204 55.0498 18.4928C55.5424 17.8209 56.4381 17.4343 57.2177 17.9244C57.3199 17.9887 57.4571 18.0994 57.59 18.2352C57.3311 17.4105 57.5648 16.5452 58.4479 16.1728C58.9868 15.9446 59.7159 16.0594 60.1834 16.4528C59.8867 14.8469 62.2559 13.6666 63.1768 15.3257C63.3861 15.7016 63.5928 16.0974 63.7776 16.5023L63.8458 16.6545L63.8531 16.6516L63.8061 16.5403L63.7577 16.4291C63.502 15.834 63.1754 15.2152 63.086 14.5697C62.9548 13.6148 63.3801 12.7089 64.4182 12.5689C64.9548 12.4961 65.551 12.7397 65.9107 13.1655C65.716 11.684 67.3701 10.6073 68.5612 11.7135C69.125 12.2371 69.4264 13.0029 69.7841 13.675C69.9875 14.0545 70.1942 14.4325 70.3976 14.8133C70.4492 14.7517 70.5049 14.6901 70.5639 14.6299C70.2631 13.7282 70.0292 12.8041 69.8318 11.8745C69.6444 10.998 70.0822 10.0879 70.9865 9.84022C71.808 9.61326 72.8368 10.1202 73.0203 10.9953C73.1488 11.6112 73.3018 12.2204 73.4694 12.8265C73.584 12.7986 73.6973 12.779 73.8092 12.7649C73.8192 12.651 73.8298 12.5366 73.841 12.4227L73.8854 12.0177C73.9835 11.0923 74.0822 10.0359 74.5651 9.24924C75.3899 7.90517 77.5031 8.46237 77.5257 10.0515C77.5382 10.8734 77.2037 11.6883 77.0871 12.5017C77.0368 12.8559 77.0076 13.2144 76.991 13.5728C77.2163 12.3827 77.5257 11.208 77.8834 10.0515C77.9258 9.91289 77.9702 9.7743 78.0139 9.63572ZM59.7808 55.5285C61.6352 55.2417 63.3298 56.2764 64.4288 57.7252C64.6289 57.9902 64.497 58.3639 64.3168 58.5864C64.1863 58.7501 64.0115 58.7699 63.814 58.7951C63.5875 58.8243 63.3006 58.6408 63.2013 58.4434C62.4944 57.0323 61.2338 56.1406 59.7808 55.5915C59.7542 55.5815 59.7458 55.5345 59.7808 55.5285ZM62.3507 30.2419L62.407 30.1816C62.7819 29.7923 62.189 29.1975 61.8127 29.5877C61.4173 29.9985 61.1536 30.4975 60.9005 31.0032C60.6597 31.4854 61.3835 31.9113 61.6259 31.4273L61.7359 31.2073C61.9095 30.8653 62.0936 30.5273 62.3507 30.2419ZM57.1434 29.4428C57.6752 29.3532 57.4497 28.5435 56.9201 28.6328C56.2341 28.7485 55.5506 28.88 54.8645 28.9957C54.3328 29.0854 54.5582 29.895 55.0878 29.8059C55.7739 29.6901 56.4573 29.5586 57.1434 29.4428ZM88.8246 23.9151C88.3112 23.7435 88.0906 24.5546 88.6013 24.7251C89.3075 24.9607 90.0077 25.2023 90.6781 25.5295C91.1617 25.7658 91.5877 25.0416 91.1015 24.8041C90.3668 24.445 89.5997 24.1737 88.8246 23.9151ZM57.022 22.8263C56.5203 22.6255 56.3024 23.4377 56.7989 23.6364L58.6127 24.3621C59.1144 24.5629 59.3323 23.7508 58.8359 23.5521L57.022 22.8263ZM95.1584 20.8539L95.0921 20.8121C94.637 20.5172 94.2157 21.2441 94.6681 21.5375C94.9338 21.7096 95.2564 21.8263 95.4995 22.0313L95.5505 22.0767C95.9434 22.4477 96.5383 21.8549 96.1441 21.4826C95.8559 21.2105 95.4916 21.059 95.1584 20.8539Z" fill="black"/>
<path fill-rule="evenodd" clip-rule="evenodd" d="M93.3673 67.8952C92.473 67.9024 91.4674 67.5666 90.795 67.3036L90.6194 67.234C90.0371 67.0008 89.4396 66.7332 88.9938 66.284C88.8513 66.1383 88.6996 65.9727 88.6221 65.7991C88.5771 65.6971 88.5585 65.5918 88.6022 65.4871C88.7632 65.4712 88.9163 65.4507 89.0607 65.4242C89.1296 65.4116 89.1958 65.3983 89.2462 65.3983C89.433 65.397 89.6171 65.4209 89.8013 65.444C89.8285 65.4474 89.855 65.4507 89.8815 65.454C90.0252 65.4719 90.1683 65.4911 90.3107 65.5103C90.7254 65.5659 91.1381 65.6216 91.5588 65.6415C91.8629 65.656 92.1809 65.6388 92.5021 65.6216C93.3362 65.5759 94.1981 65.5143 94.84 66.0979C95.0082 66.2509 95.0785 66.4437 95.0785 66.6398C95.0785 66.8783 94.9778 67.1214 94.8247 67.3122C94.4783 67.7428 93.945 67.8905 93.3673 67.8952ZM98.245 60.3736C97.8562 60.9579 97.2076 61.3335 96.3193 61.2924C94.5531 61.2116 92.4458 60.5452 90.9672 59.5819C90.5817 59.3309 90.3319 58.9294 90.2876 58.5001L90.208 57.7357L89.7775 58.3723C89.7324 58.4385 89.6874 58.5048 89.6416 58.571C89.5171 58.7532 89.3926 58.9354 89.2753 59.1222C88.8242 59.839 88.4101 60.5637 88.0345 61.3229C87.7689 61.8608 87.5741 62.4623 87.3793 63.0698C87.0501 64.0946 86.7321 65.1022 86.0292 65.8223C85.9226 65.9316 85.7596 65.9707 85.6099 65.9515C85.4781 65.9343 85.3489 65.8693 85.2853 65.7408C84.4453 64.0317 85.5755 61.9721 86.4923 60.5399L86.589 60.3901C87.439 59.0964 88.8275 57.3839 90.4174 57.1514L90.5989 57.4415L90.8639 57.2646C91.2965 56.9758 91.8682 56.9897 92.3683 57.2156L92.8685 57.4415C93.7993 57.8595 94.7181 58.2451 95.7257 58.4564C95.7992 58.4716 95.8721 58.4862 95.9456 58.4995C96.0145 58.5121 96.0841 58.524 96.1543 58.5346C96.1391 58.4663 96.1232 58.3975 96.1066 58.3292C96.09 58.257 96.0728 58.1848 96.0543 58.1126C96.035 58.0384 96.0145 57.9642 95.9946 57.8907C95.9138 57.5965 95.8224 57.3051 95.7144 57.0202C95.3077 55.9477 94.6585 54.9447 94.0265 53.9881L93.9516 53.8755C93.8615 53.7384 93.7622 53.5953 93.6595 53.4475C93.1666 52.7381 92.6201 51.9676 92.5817 51.1939C93.2355 51.2349 93.7827 51.6417 94.265 51.9954C94.9261 52.481 95.5389 53.0362 96.0947 53.639C97.1732 54.8096 98.1404 56.3047 98.565 57.8509C98.8081 58.7366 98.7015 59.6893 98.245 60.3736ZM80.9932 51.5529V51.5218C80.9952 50.6288 81.5152 48.5901 82.7998 48.5901C83.6027 48.5901 84.0896 49.9776 84.1744 51.4078L84.177 51.4661C84.2141 52.3552 83.9703 54.2988 82.7998 54.2988C81.6166 54.2988 81.0058 52.4578 80.9932 51.5529ZM99.9091 51.2727L99.9098 51.2416C99.9078 50.3486 99.3878 48.3101 98.1033 48.3101C97.3202 48.3101 96.8373 49.6291 96.7359 51.0203L96.7286 51.1276C96.6783 51.9868 96.9062 54.0186 98.1033 54.0186C99.2857 54.0186 99.8972 52.1776 99.9091 51.2727ZM85.3204 45.5107C85.1502 45.5307 84.9806 45.5568 84.8116 45.5838C84.3175 45.6625 83.8259 45.757 83.3383 45.8672C82.4109 46.0765 81.4921 46.3408 80.5898 46.6395C79.7458 46.9191 78.9151 47.2351 78.0844 47.5511C78.04 47.5679 77.9956 47.5848 77.9519 47.6016C77.6584 47.7132 77.3663 47.8382 77.0728 47.9636C76.6269 48.1544 76.1785 48.3465 75.7207 48.4914C76.9264 46.8244 78.7833 45.5892 80.5699 44.7053C81.5894 44.2011 82.6712 43.7944 83.759 43.4612L84.3652 43.279C85.2568 43.0157 86.2326 42.7725 87.0706 43.2975C87.4019 43.5052 87.6139 43.828 87.6801 44.177C87.7457 44.5192 87.6708 44.8862 87.435 45.1924C87.229 45.4591 86.9726 45.6111 86.6997 45.6632C86.3982 45.7206 86.0789 45.6575 85.7881 45.5022C85.5556 45.4849 85.4867 45.4911 85.4178 45.4988L85.3204 45.5107ZM98.7419 45.6803C98.145 45.5505 97.5541 45.4984 96.9413 45.517C96.6644 45.5254 96.3961 45.5682 96.1285 45.6112C95.7138 45.6781 95.3004 45.7473 94.8526 45.6661C94.6194 45.6237 94.4206 45.4872 94.2669 45.309C94.0874 45.1005 93.9688 44.8342 93.9311 44.581C93.8913 44.3194 93.9304 44.0907 94.0278 43.8887C94.1417 43.6501 94.3345 43.449 94.567 43.2728C95.2712 42.7395 96.4789 42.8678 97.3103 42.9756C98.1311 43.0824 98.9479 43.3371 99.6739 43.7417C100.39 44.141 101.013 44.679 101.498 45.3365C101.908 45.8908 102.101 46.5287 102.3 47.1782C101.363 46.3918 99.929 45.9381 98.7419 45.6803Z" fill="black"/>
<path fill-rule="evenodd" clip-rule="evenodd" d="M96.9458 64.8477C97.3294 65.2412 97.6977 65.6625 98.0448 66.0977C98.1415 66.7893 98.1634 67.4895 98.0753 68.2123C97.9468 69.2596 97.6613 70.2832 97.275 71.2656C97.0465 71.2338 96.8213 71.1689 96.602 71.0682C95.9051 70.7475 95.5155 70.1023 95.0439 69.5326C94.1052 68.3998 92.392 67.7307 91.1937 68.9052C90.673 69.416 90.3404 70.1235 89.8754 70.6846C89.3646 71.302 88.7909 71.889 88.192 72.4209C88.1179 72.4878 88.0403 72.5607 87.9608 72.6322C87.6276 72.2513 87.3004 71.8678 86.9797 71.4782C86.0265 70.3189 85.2037 69.0351 84.7711 67.5876C84.634 67.1285 84.5485 66.6496 84.5154 66.1666C84.9394 65.64 85.4236 65.161 85.9735 64.7649C87.6316 63.5678 89.5421 63.373 91.5295 63.2697C93.5858 63.163 95.4374 63.3035 96.9458 64.8477ZM101.962 70.4017C101.882 69.6008 101.759 68.7681 101.577 67.9361C100.913 64.8503 99.4724 61.7745 96.5848 60.3648C95.2188 59.6964 93.6666 59.4612 92.1946 59.7832C89.611 58.816 86.7419 59.803 84.7082 61.5725C82.3094 63.6605 81.2024 66.9364 80.8301 70.0056C80.5711 72.1407 80.4737 74.9932 81.0792 76.5427C81.6847 78.0922 85.5336 82.2346 91.0274 82.2637C98.8524 82.3048 100.754 77.0257 100.985 76.5639C101.949 74.6428 102.173 72.5216 101.962 70.4017Z" fill="black"/>
<path fill-rule="evenodd" clip-rule="evenodd" d="M104.878 55.2138C103.593 56.8196 98.563 58.6022 95.8866 56.6672C93.2096 54.7322 92.1517 53.384 91.7939 50.9661C91.7555 50.7084 91.2898 50.5368 91.0924 50.7203C89.9894 51.7451 89.2759 53.0502 88.5684 54.3592C87.7702 55.8351 86.9845 57.3204 85.535 58.3194C82.9667 59.6966 78.3208 59.8927 76.9489 59.2852C74.3196 58.1213 72.2394 55.6331 71.7664 52.2082C71.7664 52.2082 71.2855 50.6892 70.8642 50.3692C70.4647 50.0664 68.26 49.7968 68.0182 49.7518C63.6659 48.9438 58.1611 48.4288 54.2844 51.2715C53.7598 51.5881 51.9638 52.7805 51.9372 52.4871C51.9185 51.339 53.2189 48.741 56.1764 47.5047C59.8337 45.9758 65.2704 45.8864 68.4197 46.2238C68.578 46.2408 69.1179 46.108 69.1563 46.0915C73.9281 44.0248 79.4185 44.5737 84.5241 45.4423C85.2555 45.5844 91.8052 47.2067 94.41 46.2238C98.7173 44.4647 103.31 43.1903 107.961 43.6916C108 43.6958 108.587 47.2614 108.13 47.5047C107.766 47.6983 107.146 48.1943 106.927 48.4657C106.73 48.7084 106.606 49.0101 106.617 49.4278C106.705 51.8458 106.016 53.7915 104.878 55.2138ZM87.1673 53.0568C87.7139 52.2665 87.8861 50.4911 87.6576 49.1955C87.5416 48.5397 87.317 48.0176 87.0348 47.7578C86.8474 47.585 86.6334 47.5037 86.3995 47.5158C86.2717 47.5224 86.1332 47.5588 85.9868 47.638C84.0001 46.563 81.5934 46.1759 79.3125 46.2873C77.4967 46.287 76.201 46.7157 75.3225 47.3832C74.2652 48.1863 73.7889 49.3408 73.7611 50.5931C73.7287 52.079 74.3388 53.704 75.3398 54.9905C76.2977 56.2214 77.608 57.1336 79.0297 57.3442C80.6434 57.6649 82.2876 57.3548 83.7179 56.5963C85.1839 55.8186 86.4227 54.5692 87.1673 53.0568ZM103.092 53.8948C104.012 52.8064 104.624 51.3907 104.717 49.9883C104.802 48.712 104.46 47.4477 103.516 46.4028C102.659 45.6674 101.146 45.6552 99.554 46.0648C97.4957 46.5943 95.3659 47.7776 94.6558 48.5419C94.4888 48.6296 94.3338 48.7823 94.1987 49.11L94.1974 49.2268C93.9827 50.2188 94.1099 51.2257 94.4822 52.1545C94.8863 53.1634 95.5792 54.0796 96.4239 54.7785C97.5468 55.7033 98.7187 55.9869 99.8157 55.8371C101.058 55.6682 102.214 54.9322 103.092 53.8948Z" fill="white"/>
<path fill-rule="evenodd" clip-rule="evenodd" d="M94.2627 45.8312C98.625 44.0497 103.287 42.7656 108.007 43.2744C108.398 43.1259 108.882 43.251 109.055 43.8033C110.736 48.9269 106.987 47.502 107.038 49.4174C107.43 60.1566 93.002 61.9909 91.379 51.0279L91.3492 51.0457C89.0153 53.2246 88.5238 56.7707 85.7739 58.6654C80.2271 62.7236 72.3637 59.5087 71.3541 52.2839L71.3323 52.1858C70.9931 50.7119 70.5876 50.3462 68.9156 50.3535L68.6513 50.3011C64.3075 49.4446 58.5227 48.6753 54.5215 51.6201C53.6512 52.1262 53.6104 53.4273 52.875 53.993C52.0694 54.1494 51.5732 53.1802 51.5186 52.5098C51.3909 45.8222 63.3529 45.3411 68.7102 45.9151C68.8123 45.8091 69.0309 45.8222 69.1044 45.9543C73.9496 43.8557 79.4083 44.1461 84.596 45.0286C87.809 45.651 90.9835 47.0686 94.2627 45.8312ZM107.573 44.5089C104.956 44.378 102.535 44.5212 99.9658 45.1506C98.6117 45.4774 97.573 45.8905 96.2765 46.3874C88.1932 49.9699 87.2611 43.6018 69.1408 46.0982C69.3753 47.1026 69.4184 48.0971 69.431 49.0408C73.1308 48.8917 72.2597 52.4256 73.6456 54.9079L73.6886 54.9827C75.7085 58.6051 80.4755 60.2943 84.3211 57.8916C87.5288 56.0215 87.8421 51.2769 91.0358 49.3942C93.8049 49.2853 92.6986 53.0238 94.2057 54.5601C96.3262 57.3914 100.835 57.7869 103.494 55.1238C104.742 53.8426 105.405 52.2156 105.442 50.4681C105.511 49.3512 105.32 48.2163 106.164 47.4308C106.755 46.8296 107.806 47.0302 107.927 46.1215C108.003 45.5841 107.78 45.0012 107.573 44.5089ZM79.1281 45.9727C81.7282 45.8446 84.4788 46.2962 86.7113 47.5719C88.3641 46.2563 88.7689 51.4849 87.6718 52.9967C86.0919 56.2315 82.4126 58.358 78.8704 57.6518C73.3441 56.8509 69.4933 45.963 79.1281 45.9727ZM86.553 47.9226L86.4112 47.902C84.0164 47.5364 77.4951 45.8428 74.9798 48.5159C72.5393 52.9496 78.7313 60.3977 85.1757 54.4654C86.9696 52.639 87.6646 50.4237 86.553 47.9226ZM94.1428 48.4892C95.3829 47.02 101.704 44.0443 103.907 45.9539C107.929 50.4621 101.552 59.5815 96.2103 55.1384C94.4309 53.6538 93.2604 51.2875 93.7724 48.9961L93.7731 48.9001C93.7744 48.8653 93.7811 48.8733 93.8182 48.8299C93.8844 48.6566 94.003 48.546 94.1428 48.4892ZM103.851 51.222C105.207 43.8632 99.5392 46.6606 94.884 48.6247C95.1338 48.8531 95.1331 49.1649 95.0609 49.4214C94.57 54.8807 101.204 57.9751 103.851 51.222ZM68.6162 46.2726C66.6745 46.9303 53.8319 45.7539 52.6455 51.7764C53.8978 49.7467 56.4915 48.9412 58.8231 48.5041C61.9949 47.9095 65.1489 48.2537 68.2757 48.8794L68.3406 48.232C68.4101 47.5453 68.483 46.9028 68.6162 46.2726Z" fill="black"/>
</g>
</svg>
