<svg width="17" height="17" viewBox="0 0 17 17" fill="none" xmlns="http://www.w3.org/2000/svg">
<path d="M16.32 0H0.68C0.303875 0 0 0.303875 0 0.68V16.32C0 16.6961 0.303875 17 0.68 17H16.32C16.6961 17 17 16.6961 17 16.32V0.68C17 0.303875 16.6961 0 16.32 0ZM5.04262 14.4861H2.52025V6.37287H5.04262V14.4861ZM3.7825 5.26363C3.49334 5.26363 3.21068 5.17788 2.97026 5.01723C2.72983 4.85659 2.54244 4.62825 2.43179 4.36111C2.32113 4.09396 2.29218 3.8 2.34859 3.5164C2.405 3.2328 2.54425 2.9723 2.74871 2.76783C2.95317 2.56337 3.21368 2.42413 3.49728 2.36772C3.78088 2.31131 4.07484 2.34026 4.34198 2.45091C4.60913 2.56157 4.83746 2.74896 4.99811 2.98938C5.15876 3.22981 5.2445 3.51247 5.2445 3.80162C5.24237 4.60912 4.58788 5.26363 3.7825 5.26363ZM14.4861 14.4861H11.9659V10.54C11.9659 9.59863 11.9489 8.3895 10.6548 8.3895C9.34363 8.3895 9.14175 9.41375 9.14175 10.472V14.4861H6.62363V6.37287H9.04188V7.48213H9.07587C9.41162 6.84463 10.234 6.171 11.4623 6.171C14.0165 6.171 14.4861 7.85187 14.4861 10.0364V14.4861V14.4861Z" fill="#0077B5"/>
</svg>
